G04*
G04 #@! TF.GenerationSoftware,Altium Limited,Altium Designer,23.4.1 (23)*
G04*
G04 Layer_Color=8421504*
%FSLAX25Y25*%
%MOIN*%
G70*
G04*
G04 #@! TF.SameCoordinates,19E63690-A372-4960-8BF1-84F811DABE0D*
G04*
G04*
G04 #@! TF.FilePolarity,Positive*
G04*
G01*
G75*
%ADD15R,0.12008X0.07087*%
%ADD16R,0.03425X0.03819*%
%ADD17R,0.05787X0.04016*%
%ADD18R,0.05000X0.02200*%
%ADD19R,0.02756X0.05512*%
%ADD20R,0.01575X0.05512*%
%ADD21R,0.07480X0.07874*%
G04:AMPARAMS|DCode=22|XSize=86.61mil|YSize=47.24mil|CornerRadius=4.72mil|HoleSize=0mil|Usage=FLASHONLY|Rotation=0.000|XOffset=0mil|YOffset=0mil|HoleType=Round|Shape=RoundedRectangle|*
%AMROUNDEDRECTD22*
21,1,0.08661,0.03780,0,0,0.0*
21,1,0.07717,0.04724,0,0,0.0*
1,1,0.00945,0.03858,-0.01890*
1,1,0.00945,-0.03858,-0.01890*
1,1,0.00945,-0.03858,0.01890*
1,1,0.00945,0.03858,0.01890*
%
%ADD22ROUNDEDRECTD22*%
G04:AMPARAMS|DCode=23|XSize=62.99mil|YSize=47.24mil|CornerRadius=4.72mil|HoleSize=0mil|Usage=FLASHONLY|Rotation=90.000|XOffset=0mil|YOffset=0mil|HoleType=Round|Shape=RoundedRectangle|*
%AMROUNDEDRECTD23*
21,1,0.06299,0.03780,0,0,90.0*
21,1,0.05354,0.04724,0,0,90.0*
1,1,0.00945,0.01890,0.02677*
1,1,0.00945,0.01890,-0.02677*
1,1,0.00945,-0.01890,-0.02677*
1,1,0.00945,-0.01890,0.02677*
%
%ADD23ROUNDEDRECTD23*%
%ADD24R,0.03898X0.05787*%
%ADD25R,0.03543X0.05709*%
%ADD26R,0.06102X0.05709*%
%ADD27R,0.04134X0.05512*%
%ADD28R,0.06890X0.03740*%
%ADD29R,0.06890X0.12598*%
G36*
X16591Y9598D02*
X16701Y9591D01*
X16807Y9579D01*
X16913Y9559D01*
X17020Y9532D01*
X17122Y9500D01*
X17224Y9465D01*
X17327Y9425D01*
X17421Y9378D01*
X17516Y9327D01*
X17610Y9268D01*
X17701Y9209D01*
X17784Y9142D01*
X17866Y9071D01*
X17945Y8996D01*
X18020Y8917D01*
X18091Y8835D01*
X18158Y8752D01*
X18216Y8661D01*
X18276Y8567D01*
X18327Y8472D01*
X18374Y8378D01*
X18413Y8276D01*
X18449Y8173D01*
X18480Y8071D01*
X18508Y7965D01*
X18528Y7858D01*
X18539Y7752D01*
X18547Y7642D01*
X18551Y7535D01*
Y5961D01*
Y4386D01*
X18547Y4279D01*
X18539Y4169D01*
X18528Y4063D01*
X18508Y3957D01*
X18480Y3850D01*
X18449Y3748D01*
X18413Y3646D01*
X18374Y3543D01*
X18327Y3449D01*
X18276Y3354D01*
X18216Y3260D01*
X18158Y3169D01*
X18091Y3087D01*
X18020Y3004D01*
X17945Y2925D01*
X17866Y2850D01*
X17784Y2780D01*
X17701Y2713D01*
X17610Y2654D01*
X17516Y2595D01*
X17421Y2543D01*
X17327Y2496D01*
X17224Y2457D01*
X17122Y2421D01*
X17020Y2390D01*
X16913Y2362D01*
X16807Y2342D01*
X16701Y2331D01*
X16591Y2323D01*
X16484Y2319D01*
X16378Y2323D01*
X16268Y2331D01*
X16161Y2342D01*
X16055Y2362D01*
X15949Y2390D01*
X15846Y2421D01*
X15744Y2457D01*
X15642Y2496D01*
X15547Y2543D01*
X15453Y2595D01*
X15358Y2654D01*
X15268Y2713D01*
X15185Y2780D01*
X15102Y2850D01*
X15024Y2925D01*
X14949Y3004D01*
X14878Y3087D01*
X14811Y3169D01*
X14752Y3260D01*
X14693Y3350D01*
X14642Y3449D01*
X14594Y3543D01*
X14555Y3646D01*
X14520Y3748D01*
X14488Y3850D01*
X14461Y3957D01*
X14441Y4063D01*
X14429Y4169D01*
X14421Y4279D01*
X14417Y4386D01*
Y5961D01*
Y7535D01*
X14421Y7642D01*
X14429Y7752D01*
X14441Y7858D01*
X14461Y7965D01*
X14488Y8071D01*
X14520Y8173D01*
X14555Y8276D01*
X14594Y8378D01*
X14642Y8472D01*
X14693Y8571D01*
X14752Y8661D01*
X14811Y8752D01*
X14878Y8835D01*
X14949Y8917D01*
X15024Y8996D01*
X15102Y9071D01*
X15185Y9142D01*
X15268Y9209D01*
X15358Y9268D01*
X15453Y9327D01*
X15547Y9378D01*
X15642Y9425D01*
X15744Y9465D01*
X15846Y9500D01*
X15949Y9532D01*
X16055Y9559D01*
X16161Y9579D01*
X16268Y9591D01*
X16378Y9598D01*
X16484Y9602D01*
X16591Y9598D01*
D02*
G37*
G36*
X44740D02*
X44850Y9591D01*
X44957Y9579D01*
X45063Y9559D01*
X45169Y9532D01*
X45272Y9500D01*
X45374Y9465D01*
X45476Y9425D01*
X45571Y9378D01*
X45665Y9327D01*
X45760Y9268D01*
X45850Y9209D01*
X45933Y9142D01*
X46016Y9071D01*
X46095Y8996D01*
X46169Y8917D01*
X46240Y8835D01*
X46307Y8752D01*
X46366Y8661D01*
X46425Y8571D01*
X46476Y8472D01*
X46524Y8378D01*
X46563Y8276D01*
X46598Y8173D01*
X46630Y8071D01*
X46657Y7965D01*
X46677Y7858D01*
X46689Y7752D01*
X46697Y7642D01*
X46701Y7535D01*
Y5961D01*
Y4386D01*
X46697Y4279D01*
X46689Y4169D01*
X46677Y4063D01*
X46657Y3957D01*
X46630Y3850D01*
X46598Y3748D01*
X46563Y3646D01*
X46524Y3543D01*
X46476Y3449D01*
X46425Y3350D01*
X46366Y3260D01*
X46307Y3169D01*
X46240Y3087D01*
X46169Y3004D01*
X46095Y2925D01*
X46016Y2850D01*
X45933Y2780D01*
X45850Y2713D01*
X45760Y2654D01*
X45665Y2595D01*
X45571Y2543D01*
X45476Y2496D01*
X45374Y2457D01*
X45272Y2421D01*
X45169Y2390D01*
X45063Y2362D01*
X44957Y2342D01*
X44850Y2331D01*
X44740Y2323D01*
X44634Y2319D01*
X44528Y2323D01*
X44417Y2331D01*
X44311Y2342D01*
X44205Y2362D01*
X44098Y2390D01*
X43996Y2421D01*
X43894Y2457D01*
X43791Y2496D01*
X43697Y2543D01*
X43602Y2595D01*
X43508Y2654D01*
X43417Y2713D01*
X43335Y2780D01*
X43252Y2850D01*
X43173Y2925D01*
X43098Y3004D01*
X43028Y3087D01*
X42961Y3169D01*
X42902Y3260D01*
X42843Y3354D01*
X42791Y3449D01*
X42744Y3543D01*
X42705Y3646D01*
X42669Y3748D01*
X42638Y3850D01*
X42610Y3957D01*
X42591Y4063D01*
X42579Y4169D01*
X42571Y4279D01*
X42567Y4386D01*
Y5961D01*
Y7535D01*
X42571Y7642D01*
X42579Y7752D01*
X42591Y7858D01*
X42610Y7965D01*
X42638Y8071D01*
X42669Y8173D01*
X42705Y8276D01*
X42744Y8378D01*
X42791Y8472D01*
X42843Y8567D01*
X42902Y8661D01*
X42961Y8752D01*
X43028Y8835D01*
X43098Y8917D01*
X43173Y8996D01*
X43252Y9071D01*
X43335Y9142D01*
X43417Y9209D01*
X43508Y9268D01*
X43602Y9327D01*
X43697Y9378D01*
X43791Y9425D01*
X43894Y9465D01*
X43996Y9500D01*
X44098Y9532D01*
X44205Y9559D01*
X44311Y9579D01*
X44417Y9591D01*
X44528Y9598D01*
X44634Y9602D01*
X44740Y9598D01*
D02*
G37*
%LPC*%
G36*
X16532Y8421D02*
X16437D01*
X16390Y8417D01*
X16346Y8409D01*
X16299Y8402D01*
X16256Y8390D01*
X16209Y8378D01*
X16165Y8362D01*
X16122Y8347D01*
X16083Y8323D01*
X16039Y8303D01*
X16000Y8280D01*
X15965Y8252D01*
X15925Y8224D01*
X15890Y8193D01*
X15858Y8161D01*
X15827Y8130D01*
X15795Y8095D01*
X15768Y8055D01*
X15740Y8020D01*
X15717Y7980D01*
X15697Y7937D01*
X15673Y7898D01*
X15657Y7854D01*
X15642Y7811D01*
X15630Y7764D01*
X15618Y7721D01*
X15610Y7673D01*
X15602Y7630D01*
X15598Y7583D01*
Y7535D01*
Y5961D01*
Y4386D01*
Y4339D01*
X15602Y4291D01*
X15610Y4248D01*
X15618Y4201D01*
X15630Y4157D01*
X15642Y4110D01*
X15657Y4067D01*
X15673Y4024D01*
X15697Y3984D01*
X15717Y3941D01*
X15740Y3902D01*
X15768Y3866D01*
X15795Y3827D01*
X15827Y3791D01*
X15858Y3760D01*
X15890Y3728D01*
X15925Y3697D01*
X15965Y3669D01*
X16000Y3642D01*
X16039Y3618D01*
X16083Y3598D01*
X16122Y3575D01*
X16165Y3559D01*
X16209Y3543D01*
X16256Y3531D01*
X16299Y3520D01*
X16346Y3512D01*
X16390Y3504D01*
X16437Y3500D01*
X16532D01*
X16579Y3504D01*
X16622Y3512D01*
X16669Y3520D01*
X16713Y3531D01*
X16760Y3543D01*
X16803Y3559D01*
X16847Y3575D01*
X16886Y3598D01*
X16925Y3618D01*
X16969Y3642D01*
X17004Y3669D01*
X17043Y3697D01*
X17079Y3728D01*
X17110Y3760D01*
X17142Y3791D01*
X17173Y3827D01*
X17201Y3866D01*
X17228Y3902D01*
X17252Y3945D01*
X17272Y3984D01*
X17295Y4024D01*
X17311Y4067D01*
X17327Y4110D01*
X17339Y4157D01*
X17350Y4201D01*
X17358Y4248D01*
X17366Y4291D01*
X17370Y4339D01*
Y4386D01*
Y5961D01*
Y7535D01*
Y7583D01*
X17366Y7630D01*
X17358Y7673D01*
X17350Y7721D01*
X17339Y7764D01*
X17327Y7811D01*
X17311Y7854D01*
X17295Y7898D01*
X17272Y7937D01*
X17252Y7976D01*
X17228Y8020D01*
X17201Y8055D01*
X17173Y8095D01*
X17142Y8130D01*
X17110Y8161D01*
X17079Y8193D01*
X17043Y8224D01*
X17004Y8252D01*
X16969Y8280D01*
X16925Y8303D01*
X16886Y8323D01*
X16847Y8347D01*
X16803Y8362D01*
X16760Y8378D01*
X16713Y8390D01*
X16669Y8402D01*
X16622Y8409D01*
X16579Y8417D01*
X16532Y8421D01*
D02*
G37*
G36*
X44681D02*
X44587D01*
X44539Y8417D01*
X44496Y8409D01*
X44449Y8402D01*
X44405Y8390D01*
X44358Y8378D01*
X44315Y8362D01*
X44272Y8347D01*
X44232Y8323D01*
X44193Y8303D01*
X44150Y8280D01*
X44114Y8252D01*
X44075Y8224D01*
X44039Y8193D01*
X44008Y8161D01*
X43976Y8130D01*
X43945Y8095D01*
X43917Y8055D01*
X43890Y8020D01*
X43866Y7976D01*
X43846Y7937D01*
X43823Y7898D01*
X43807Y7854D01*
X43791Y7811D01*
X43780Y7764D01*
X43768Y7721D01*
X43760Y7673D01*
X43752Y7630D01*
X43748Y7583D01*
Y7535D01*
Y5961D01*
Y4386D01*
Y4339D01*
X43752Y4291D01*
X43760Y4248D01*
X43768Y4201D01*
X43780Y4157D01*
X43791Y4110D01*
X43807Y4067D01*
X43823Y4024D01*
X43846Y3984D01*
X43866Y3945D01*
X43890Y3902D01*
X43917Y3866D01*
X43945Y3827D01*
X43976Y3791D01*
X44008Y3760D01*
X44039Y3728D01*
X44075Y3697D01*
X44114Y3669D01*
X44150Y3642D01*
X44193Y3618D01*
X44232Y3598D01*
X44272Y3575D01*
X44315Y3559D01*
X44358Y3543D01*
X44405Y3531D01*
X44449Y3520D01*
X44496Y3512D01*
X44539Y3504D01*
X44587Y3500D01*
X44681D01*
X44728Y3504D01*
X44772Y3512D01*
X44819Y3520D01*
X44862Y3531D01*
X44909Y3543D01*
X44953Y3559D01*
X44996Y3575D01*
X45035Y3598D01*
X45079Y3618D01*
X45118Y3642D01*
X45154Y3669D01*
X45193Y3697D01*
X45228Y3728D01*
X45260Y3760D01*
X45291Y3791D01*
X45323Y3827D01*
X45350Y3866D01*
X45378Y3902D01*
X45402Y3941D01*
X45421Y3984D01*
X45445Y4024D01*
X45461Y4067D01*
X45476Y4110D01*
X45488Y4157D01*
X45500Y4201D01*
X45508Y4248D01*
X45516Y4291D01*
X45520Y4339D01*
Y4386D01*
Y5961D01*
Y7535D01*
Y7583D01*
X45516Y7630D01*
X45508Y7673D01*
X45500Y7721D01*
X45488Y7764D01*
X45476Y7811D01*
X45461Y7854D01*
X45445Y7898D01*
X45421Y7937D01*
X45402Y7980D01*
X45378Y8020D01*
X45350Y8055D01*
X45323Y8095D01*
X45291Y8130D01*
X45260Y8161D01*
X45228Y8193D01*
X45193Y8224D01*
X45154Y8252D01*
X45118Y8280D01*
X45079Y8303D01*
X45035Y8323D01*
X44996Y8347D01*
X44953Y8362D01*
X44909Y8378D01*
X44862Y8390D01*
X44819Y8402D01*
X44772Y8409D01*
X44728Y8417D01*
X44681Y8421D01*
D02*
G37*
%LPD*%
D15*
X192500Y43000D02*
D03*
X177933D02*
D03*
X49555Y173500D02*
D03*
X34988D02*
D03*
X49555Y254500D02*
D03*
X34988D02*
D03*
D16*
X155000Y53500D02*
D03*
X148858D02*
D03*
X209500D02*
D03*
X203358D02*
D03*
X227429Y70000D02*
D03*
X233571D02*
D03*
X234071Y98000D02*
D03*
X227929D02*
D03*
X234071Y87000D02*
D03*
X227929D02*
D03*
Y109000D02*
D03*
X234071D02*
D03*
X145571Y166000D02*
D03*
X139429D02*
D03*
X145571Y141000D02*
D03*
X139429D02*
D03*
D17*
X109000Y229000D02*
D03*
Y222701D02*
D03*
Y42201D02*
D03*
Y48500D02*
D03*
D18*
X27900Y43800D02*
D03*
Y51200D02*
D03*
X38100D02*
D03*
Y47500D02*
D03*
Y43800D02*
D03*
D19*
X25441Y16000D02*
D03*
X35677D02*
D03*
D20*
X30559D02*
D03*
D21*
X25835Y5961D02*
D03*
X35283D02*
D03*
D22*
X156972Y126217D02*
D03*
Y118343D02*
D03*
Y110469D02*
D03*
Y102594D02*
D03*
Y94720D02*
D03*
Y86846D02*
D03*
Y78972D02*
D03*
X216028Y71098D02*
D03*
Y86846D02*
D03*
Y94720D02*
D03*
Y102594D02*
D03*
Y110469D02*
D03*
Y118343D02*
D03*
Y126217D02*
D03*
X156972Y71098D02*
D03*
X216028Y78972D02*
D03*
D23*
X206185Y65193D02*
D03*
X182563D02*
D03*
X166815D02*
D03*
X198311D02*
D03*
X190437D02*
D03*
X174689D02*
D03*
D24*
X43957Y74500D02*
D03*
X37500D02*
D03*
X41043Y104500D02*
D03*
X47500D02*
D03*
D25*
X58020Y30000D02*
D03*
X65500D02*
D03*
X66000Y48500D02*
D03*
X58520D02*
D03*
X78000Y195000D02*
D03*
X70520D02*
D03*
D26*
X70118Y8500D02*
D03*
X59882D02*
D03*
D27*
X78295Y234500D02*
D03*
X70815D02*
D03*
D28*
X54673Y204945D02*
D03*
Y214000D02*
D03*
Y223055D02*
D03*
D29*
X29870Y214000D02*
D03*
M02*
