M48
;Layer_Color=9474304
;FILE_FORMAT=2:4
INCH,TZ
;TYPE=PLATED
T1F00S00C0.0118
T2F00S00C0.0354
T3F00S00C0.0390
T4F00S00C0.0394
T5F00S00C0.0402
T6F00S00C0.1181
;TYPE=NON_PLATED
T7F00S00C0.0177
%
T01
X2950Y2400
X4450Y5150
X2150Y6550
X5350Y9850
X5250Y16250
X8700Y12800
X12350Y14450
X14600Y12600
X14827Y12127
X16900Y10400
X16912Y9700
X16400Y9400
X17100Y8100
X19250
X19850Y8150
X20800Y7900
X20250Y4250
X19250Y3250
X18950Y2400
X19550Y2300
X18300Y5800
X16250Y5350
X13000Y9150
X23150Y7700
X23450Y10350
X23250Y14800
X23663
X8350Y19300
X9350Y22450
X10050Y23600
X6250Y21400
X11800Y28950
X5450Y23250
T02
X21550Y1500
X20550
X19550
X18550
X17550
X16550
T03
X9841Y9878
Y11650
X12400
Y9878
Y15228
Y17000
X9841
Y15228
T04
X3166Y29050
X4150
T05
X21252Y26694
X22252
X22200Y28600
X21200
X20200
X19200
X19252Y26694
X20252
X20250Y18696
X19250
X18250
X21250
X12700Y29800
X11700
X10700
X9700
T06
X850Y2800
X23250Y2650
X23300Y31700
X850
T07
X1648Y596
X4463
M30
