G04*
G04 #@! TF.GenerationSoftware,Altium Limited,Altium Designer,23.4.1 (23)*
G04*
G04 Layer_Physical_Order=2*
G04 Layer_Color=16711680*
%FSLAX25Y25*%
%MOIN*%
G70*
G04*
G04 #@! TF.SameCoordinates,3121AE9F-DB6A-48AE-AC32-4FE8ED9D71C7*
G04*
G04*
G04 #@! TF.FilePolarity,Positive*
G04*
G01*
G75*
%ADD13C,0.01000*%
%ADD58C,0.02756*%
%ADD59C,0.01968*%
%ADD60C,0.01181*%
%ADD63C,0.05898*%
%ADD64R,0.05898X0.05898*%
%ADD65C,0.01772*%
%ADD66R,0.06024X0.06024*%
%ADD67C,0.06024*%
%ADD68C,0.06000*%
%ADD69R,0.05906X0.05906*%
%ADD70C,0.05906*%
%ADD71C,0.05937*%
%ADD72C,0.02756*%
G36*
X1000Y328000D02*
X239500D01*
Y320602D01*
X239000Y320450D01*
X238364Y321402D01*
X237402Y322364D01*
X236271Y323120D01*
X235014Y323640D01*
X233680Y323905D01*
X232320D01*
X230986Y323640D01*
X229729Y323120D01*
X228598Y322364D01*
X227636Y321402D01*
X226880Y320271D01*
X226360Y319014D01*
X226095Y317680D01*
Y316320D01*
X226360Y314986D01*
X226880Y313729D01*
X227636Y312598D01*
X228598Y311636D01*
X229729Y310880D01*
X230986Y310360D01*
X232320Y310094D01*
X233680D01*
X235014Y310360D01*
X236271Y310880D01*
X237402Y311636D01*
X238364Y312598D01*
X239000Y313550D01*
X239500Y313398D01*
Y28952D01*
X239000Y28853D01*
X238620Y29771D01*
X237864Y30902D01*
X236902Y31864D01*
X235771Y32620D01*
X234514Y33140D01*
X233180Y33406D01*
X231820D01*
X230486Y33140D01*
X229229Y32620D01*
X228098Y31864D01*
X227136Y30902D01*
X227100Y30848D01*
X226622Y30993D01*
Y50259D01*
X227016Y50653D01*
X227378Y51527D01*
Y52473D01*
X227016Y53347D01*
X226347Y54016D01*
X225473Y54378D01*
X224527D01*
X223653Y54016D01*
X222984Y53347D01*
X222622Y52473D01*
Y51527D01*
X222984Y50653D01*
X223378Y50259D01*
Y17017D01*
X219915Y13553D01*
X219453Y13745D01*
Y14500D01*
X216000D01*
Y11047D01*
X216755D01*
X216947Y10585D01*
X213483Y7122D01*
X175672D01*
X169212Y13581D01*
X169453Y14480D01*
Y15520D01*
X169183Y16526D01*
X168663Y17427D01*
X167927Y18163D01*
X167026Y18683D01*
X166020Y18953D01*
X164980D01*
X163974Y18683D01*
X163073Y18163D01*
X162337Y17427D01*
X161817Y16526D01*
X161547Y15520D01*
Y14480D01*
X161817Y13474D01*
X162337Y12573D01*
X163073Y11837D01*
X163974Y11317D01*
X164980Y11047D01*
X166020D01*
X166919Y11288D01*
X173853Y4353D01*
X174379Y4002D01*
X175000Y3878D01*
X214155D01*
X214775Y4002D01*
X215302Y4353D01*
X226147Y15198D01*
X226498Y15724D01*
X226622Y16345D01*
Y22007D01*
X227100Y22152D01*
X227136Y22098D01*
X228098Y21136D01*
X229229Y20380D01*
X230486Y19860D01*
X231820Y19594D01*
X233180D01*
X234514Y19860D01*
X235771Y20380D01*
X236902Y21136D01*
X237864Y22098D01*
X238620Y23229D01*
X239000Y24147D01*
X239500Y24048D01*
Y2000D01*
X238500Y1000D01*
X45811D01*
X45809Y1010D01*
X45740Y1505D01*
X45842Y1544D01*
X45884Y1571D01*
X45932Y1584D01*
X46027Y1631D01*
X46040Y1642D01*
X46057Y1647D01*
X46151Y1698D01*
X46176Y1719D01*
X46206Y1730D01*
X46300Y1789D01*
X46308Y1796D01*
X46317Y1799D01*
X46407Y1859D01*
X46445Y1896D01*
X46492Y1920D01*
X46575Y1987D01*
X46584Y1998D01*
X46597Y2005D01*
X46679Y2076D01*
X46696Y2097D01*
X46718Y2111D01*
X46797Y2186D01*
X46812Y2208D01*
X46834Y2223D01*
X46909Y2302D01*
X46923Y2324D01*
X46943Y2340D01*
X47014Y2423D01*
X47021Y2436D01*
X47033Y2445D01*
X47100Y2528D01*
X47124Y2575D01*
X47161Y2612D01*
X47220Y2703D01*
X47220Y2703D01*
X47220Y2703D01*
X47279Y2793D01*
X47298Y2840D01*
X47330Y2880D01*
X47381Y2978D01*
X47383Y2986D01*
X47388Y2993D01*
X47436Y3087D01*
X47449Y3135D01*
X47475Y3177D01*
X47515Y3280D01*
X47518Y3297D01*
X47526Y3312D01*
X47562Y3415D01*
X47564Y3432D01*
X47573Y3448D01*
X47604Y3551D01*
X47607Y3574D01*
X47617Y3594D01*
X47644Y3701D01*
X47646Y3737D01*
X47660Y3771D01*
X47680Y3877D01*
X47679Y3915D01*
X47690Y3950D01*
X47702Y4057D01*
X47701Y4077D01*
X47706Y4097D01*
X47714Y4207D01*
X47712Y4225D01*
X47716Y4242D01*
X47720Y4348D01*
X47717Y4367D01*
X47720Y4386D01*
Y7535D01*
X47717Y7554D01*
X47720Y7573D01*
X47716Y7679D01*
X47712Y7697D01*
X47714Y7714D01*
X47706Y7825D01*
X47701Y7844D01*
X47702Y7865D01*
X47690Y7971D01*
X47679Y8006D01*
X47680Y8044D01*
X47660Y8150D01*
X47646Y8184D01*
X47644Y8220D01*
X47617Y8327D01*
X47607Y8348D01*
X47604Y8371D01*
X47573Y8473D01*
X47564Y8489D01*
X47562Y8507D01*
X47526Y8609D01*
X47518Y8624D01*
X47515Y8642D01*
X47475Y8744D01*
X47449Y8786D01*
X47436Y8834D01*
X47388Y8928D01*
X47383Y8935D01*
X47381Y8943D01*
X47330Y9041D01*
X47298Y9081D01*
X47279Y9128D01*
X47220Y9218D01*
X47220Y9218D01*
X47220Y9218D01*
X47161Y9309D01*
X47124Y9347D01*
X47100Y9393D01*
X47033Y9476D01*
X47021Y9486D01*
X47014Y9498D01*
X46943Y9581D01*
X46923Y9597D01*
X46909Y9620D01*
X46834Y9698D01*
X46812Y9714D01*
X46797Y9735D01*
X46718Y9810D01*
X46696Y9824D01*
X46679Y9845D01*
X46597Y9916D01*
X46584Y9923D01*
X46575Y9934D01*
X46492Y10001D01*
X46445Y10026D01*
X46407Y10063D01*
X46317Y10122D01*
X46308Y10125D01*
X46300Y10132D01*
X46206Y10191D01*
X46176Y10203D01*
X46151Y10223D01*
X46057Y10274D01*
X46040Y10279D01*
X46027Y10290D01*
X45932Y10337D01*
X45884Y10350D01*
X45842Y10377D01*
X45740Y10416D01*
X45723Y10419D01*
X45707Y10428D01*
X45605Y10464D01*
X45587Y10466D01*
X45572Y10475D01*
X45469Y10506D01*
X45446Y10508D01*
X45425Y10519D01*
X45319Y10546D01*
X45283Y10548D01*
X45249Y10562D01*
X45142Y10581D01*
X45105Y10581D01*
X45069Y10592D01*
X44963Y10604D01*
X44943Y10602D01*
X44923Y10608D01*
X44813Y10615D01*
X44795Y10613D01*
X44778Y10617D01*
X44671Y10621D01*
X44634Y10615D01*
X44596Y10621D01*
X44490Y10617D01*
X44473Y10613D01*
X44455Y10615D01*
X44345Y10607D01*
X44325Y10602D01*
X44305Y10604D01*
X44199Y10592D01*
X44163Y10581D01*
X44125Y10581D01*
X44019Y10562D01*
X43985Y10548D01*
X43949Y10546D01*
X43843Y10519D01*
X43822Y10508D01*
X43799Y10506D01*
X43696Y10475D01*
X43680Y10466D01*
X43663Y10464D01*
X43560Y10428D01*
X43545Y10419D01*
X43528Y10416D01*
X43425Y10377D01*
X43383Y10350D01*
X43335Y10337D01*
X43241Y10290D01*
X43227Y10279D01*
X43211Y10274D01*
X43117Y10223D01*
X43092Y10203D01*
X43062Y10191D01*
X42968Y10132D01*
X42960Y10125D01*
X42951Y10122D01*
X42860Y10063D01*
X42823Y10026D01*
X42776Y10001D01*
X42693Y9934D01*
X42684Y9923D01*
X42671Y9916D01*
X42588Y9845D01*
X42572Y9824D01*
X42550Y9810D01*
X42471Y9735D01*
X42456Y9714D01*
X42434Y9698D01*
X42359Y9619D01*
X42345Y9597D01*
X42324Y9581D01*
X42254Y9498D01*
X42246Y9486D01*
X42235Y9476D01*
X42168Y9393D01*
X42143Y9347D01*
X42107Y9309D01*
X42048Y9218D01*
X42044Y9209D01*
X42037Y9202D01*
X41978Y9107D01*
X41967Y9077D01*
X41946Y9053D01*
X41895Y8958D01*
X41890Y8942D01*
X41879Y8928D01*
X41832Y8834D01*
X41819Y8786D01*
X41793Y8744D01*
X41753Y8642D01*
X41750Y8624D01*
X41741Y8609D01*
X41706Y8507D01*
X41703Y8489D01*
X41695Y8473D01*
X41663Y8371D01*
X41661Y8348D01*
X41651Y8327D01*
X41623Y8220D01*
X41621Y8184D01*
X41608Y8150D01*
X41588Y8044D01*
X41589Y8006D01*
X41577Y7971D01*
X41565Y7864D01*
X41567Y7844D01*
X41562Y7825D01*
X41554Y7714D01*
X41556Y7697D01*
X41552Y7679D01*
X41548Y7573D01*
X41551Y7554D01*
X41547Y7535D01*
Y4386D01*
X41551Y4367D01*
X41548Y4348D01*
X41552Y4242D01*
X41556Y4225D01*
X41554Y4207D01*
X41562Y4097D01*
X41567Y4077D01*
X41565Y4057D01*
X41577Y3950D01*
X41589Y3915D01*
X41588Y3877D01*
X41608Y3771D01*
X41621Y3737D01*
X41623Y3701D01*
X41651Y3594D01*
X41661Y3574D01*
X41663Y3551D01*
X41695Y3448D01*
X41703Y3432D01*
X41706Y3415D01*
X41741Y3312D01*
X41750Y3297D01*
X41753Y3280D01*
X41793Y3177D01*
X41819Y3135D01*
X41832Y3087D01*
X41879Y2993D01*
X41890Y2980D01*
X41895Y2963D01*
X41946Y2869D01*
X41967Y2844D01*
X41978Y2814D01*
X42037Y2719D01*
X42044Y2712D01*
X42048Y2703D01*
X42107Y2612D01*
X42144Y2575D01*
X42168Y2528D01*
X42235Y2445D01*
X42246Y2436D01*
X42254Y2423D01*
X42324Y2340D01*
X42345Y2324D01*
X42359Y2302D01*
X42434Y2223D01*
X42456Y2208D01*
X42471Y2186D01*
X42550Y2111D01*
X42572Y2097D01*
X42588Y2076D01*
X42671Y2005D01*
X42684Y1998D01*
X42693Y1987D01*
X42776Y1920D01*
X42823Y1895D01*
X42860Y1859D01*
X42951Y1799D01*
X42960Y1796D01*
X42968Y1789D01*
X43062Y1730D01*
X43092Y1719D01*
X43117Y1698D01*
X43211Y1647D01*
X43227Y1642D01*
X43241Y1631D01*
X43335Y1584D01*
X43383Y1571D01*
X43425Y1544D01*
X43528Y1505D01*
X43458Y1010D01*
X43456Y1000D01*
X17662D01*
X17660Y1010D01*
X17590Y1505D01*
X17693Y1544D01*
X17735Y1571D01*
X17783Y1584D01*
X17877Y1631D01*
X17891Y1642D01*
X17907Y1647D01*
X18001Y1698D01*
X18026Y1719D01*
X18056Y1730D01*
X18151Y1789D01*
X18158Y1796D01*
X18167Y1799D01*
X18258Y1859D01*
X18296Y1896D01*
X18342Y1920D01*
X18425Y1987D01*
X18434Y1998D01*
X18447Y2005D01*
X18530Y2076D01*
X18546Y2097D01*
X18568Y2111D01*
X18647Y2186D01*
X18663Y2208D01*
X18684Y2223D01*
X18759Y2302D01*
X18773Y2324D01*
X18794Y2340D01*
X18865Y2423D01*
X18872Y2436D01*
X18883Y2445D01*
X18950Y2528D01*
X18975Y2575D01*
X19012Y2612D01*
X19071Y2703D01*
X19074Y2712D01*
X19081Y2719D01*
X19140Y2814D01*
X19152Y2844D01*
X19172Y2869D01*
X19223Y2963D01*
X19228Y2980D01*
X19239Y2993D01*
X19286Y3087D01*
X19299Y3135D01*
X19326Y3177D01*
X19365Y3280D01*
X19368Y3297D01*
X19377Y3312D01*
X19412Y3415D01*
X19415Y3432D01*
X19423Y3448D01*
X19455Y3551D01*
X19457Y3574D01*
X19467Y3594D01*
X19495Y3701D01*
X19497Y3737D01*
X19510Y3771D01*
X19530Y3877D01*
X19530Y3915D01*
X19541Y3950D01*
X19553Y4057D01*
X19551Y4077D01*
X19556Y4097D01*
X19564Y4207D01*
X19562Y4225D01*
X19566Y4242D01*
X19570Y4348D01*
X19567Y4367D01*
X19571Y4386D01*
Y7535D01*
X19567Y7554D01*
X19570Y7573D01*
X19566Y7679D01*
X19562Y7697D01*
X19564Y7714D01*
X19556Y7825D01*
X19551Y7844D01*
X19553Y7865D01*
X19541Y7971D01*
X19530Y8006D01*
X19530Y8044D01*
X19510Y8150D01*
X19497Y8184D01*
X19495Y8220D01*
X19467Y8327D01*
X19457Y8348D01*
X19455Y8371D01*
X19423Y8473D01*
X19415Y8489D01*
X19412Y8507D01*
X19377Y8609D01*
X19368Y8624D01*
X19365Y8642D01*
X19326Y8744D01*
X19299Y8786D01*
X19286Y8834D01*
X19239Y8928D01*
X19228Y8942D01*
X19223Y8958D01*
X19172Y9053D01*
X19152Y9077D01*
X19140Y9107D01*
X19081Y9202D01*
X19074Y9209D01*
X19071Y9218D01*
X19012Y9309D01*
X18975Y9347D01*
X18950Y9393D01*
X18883Y9476D01*
X18872Y9486D01*
X18865Y9498D01*
X18794Y9581D01*
X18773Y9597D01*
X18759Y9619D01*
X18684Y9698D01*
X18663Y9714D01*
X18647Y9735D01*
X18568Y9810D01*
X18546Y9824D01*
X18530Y9845D01*
X18447Y9916D01*
X18434Y9923D01*
X18425Y9934D01*
X18342Y10001D01*
X18296Y10026D01*
X18258Y10063D01*
X18167Y10122D01*
X18158Y10125D01*
X18151Y10132D01*
X18056Y10191D01*
X18026Y10203D01*
X18001Y10223D01*
X17907Y10274D01*
X17891Y10279D01*
X17877Y10290D01*
X17783Y10337D01*
X17735Y10350D01*
X17693Y10377D01*
X17590Y10416D01*
X17573Y10419D01*
X17558Y10428D01*
X17456Y10464D01*
X17438Y10466D01*
X17422Y10475D01*
X17320Y10506D01*
X17297Y10508D01*
X17276Y10519D01*
X17169Y10546D01*
X17133Y10548D01*
X17099Y10562D01*
X16993Y10581D01*
X16955Y10581D01*
X16920Y10592D01*
X16813Y10604D01*
X16793Y10602D01*
X16773Y10607D01*
X16663Y10615D01*
X16646Y10613D01*
X16628Y10617D01*
X16522Y10621D01*
X16484Y10615D01*
X16447Y10621D01*
X16340Y10617D01*
X16323Y10613D01*
X16305Y10615D01*
X16195Y10608D01*
X16175Y10602D01*
X16155Y10604D01*
X16049Y10592D01*
X16013Y10581D01*
X15976Y10581D01*
X15869Y10562D01*
X15836Y10548D01*
X15799Y10546D01*
X15693Y10519D01*
X15672Y10508D01*
X15649Y10506D01*
X15547Y10475D01*
X15531Y10466D01*
X15513Y10464D01*
X15411Y10428D01*
X15395Y10419D01*
X15378Y10416D01*
X15276Y10377D01*
X15234Y10350D01*
X15186Y10337D01*
X15091Y10290D01*
X15078Y10279D01*
X15062Y10274D01*
X14967Y10223D01*
X14942Y10203D01*
X14912Y10191D01*
X14818Y10132D01*
X14811Y10125D01*
X14801Y10122D01*
X14711Y10063D01*
X14673Y10026D01*
X14626Y10001D01*
X14544Y9934D01*
X14534Y9923D01*
X14522Y9916D01*
X14439Y9845D01*
X14423Y9824D01*
X14400Y9810D01*
X14321Y9735D01*
X14306Y9714D01*
X14285Y9698D01*
X14210Y9620D01*
X14196Y9597D01*
X14175Y9581D01*
X14104Y9498D01*
X14097Y9486D01*
X14085Y9476D01*
X14018Y9393D01*
X13994Y9347D01*
X13957Y9309D01*
X13898Y9218D01*
X13898Y9218D01*
X13898Y9218D01*
X13839Y9128D01*
X13820Y9081D01*
X13788Y9041D01*
X13737Y8943D01*
X13735Y8935D01*
X13730Y8929D01*
X13683Y8834D01*
X13669Y8786D01*
X13643Y8744D01*
X13603Y8642D01*
X13600Y8624D01*
X13592Y8609D01*
X13556Y8507D01*
X13554Y8489D01*
X13545Y8473D01*
X13514Y8371D01*
X13511Y8348D01*
X13501Y8327D01*
X13474Y8220D01*
X13472Y8184D01*
X13458Y8150D01*
X13438Y8044D01*
X13439Y8006D01*
X13428Y7971D01*
X13416Y7864D01*
X13418Y7844D01*
X13412Y7825D01*
X13404Y7714D01*
X13407Y7697D01*
X13402Y7679D01*
X13398Y7573D01*
X13401Y7554D01*
X13398Y7535D01*
Y4386D01*
X13401Y4367D01*
X13398Y4348D01*
X13402Y4242D01*
X13407Y4225D01*
X13404Y4207D01*
X13412Y4097D01*
X13418Y4077D01*
X13416Y4057D01*
X13428Y3950D01*
X13439Y3915D01*
X13438Y3877D01*
X13458Y3771D01*
X13472Y3737D01*
X13474Y3701D01*
X13501Y3594D01*
X13511Y3574D01*
X13514Y3551D01*
X13545Y3448D01*
X13554Y3432D01*
X13556Y3415D01*
X13592Y3312D01*
X13600Y3297D01*
X13603Y3280D01*
X13643Y3177D01*
X13669Y3135D01*
X13683Y3087D01*
X13730Y2993D01*
X13735Y2986D01*
X13737Y2978D01*
X13788Y2880D01*
X13820Y2840D01*
X13839Y2793D01*
X13898Y2703D01*
X13898Y2703D01*
X13898Y2703D01*
X13957Y2612D01*
X13994Y2575D01*
X14019Y2528D01*
X14085Y2445D01*
X14097Y2436D01*
X14104Y2423D01*
X14175Y2340D01*
X14196Y2324D01*
X14210Y2302D01*
X14285Y2223D01*
X14306Y2208D01*
X14321Y2186D01*
X14400Y2111D01*
X14423Y2097D01*
X14439Y2076D01*
X14522Y2005D01*
X14534Y1998D01*
X14544Y1987D01*
X14626Y1920D01*
X14673Y1895D01*
X14711Y1859D01*
X14801Y1799D01*
X14811Y1796D01*
X14818Y1789D01*
X14912Y1730D01*
X14942Y1719D01*
X14967Y1698D01*
X15062Y1647D01*
X15078Y1642D01*
X15091Y1631D01*
X15186Y1584D01*
X15234Y1571D01*
X15276Y1544D01*
X15378Y1505D01*
X15309Y1010D01*
X15307Y1000D01*
X354D01*
X0Y1354D01*
X499Y327848D01*
X961Y328039D01*
X1000Y328000D01*
D02*
G37*
G36*
X44740Y9598D02*
X44850Y9591D01*
X44957Y9579D01*
X45063Y9559D01*
X45169Y9532D01*
X45272Y9500D01*
X45374Y9465D01*
X45476Y9425D01*
X45571Y9378D01*
X45665Y9327D01*
X45760Y9268D01*
X45850Y9209D01*
X45933Y9142D01*
X46016Y9071D01*
X46095Y8996D01*
X46169Y8917D01*
X46240Y8835D01*
X46307Y8752D01*
X46366Y8661D01*
X46425Y8571D01*
X46476Y8472D01*
X46524Y8378D01*
X46563Y8276D01*
X46598Y8173D01*
X46630Y8071D01*
X46657Y7965D01*
X46677Y7858D01*
X46689Y7752D01*
X46697Y7642D01*
X46701Y7535D01*
Y5961D01*
Y4386D01*
X46697Y4279D01*
X46689Y4169D01*
X46677Y4063D01*
X46657Y3957D01*
X46630Y3850D01*
X46598Y3748D01*
X46563Y3646D01*
X46524Y3543D01*
X46476Y3449D01*
X46425Y3350D01*
X46366Y3260D01*
X46307Y3169D01*
X46240Y3087D01*
X46169Y3004D01*
X46095Y2925D01*
X46016Y2850D01*
X45933Y2780D01*
X45850Y2713D01*
X45760Y2654D01*
X45665Y2595D01*
X45571Y2543D01*
X45476Y2496D01*
X45374Y2457D01*
X45272Y2421D01*
X45169Y2390D01*
X45063Y2362D01*
X44957Y2342D01*
X44850Y2331D01*
X44740Y2323D01*
X44634Y2319D01*
X44528Y2323D01*
X44417Y2331D01*
X44311Y2342D01*
X44205Y2362D01*
X44098Y2390D01*
X43996Y2421D01*
X43894Y2457D01*
X43791Y2496D01*
X43697Y2543D01*
X43602Y2595D01*
X43508Y2654D01*
X43417Y2713D01*
X43335Y2780D01*
X43252Y2850D01*
X43173Y2925D01*
X43098Y3004D01*
X43028Y3087D01*
X42961Y3169D01*
X42902Y3260D01*
X42843Y3354D01*
X42791Y3449D01*
X42744Y3543D01*
X42705Y3646D01*
X42669Y3748D01*
X42638Y3850D01*
X42610Y3957D01*
X42591Y4063D01*
X42579Y4169D01*
X42571Y4279D01*
X42567Y4386D01*
Y5961D01*
Y7535D01*
X42571Y7642D01*
X42579Y7752D01*
X42591Y7858D01*
X42610Y7965D01*
X42638Y8071D01*
X42669Y8173D01*
X42705Y8276D01*
X42744Y8378D01*
X42791Y8472D01*
X42843Y8567D01*
X42902Y8661D01*
X42961Y8752D01*
X43028Y8835D01*
X43098Y8917D01*
X43173Y8996D01*
X43252Y9071D01*
X43335Y9142D01*
X43417Y9209D01*
X43508Y9268D01*
X43602Y9327D01*
X43697Y9378D01*
X43791Y9425D01*
X43894Y9465D01*
X43996Y9500D01*
X44098Y9532D01*
X44205Y9559D01*
X44311Y9579D01*
X44417Y9591D01*
X44528Y9598D01*
X44634Y9602D01*
X44740Y9598D01*
D02*
G37*
G36*
X16591D02*
X16701Y9591D01*
X16807Y9579D01*
X16913Y9559D01*
X17020Y9532D01*
X17122Y9500D01*
X17224Y9465D01*
X17327Y9425D01*
X17421Y9378D01*
X17516Y9327D01*
X17610Y9268D01*
X17701Y9209D01*
X17784Y9142D01*
X17866Y9071D01*
X17945Y8996D01*
X18020Y8917D01*
X18091Y8835D01*
X18158Y8752D01*
X18216Y8661D01*
X18276Y8567D01*
X18327Y8472D01*
X18374Y8378D01*
X18413Y8276D01*
X18449Y8173D01*
X18480Y8071D01*
X18508Y7965D01*
X18528Y7858D01*
X18539Y7752D01*
X18547Y7642D01*
X18551Y7535D01*
Y5961D01*
Y4386D01*
X18547Y4279D01*
X18539Y4169D01*
X18528Y4063D01*
X18508Y3957D01*
X18480Y3850D01*
X18449Y3748D01*
X18413Y3646D01*
X18374Y3543D01*
X18327Y3449D01*
X18276Y3354D01*
X18216Y3260D01*
X18158Y3169D01*
X18091Y3087D01*
X18020Y3004D01*
X17945Y2925D01*
X17866Y2850D01*
X17784Y2780D01*
X17701Y2713D01*
X17610Y2654D01*
X17516Y2595D01*
X17421Y2543D01*
X17327Y2496D01*
X17224Y2457D01*
X17122Y2421D01*
X17020Y2390D01*
X16913Y2362D01*
X16807Y2342D01*
X16701Y2331D01*
X16591Y2323D01*
X16484Y2319D01*
X16378Y2323D01*
X16268Y2331D01*
X16161Y2342D01*
X16055Y2362D01*
X15949Y2390D01*
X15846Y2421D01*
X15744Y2457D01*
X15642Y2496D01*
X15547Y2543D01*
X15453Y2595D01*
X15358Y2654D01*
X15268Y2713D01*
X15185Y2780D01*
X15102Y2850D01*
X15024Y2925D01*
X14949Y3004D01*
X14878Y3087D01*
X14811Y3169D01*
X14752Y3260D01*
X14693Y3350D01*
X14642Y3449D01*
X14594Y3543D01*
X14555Y3646D01*
X14520Y3748D01*
X14488Y3850D01*
X14461Y3957D01*
X14441Y4063D01*
X14429Y4169D01*
X14421Y4279D01*
X14417Y4386D01*
Y5961D01*
Y7535D01*
X14421Y7642D01*
X14429Y7752D01*
X14441Y7858D01*
X14461Y7965D01*
X14488Y8071D01*
X14520Y8173D01*
X14555Y8276D01*
X14594Y8378D01*
X14642Y8472D01*
X14693Y8571D01*
X14752Y8661D01*
X14811Y8752D01*
X14878Y8835D01*
X14949Y8917D01*
X15024Y8996D01*
X15102Y9071D01*
X15185Y9142D01*
X15268Y9209D01*
X15358Y9268D01*
X15453Y9327D01*
X15547Y9378D01*
X15642Y9425D01*
X15744Y9465D01*
X15846Y9500D01*
X15949Y9532D01*
X16055Y9559D01*
X16161Y9579D01*
X16268Y9591D01*
X16378Y9598D01*
X16484Y9602D01*
X16591Y9598D01*
D02*
G37*
%LPC*%
G36*
X9180Y323905D02*
X7820D01*
X6486Y323640D01*
X5229Y323120D01*
X4098Y322364D01*
X3136Y321402D01*
X2380Y320271D01*
X1860Y319014D01*
X1595Y317680D01*
Y316320D01*
X1860Y314986D01*
X2380Y313729D01*
X3136Y312598D01*
X4098Y311636D01*
X5229Y310880D01*
X6486Y310360D01*
X7820Y310094D01*
X9180D01*
X10514Y310360D01*
X11771Y310880D01*
X12902Y311636D01*
X13864Y312598D01*
X14620Y313729D01*
X15140Y314986D01*
X15405Y316320D01*
Y317680D01*
X15140Y319014D01*
X14620Y320271D01*
X13864Y321402D01*
X12902Y322364D01*
X11771Y323120D01*
X10514Y323640D01*
X9180Y323905D01*
D02*
G37*
G36*
X104473Y307378D02*
X103527D01*
X102670Y307023D01*
X96934D01*
X96160Y306869D01*
X95504Y306431D01*
X90573Y301500D01*
X90135Y300844D01*
X89981Y300069D01*
Y289741D01*
X90135Y288967D01*
X90573Y288311D01*
X112011Y266874D01*
X111419Y266282D01*
X111057Y265408D01*
Y264851D01*
X62585Y216378D01*
X62027D01*
X61153Y216016D01*
X60484Y215347D01*
X60122Y214473D01*
Y213527D01*
X60484Y212653D01*
X61153Y211984D01*
X62027Y211622D01*
X62973D01*
X63847Y211984D01*
X64516Y212653D01*
X64878Y213527D01*
Y214085D01*
X113350Y262557D01*
X113908D01*
X114782Y262919D01*
X115451Y263588D01*
X115682Y264145D01*
X116272Y264263D01*
X117528Y263006D01*
Y177564D01*
X114668Y174704D01*
X114229Y174047D01*
X114075Y173273D01*
Y166727D01*
X114229Y165953D01*
X114668Y165296D01*
X123271Y156694D01*
X123121Y156136D01*
X122476Y155963D01*
X121575Y155443D01*
X120840Y154708D01*
X120320Y153808D01*
X120051Y152803D01*
Y151763D01*
X120320Y150759D01*
X120840Y149859D01*
X121575Y149124D01*
X122476Y148604D01*
X123480Y148335D01*
X124130D01*
X124548Y147880D01*
X124549Y147865D01*
Y146248D01*
X124703Y145474D01*
X125141Y144818D01*
X134063Y135897D01*
Y103000D01*
X134217Y102226D01*
X134655Y101569D01*
X135312Y101131D01*
X135644Y101065D01*
X138858Y97851D01*
X138761Y97360D01*
X138311Y97174D01*
X137642Y96505D01*
X137280Y95631D01*
Y94685D01*
X137635Y93828D01*
Y89087D01*
X137788Y88313D01*
X138227Y87657D01*
X142677Y83207D01*
X143333Y82769D01*
X144107Y82615D01*
X146893D01*
X147667Y82769D01*
X148323Y83207D01*
X150293Y85177D01*
X150731Y85833D01*
X150885Y86607D01*
Y96383D01*
X150731Y97157D01*
X150293Y97813D01*
X143299Y104807D01*
X143397Y105298D01*
X143847Y105484D01*
X144516Y106153D01*
X144878Y107027D01*
Y107973D01*
X144516Y108847D01*
X144029Y109334D01*
Y120233D01*
X143913Y120818D01*
X143581Y121315D01*
X143068Y121828D01*
Y132819D01*
X145719Y135471D01*
X147167D01*
X147653Y134984D01*
X148527Y134622D01*
X149473D01*
X150347Y134984D01*
X151016Y135653D01*
X151378Y136527D01*
Y137473D01*
X151016Y138347D01*
X150347Y139016D01*
X149473Y139378D01*
X148527D01*
X147653Y139016D01*
X147167Y138529D01*
X145086D01*
X144501Y138413D01*
X144004Y138081D01*
X141539Y135616D01*
X141077Y135808D01*
Y148404D01*
X140923Y149178D01*
X140485Y149834D01*
X128703Y161616D01*
X128047Y162054D01*
X127777Y162108D01*
X124295Y165589D01*
X124487Y166051D01*
X124520D01*
X125524Y166320D01*
X126425Y166840D01*
X127160Y167575D01*
X127680Y168476D01*
X127949Y169480D01*
Y169500D01*
X124000D01*
Y170500D01*
X127949D01*
Y170520D01*
X127680Y171524D01*
X127160Y172425D01*
X126425Y173160D01*
X125524Y173680D01*
X124520Y173949D01*
X124474D01*
X124206Y174449D01*
X124389Y174722D01*
X124543Y175496D01*
Y192531D01*
X124959Y192809D01*
X125409Y192622D01*
X126355D01*
X126469Y192669D01*
X164761Y154378D01*
X164554Y153878D01*
X164027D01*
X163153Y153516D01*
X162484Y152847D01*
X162133Y152000D01*
X164500D01*
Y151000D01*
X161806D01*
X158937Y148131D01*
Y145500D01*
X158437D01*
Y145000D01*
X156070D01*
X156265Y144529D01*
X155931Y144029D01*
X154333D01*
X153847Y144516D01*
X152973Y144878D01*
X152027D01*
X151153Y144516D01*
X150484Y143847D01*
X150122Y142973D01*
Y142027D01*
X150484Y141153D01*
X151153Y140484D01*
X152027Y140122D01*
X152973D01*
X153847Y140484D01*
X154333Y140971D01*
X164186D01*
X165027Y140622D01*
X165973D01*
X166477Y140831D01*
X166977Y140497D01*
Y113302D01*
X167131Y112528D01*
X167569Y111871D01*
X193371Y86069D01*
X194028Y85631D01*
X194802Y85477D01*
X204170D01*
X205027Y85122D01*
X205973D01*
X206847Y85484D01*
X207516Y86153D01*
X207878Y87027D01*
Y87973D01*
X207516Y88847D01*
X206847Y89516D01*
X205973Y89878D01*
X205027D01*
X204170Y89523D01*
X195640D01*
X176538Y108625D01*
X176682Y109188D01*
X177312Y109449D01*
X177584Y109721D01*
X185956D01*
X185984Y109653D01*
X186653Y108984D01*
X187527Y108622D01*
X188473D01*
X189347Y108984D01*
X190016Y109653D01*
X190378Y110527D01*
Y111473D01*
X190016Y112347D01*
X189347Y113016D01*
X188473Y113378D01*
X187527D01*
X186653Y113016D01*
X186416Y112779D01*
X177994D01*
X177981Y112812D01*
X177312Y113481D01*
X176438Y113843D01*
X175492D01*
X174618Y113481D01*
X173949Y112812D01*
X173688Y112182D01*
X173125Y112038D01*
X171023Y114140D01*
Y153000D01*
X170869Y153774D01*
X170431Y154431D01*
X128581Y196280D01*
X127925Y196719D01*
X127427Y196817D01*
X127229Y197016D01*
X126355Y197378D01*
X125409D01*
X124959Y197191D01*
X124543Y197469D01*
Y265074D01*
X124389Y265848D01*
X123950Y266504D01*
X119117Y271338D01*
X118461Y271776D01*
X118395Y271789D01*
X99377Y290807D01*
X98721Y291246D01*
X98558Y291278D01*
X98535Y291301D01*
X98516Y291347D01*
X97847Y292016D01*
X96973Y292378D01*
X96027D01*
X95153Y292016D01*
X94527Y291390D01*
X94327Y291414D01*
X94027Y291543D01*
Y294646D01*
X94489Y294837D01*
X94537Y294790D01*
X95451Y294262D01*
X96472Y293988D01*
X97528D01*
X98549Y294262D01*
X99463Y294790D01*
X100210Y295537D01*
X100738Y296451D01*
X101012Y297472D01*
Y298528D01*
X100738Y299549D01*
X100210Y300463D01*
X99463Y301210D01*
X98549Y301738D01*
X97528Y302012D01*
X97461D01*
X97269Y302474D01*
X97773Y302977D01*
X102670D01*
X103527Y302622D01*
X104473D01*
X105347Y302984D01*
X106016Y303653D01*
X106378Y304527D01*
Y305473D01*
X106016Y306347D01*
X105347Y307016D01*
X104473Y307378D01*
D02*
G37*
G36*
X131012Y302012D02*
X127500D01*
Y298500D01*
X131012D01*
Y302012D01*
D02*
G37*
G36*
X126500D02*
X122988D01*
Y298500D01*
X126500D01*
Y302012D01*
D02*
G37*
G36*
X131012Y297500D02*
X127500D01*
Y293988D01*
X131012D01*
Y297500D01*
D02*
G37*
G36*
X126500D02*
X122988D01*
Y293988D01*
X126500D01*
Y297500D01*
D02*
G37*
G36*
X117528Y302012D02*
X116472D01*
X115452Y301738D01*
X114537Y301210D01*
X113790Y300463D01*
X113262Y299549D01*
X112988Y298528D01*
Y297472D01*
X113262Y296451D01*
X113790Y295537D01*
X114537Y294790D01*
X115452Y294262D01*
X116472Y293988D01*
X117528D01*
X118549Y294262D01*
X119463Y294790D01*
X120210Y295537D01*
X120738Y296451D01*
X121012Y297472D01*
Y298528D01*
X120738Y299549D01*
X120210Y300463D01*
X119463Y301210D01*
X118549Y301738D01*
X117528Y302012D01*
D02*
G37*
G36*
X107528D02*
X106472D01*
X105452Y301738D01*
X104537Y301210D01*
X103790Y300463D01*
X103262Y299549D01*
X102988Y298528D01*
Y297472D01*
X103262Y296451D01*
X103790Y295537D01*
X104537Y294790D01*
X105452Y294262D01*
X106472Y293988D01*
X107528D01*
X108548Y294262D01*
X109463Y294790D01*
X110210Y295537D01*
X110738Y296451D01*
X111012Y297472D01*
Y298528D01*
X110738Y299549D01*
X110210Y300463D01*
X109463Y301210D01*
X108548Y301738D01*
X107528Y302012D01*
D02*
G37*
G36*
X32180Y294468D02*
X32157D01*
Y291000D01*
X35626D01*
Y291022D01*
X35355Y292032D01*
X34833Y292937D01*
X34094Y293676D01*
X33189Y294198D01*
X32180Y294468D01*
D02*
G37*
G36*
X31157D02*
X31135D01*
X30126Y294198D01*
X29221Y293676D01*
X28482Y292937D01*
X27959Y292032D01*
X27689Y291022D01*
Y291000D01*
X31157D01*
Y294468D01*
D02*
G37*
G36*
X42022D02*
X40977D01*
X39968Y294198D01*
X39063Y293676D01*
X38324Y292937D01*
X37802Y292032D01*
X37532Y291022D01*
Y289978D01*
X37802Y288968D01*
X38324Y288063D01*
X39063Y287324D01*
X39968Y286802D01*
X40977Y286531D01*
X42022D01*
X43032Y286802D01*
X43937Y287324D01*
X44676Y288063D01*
X45198Y288968D01*
X45469Y289978D01*
Y291022D01*
X45198Y292032D01*
X44676Y292937D01*
X43937Y293676D01*
X43032Y294198D01*
X42022Y294468D01*
D02*
G37*
G36*
X35626Y290000D02*
X32157D01*
Y286531D01*
X32180D01*
X33189Y286802D01*
X34094Y287324D01*
X34833Y288063D01*
X35355Y288968D01*
X35626Y289978D01*
Y290000D01*
D02*
G37*
G36*
X31157D02*
X27689D01*
Y289978D01*
X27959Y288968D01*
X28482Y288063D01*
X29221Y287324D01*
X30126Y286802D01*
X31135Y286531D01*
X31157D01*
Y290000D01*
D02*
G37*
G36*
X222528Y290012D02*
X221472D01*
X220451Y289738D01*
X219537Y289210D01*
X218790Y288463D01*
X218262Y287548D01*
X217988Y286528D01*
Y285472D01*
X218262Y284452D01*
X218790Y283537D01*
X219537Y282790D01*
X219833Y282618D01*
Y269936D01*
X219305Y269408D01*
X218777Y268493D01*
X218504Y267473D01*
Y266417D01*
X218777Y265396D01*
X219305Y264481D01*
X220053Y263735D01*
X220967Y263206D01*
X221988Y262933D01*
X223044D01*
X224064Y263206D01*
X224979Y263735D01*
X225726Y264481D01*
X226254Y265396D01*
X226528Y266417D01*
Y267473D01*
X226254Y268493D01*
X225726Y269408D01*
X224979Y270155D01*
X224682Y270326D01*
Y283009D01*
X225210Y283537D01*
X225738Y284452D01*
X226012Y285472D01*
Y286528D01*
X225738Y287548D01*
X225210Y288463D01*
X224463Y289210D01*
X223549Y289738D01*
X222528Y290012D01*
D02*
G37*
G36*
X212528D02*
X211472D01*
X210452Y289738D01*
X209537Y289210D01*
X208790Y288463D01*
X208262Y287548D01*
X207988Y286528D01*
Y285472D01*
X208262Y284452D01*
X208790Y283537D01*
X209537Y282790D01*
X209834Y282618D01*
Y269936D01*
X209306Y269408D01*
X208777Y268493D01*
X208504Y267473D01*
Y266417D01*
X208777Y265396D01*
X209306Y264481D01*
X210052Y263735D01*
X210967Y263206D01*
X211988Y262933D01*
X213044D01*
X214064Y263206D01*
X214979Y263735D01*
X215726Y264481D01*
X216254Y265396D01*
X216528Y266417D01*
Y267473D01*
X216254Y268493D01*
X215726Y269408D01*
X214979Y270155D01*
X214683Y270326D01*
Y283009D01*
X215210Y283537D01*
X215738Y284452D01*
X216012Y285472D01*
Y286528D01*
X215738Y287548D01*
X215210Y288463D01*
X214463Y289210D01*
X213548Y289738D01*
X212528Y290012D01*
D02*
G37*
G36*
X202528D02*
X201472D01*
X200451Y289738D01*
X199537Y289210D01*
X198790Y288463D01*
X198262Y287548D01*
X197988Y286528D01*
Y285472D01*
X198262Y284452D01*
X198790Y283537D01*
X199537Y282790D01*
X199834Y282618D01*
Y269936D01*
X199305Y269408D01*
X198777Y268493D01*
X198504Y267473D01*
Y266417D01*
X198777Y265396D01*
X199305Y264481D01*
X200052Y263735D01*
X200967Y263206D01*
X201988Y262933D01*
X203044D01*
X204064Y263206D01*
X204979Y263735D01*
X205726Y264481D01*
X206254Y265396D01*
X206528Y266417D01*
Y267473D01*
X206254Y268493D01*
X205726Y269408D01*
X204979Y270155D01*
X204682Y270326D01*
Y283009D01*
X205210Y283537D01*
X205738Y284452D01*
X206012Y285472D01*
Y286528D01*
X205738Y287548D01*
X205210Y288463D01*
X204463Y289210D01*
X203549Y289738D01*
X202528Y290012D01*
D02*
G37*
G36*
X196012D02*
X187988D01*
Y281988D01*
X189576D01*
Y270957D01*
X188504D01*
Y262933D01*
X196528D01*
Y270957D01*
X194424D01*
Y281988D01*
X196012D01*
Y290012D01*
D02*
G37*
G36*
X51000Y250425D02*
X50766Y250378D01*
X50527D01*
X50306Y250287D01*
X50072Y250240D01*
X49874Y250107D01*
X49653Y250016D01*
X49484Y249847D01*
X49286Y249714D01*
X49153Y249516D01*
X48984Y249347D01*
X48893Y249126D01*
X48760Y248928D01*
X48713Y248694D01*
X48622Y248473D01*
Y248234D01*
X48575Y248000D01*
Y234000D01*
X48622Y233766D01*
Y233527D01*
X48713Y233306D01*
X48760Y233072D01*
X48893Y232874D01*
X48984Y232653D01*
X49153Y232484D01*
X49286Y232286D01*
X49484Y232153D01*
X49653Y231984D01*
X49874Y231893D01*
X50072Y231760D01*
X50306Y231713D01*
X50527Y231622D01*
X50766D01*
X51000Y231575D01*
X51234Y231622D01*
X51473D01*
X51694Y231713D01*
X51928Y231760D01*
X52126Y231893D01*
X52347Y231984D01*
X52516Y232153D01*
X52714Y232286D01*
X52847Y232484D01*
X53016Y232653D01*
X53107Y232874D01*
X53240Y233072D01*
X53287Y233306D01*
X53378Y233527D01*
Y233766D01*
X53425Y234000D01*
Y248000D01*
X53378Y248234D01*
Y248473D01*
X53287Y248694D01*
X53240Y248928D01*
X53107Y249126D01*
X53016Y249347D01*
X52847Y249516D01*
X52714Y249714D01*
X52516Y249847D01*
X52347Y250016D01*
X52126Y250107D01*
X51928Y250240D01*
X51694Y250287D01*
X51473Y250378D01*
X51234D01*
X51000Y250425D01*
D02*
G37*
G36*
X213024Y190968D02*
X212996D01*
Y187457D01*
X216508D01*
Y187485D01*
X216234Y188505D01*
X215706Y189420D01*
X214959Y190167D01*
X214044Y190695D01*
X213024Y190968D01*
D02*
G37*
G36*
X211996D02*
X211968D01*
X210947Y190695D01*
X210033Y190167D01*
X209286Y189420D01*
X208758Y188505D01*
X208484Y187485D01*
Y187457D01*
X211996D01*
Y190968D01*
D02*
G37*
G36*
X216508Y186457D02*
X212996D01*
Y182945D01*
X213024D01*
X214044Y183218D01*
X214959Y183746D01*
X215706Y184493D01*
X216234Y185408D01*
X216508Y186428D01*
Y186457D01*
D02*
G37*
G36*
X211996D02*
X208484D01*
Y186428D01*
X208758Y185408D01*
X209286Y184493D01*
X210033Y183746D01*
X210947Y183218D01*
X211968Y182945D01*
X211996D01*
Y186457D01*
D02*
G37*
G36*
X186508Y190968D02*
X178484D01*
Y182945D01*
X186508D01*
Y190968D01*
D02*
G37*
G36*
X102358Y173949D02*
X98909D01*
Y170500D01*
X102358D01*
Y173949D01*
D02*
G37*
G36*
Y169500D02*
X98909D01*
Y166051D01*
X102358D01*
Y169500D01*
D02*
G37*
G36*
X100973Y238378D02*
X100027D01*
X99153Y238016D01*
X98484Y237347D01*
X98122Y236473D01*
Y235915D01*
X92353Y230147D01*
X92002Y229621D01*
X91878Y229000D01*
Y158934D01*
X91484Y158540D01*
X91122Y157666D01*
Y156720D01*
X91484Y155846D01*
X92153Y155177D01*
X93027Y154815D01*
X93973D01*
X94847Y155177D01*
X95516Y155846D01*
X95878Y156720D01*
Y157666D01*
X95516Y158540D01*
X95122Y158934D01*
Y166051D01*
X97909D01*
Y170000D01*
Y173949D01*
X95122D01*
Y228328D01*
X100416Y233622D01*
X100973D01*
X101847Y233984D01*
X102516Y234653D01*
X102878Y235527D01*
Y236473D01*
X102516Y237347D01*
X101847Y238016D01*
X100973Y238378D01*
D02*
G37*
G36*
X98929Y156232D02*
X97890D01*
X96885Y155963D01*
X95985Y155443D01*
X95250Y154708D01*
X94730Y153808D01*
X94461Y152803D01*
Y151763D01*
X94730Y150759D01*
X95250Y149859D01*
X95985Y149124D01*
X96885Y148604D01*
X97890Y148335D01*
X98929D01*
X99934Y148604D01*
X100834Y149124D01*
X101569Y149859D01*
X102089Y150759D01*
X102358Y151763D01*
Y152803D01*
X102089Y153808D01*
X101569Y154708D01*
X100834Y155443D01*
X99934Y155963D01*
X98929Y156232D01*
D02*
G37*
G36*
X157937Y147867D02*
X157090Y147516D01*
X156421Y146847D01*
X156070Y146000D01*
X157937D01*
Y147867D01*
D02*
G37*
G36*
X203024Y190968D02*
X201968D01*
X200947Y190695D01*
X200033Y190167D01*
X199286Y189420D01*
X198758Y188505D01*
X198484Y187485D01*
Y186428D01*
X198758Y185408D01*
X199286Y184493D01*
X199377Y184402D01*
Y126584D01*
X199301Y126400D01*
X198810Y126303D01*
X194921Y130193D01*
Y130603D01*
Y183724D01*
X194959Y183746D01*
X195706Y184493D01*
X196234Y185408D01*
X196508Y186428D01*
Y187485D01*
X196234Y188505D01*
X195706Y189420D01*
X194959Y190167D01*
X194044Y190695D01*
X193024Y190968D01*
X191968D01*
X190947Y190695D01*
X190033Y190167D01*
X189286Y189420D01*
X188758Y188505D01*
X188484Y187485D01*
Y186428D01*
X188758Y185408D01*
X189286Y184493D01*
X190033Y183746D01*
X190071Y183724D01*
Y130603D01*
Y129188D01*
X190256Y128261D01*
X190782Y127474D01*
X198230Y120026D01*
X199016Y119500D01*
X199944Y119316D01*
X200572D01*
X200687Y119339D01*
X201191Y119002D01*
X201812Y118878D01*
X203259D01*
X203653Y118484D01*
X204527Y118122D01*
X205473D01*
X206347Y118484D01*
X207016Y119153D01*
X207378Y120027D01*
Y120973D01*
X207016Y121847D01*
X206347Y122516D01*
X205473Y122878D01*
X204527D01*
X203653Y122516D01*
X203402Y122265D01*
X202868Y122385D01*
X202812Y122668D01*
X202613Y122965D01*
X202758Y123443D01*
X202847Y123480D01*
X203317Y123950D01*
X203516Y124083D01*
X204041Y124870D01*
X204226Y125797D01*
Y183323D01*
X204959Y183746D01*
X205706Y184493D01*
X206234Y185408D01*
X206508Y186428D01*
Y187485D01*
X206234Y188505D01*
X205706Y189420D01*
X204959Y190167D01*
X204045Y190695D01*
X203024Y190968D01*
D02*
G37*
G36*
X52500Y164925D02*
X52266Y164878D01*
X52027D01*
X51806Y164787D01*
X51572Y164740D01*
X51374Y164607D01*
X51153Y164516D01*
X50984Y164347D01*
X50786Y164214D01*
X50653Y164016D01*
X50484Y163847D01*
X50393Y163626D01*
X50260Y163428D01*
X50213Y163194D01*
X50122Y162973D01*
Y162734D01*
X50076Y162500D01*
X50122Y162266D01*
Y162027D01*
X50213Y161806D01*
X50260Y161572D01*
X50393Y161374D01*
X50484Y161153D01*
X50653Y160984D01*
X50786Y160786D01*
X85286Y126286D01*
X85484Y126153D01*
X85653Y125984D01*
X85874Y125893D01*
X86072Y125760D01*
X86306Y125713D01*
X86527Y125622D01*
X86766D01*
X87000Y125575D01*
X87234Y125622D01*
X87473D01*
X87694Y125713D01*
X87928Y125760D01*
X88126Y125893D01*
X88347Y125984D01*
X88516Y126153D01*
X88714Y126286D01*
X88847Y126484D01*
X89016Y126653D01*
X89107Y126874D01*
X89240Y127072D01*
X89287Y127306D01*
X89378Y127527D01*
Y127766D01*
X89425Y128000D01*
X89378Y128234D01*
Y128473D01*
X89287Y128694D01*
X89240Y128928D01*
X89107Y129126D01*
X89016Y129347D01*
X88847Y129516D01*
X88714Y129714D01*
X54214Y164214D01*
X54016Y164347D01*
X53847Y164516D01*
X53626Y164607D01*
X53428Y164740D01*
X53194Y164787D01*
X52973Y164878D01*
X52734D01*
X52500Y164925D01*
D02*
G37*
G36*
X124520Y120449D02*
X123480D01*
X122476Y120180D01*
X121575Y119660D01*
X120840Y118925D01*
X120320Y118024D01*
X120051Y117020D01*
Y115980D01*
X120320Y114976D01*
X120840Y114075D01*
X121575Y113340D01*
X122476Y112820D01*
X123480Y112551D01*
X124520D01*
X125524Y112820D01*
X126425Y113340D01*
X127160Y114075D01*
X127680Y114976D01*
X127949Y115980D01*
Y117020D01*
X127680Y118024D01*
X127160Y118925D01*
X126425Y119660D01*
X125524Y120180D01*
X124520Y120449D01*
D02*
G37*
G36*
X102358D02*
X94461D01*
Y112551D01*
X102358D01*
Y120449D01*
D02*
G37*
G36*
X124520Y102732D02*
X123480D01*
X122476Y102463D01*
X121575Y101943D01*
X120840Y101208D01*
X120320Y100308D01*
X120051Y99303D01*
Y98264D01*
X120320Y97259D01*
X120840Y96359D01*
X121575Y95624D01*
X122476Y95104D01*
X123480Y94835D01*
X124520D01*
X125524Y95104D01*
X126425Y95624D01*
X127160Y96359D01*
X127680Y97259D01*
X127949Y98264D01*
Y99303D01*
X127680Y100308D01*
X127160Y101208D01*
X126425Y101943D01*
X125524Y102463D01*
X124520Y102732D01*
D02*
G37*
G36*
X98929D02*
X97890D01*
X96885Y102463D01*
X95985Y101943D01*
X95250Y101208D01*
X94730Y100308D01*
X94461Y99303D01*
Y98264D01*
X94730Y97259D01*
X95250Y96359D01*
X95985Y95624D01*
X96885Y95104D01*
X97890Y94835D01*
X98929D01*
X99934Y95104D01*
X100834Y95624D01*
X101569Y96359D01*
X102089Y97259D01*
X102358Y98264D01*
Y99303D01*
X102089Y100308D01*
X101569Y101208D01*
X100834Y101943D01*
X99934Y102463D01*
X98929Y102732D01*
D02*
G37*
G36*
X235473Y120378D02*
X234527D01*
X233653Y120016D01*
X232984Y119347D01*
X232622Y118473D01*
Y117527D01*
X232984Y116653D01*
X233471Y116166D01*
Y114634D01*
X222419Y103581D01*
X222087Y103085D01*
X221971Y102500D01*
Y98334D01*
X221484Y97847D01*
X221122Y96973D01*
Y96027D01*
X221484Y95153D01*
X222153Y94484D01*
X223027Y94122D01*
X223973D01*
X224847Y94484D01*
X225516Y95153D01*
X225878Y96027D01*
Y96973D01*
X225516Y97847D01*
X225029Y98334D01*
Y101866D01*
X236081Y112919D01*
X236413Y113415D01*
X236529Y114000D01*
Y116166D01*
X237016Y116653D01*
X237378Y117527D01*
Y118473D01*
X237016Y119347D01*
X236347Y120016D01*
X235473Y120378D01*
D02*
G37*
G36*
X22000Y67867D02*
Y66000D01*
X23867D01*
X23516Y66847D01*
X22847Y67516D01*
X22000Y67867D01*
D02*
G37*
G36*
X21000D02*
X20153Y67516D01*
X19484Y66847D01*
X19133Y66000D01*
X21000D01*
Y67867D01*
D02*
G37*
G36*
X53500Y97425D02*
X53266Y97378D01*
X53027D01*
X52806Y97287D01*
X52572Y97240D01*
X52374Y97107D01*
X52153Y97016D01*
X51984Y96847D01*
X51786Y96714D01*
X51653Y96516D01*
X51484Y96347D01*
X51393Y96126D01*
X51260Y95928D01*
X51213Y95694D01*
X51122Y95473D01*
Y95234D01*
X51076Y95000D01*
Y65004D01*
X43495Y57424D01*
X43266Y57378D01*
X43027D01*
X42806Y57287D01*
X42572Y57240D01*
X42374Y57107D01*
X42153Y57016D01*
X41984Y56847D01*
X41786Y56714D01*
X41653Y56516D01*
X41484Y56347D01*
X41393Y56126D01*
X41260Y55928D01*
X41213Y55694D01*
X41122Y55473D01*
Y55234D01*
X41076Y55000D01*
X41122Y54766D01*
Y54527D01*
X41213Y54306D01*
X41260Y54072D01*
X41393Y53874D01*
X41484Y53653D01*
X41653Y53484D01*
X41786Y53286D01*
X41984Y53153D01*
X42153Y52984D01*
X42374Y52893D01*
X42572Y52760D01*
X42806Y52713D01*
X43027Y52622D01*
X43266D01*
X43500Y52575D01*
X44500D01*
X45428Y52760D01*
X46214Y53286D01*
X55214Y62286D01*
X55740Y63072D01*
X55924Y64000D01*
Y95000D01*
X55878Y95234D01*
Y95473D01*
X55787Y95694D01*
X55740Y95928D01*
X55607Y96126D01*
X55516Y96347D01*
X55347Y96516D01*
X55214Y96714D01*
X55016Y96847D01*
X54847Y97016D01*
X54626Y97107D01*
X54428Y97240D01*
X54194Y97287D01*
X53973Y97378D01*
X53734D01*
X53500Y97425D01*
D02*
G37*
G36*
X220468Y67072D02*
X149539D01*
X149149Y66995D01*
X148818Y66773D01*
X148597Y66443D01*
X148520Y66053D01*
Y34598D01*
X148597Y34208D01*
X148818Y33878D01*
X149149Y33656D01*
X149539Y33579D01*
X220468D01*
X220859Y33656D01*
X221189Y33878D01*
X221410Y34208D01*
X221488Y34598D01*
Y66053D01*
X221410Y66443D01*
X221189Y66773D01*
X220859Y66995D01*
X220468Y67072D01*
D02*
G37*
G36*
X30000Y26367D02*
Y24500D01*
X31867D01*
X31516Y25347D01*
X30847Y26016D01*
X30000Y26367D01*
D02*
G37*
G36*
X23867Y65000D02*
X19133D01*
X19484Y64153D01*
X19971Y63666D01*
Y32000D01*
X20087Y31415D01*
X20419Y30919D01*
X26837Y24500D01*
X29000D01*
Y26663D01*
X23029Y32634D01*
Y63666D01*
X23516Y64153D01*
X23867Y65000D01*
D02*
G37*
G36*
X31867Y23500D02*
X30000D01*
Y21633D01*
X30847Y21984D01*
X31516Y22653D01*
X31867Y23500D01*
D02*
G37*
G36*
X29000D02*
X27133D01*
X27484Y22653D01*
X28153Y21984D01*
X29000Y21633D01*
Y23500D01*
D02*
G37*
G36*
X9180Y34905D02*
X7820D01*
X6486Y34640D01*
X5229Y34120D01*
X4098Y33364D01*
X3136Y32402D01*
X2380Y31271D01*
X1860Y30014D01*
X1595Y28680D01*
Y27320D01*
X1860Y25986D01*
X2380Y24729D01*
X3136Y23598D01*
X4098Y22636D01*
X5229Y21880D01*
X6486Y21360D01*
X7820Y21094D01*
X9180D01*
X10514Y21360D01*
X11771Y21880D01*
X12902Y22636D01*
X13864Y23598D01*
X14620Y24729D01*
X15140Y25986D01*
X15405Y27320D01*
Y28680D01*
X15140Y30014D01*
X14620Y31271D01*
X13864Y32402D01*
X12902Y33364D01*
X11771Y34120D01*
X10514Y34640D01*
X9180Y34905D01*
D02*
G37*
G36*
X219453Y18953D02*
X216000D01*
Y15500D01*
X219453D01*
Y18953D01*
D02*
G37*
G36*
X215000D02*
X211547D01*
Y15500D01*
X215000D01*
Y18953D01*
D02*
G37*
G36*
Y14500D02*
X211547D01*
Y11047D01*
X215000D01*
Y14500D01*
D02*
G37*
G36*
X206020Y18953D02*
X204980D01*
X203974Y18683D01*
X203073Y18163D01*
X202337Y17427D01*
X201817Y16526D01*
X201547Y15520D01*
Y14480D01*
X201817Y13474D01*
X202337Y12573D01*
X203073Y11837D01*
X203974Y11317D01*
X204980Y11047D01*
X206020D01*
X207026Y11317D01*
X207927Y11837D01*
X208663Y12573D01*
X209183Y13474D01*
X209453Y14480D01*
Y15520D01*
X209183Y16526D01*
X208663Y17427D01*
X207927Y18163D01*
X207026Y18683D01*
X206020Y18953D01*
D02*
G37*
G36*
X196020D02*
X194980D01*
X193974Y18683D01*
X193073Y18163D01*
X192337Y17427D01*
X191817Y16526D01*
X191547Y15520D01*
Y14480D01*
X191817Y13474D01*
X192337Y12573D01*
X193073Y11837D01*
X193974Y11317D01*
X194980Y11047D01*
X196020D01*
X197026Y11317D01*
X197927Y11837D01*
X198663Y12573D01*
X199183Y13474D01*
X199453Y14480D01*
Y15520D01*
X199183Y16526D01*
X198663Y17427D01*
X197927Y18163D01*
X197026Y18683D01*
X196020Y18953D01*
D02*
G37*
G36*
X186020D02*
X184980D01*
X183974Y18683D01*
X183073Y18163D01*
X182337Y17427D01*
X181817Y16526D01*
X181547Y15520D01*
Y14480D01*
X181817Y13474D01*
X182337Y12573D01*
X183073Y11837D01*
X183974Y11317D01*
X184980Y11047D01*
X186020D01*
X187026Y11317D01*
X187927Y11837D01*
X188663Y12573D01*
X189183Y13474D01*
X189453Y14480D01*
Y15520D01*
X189183Y16526D01*
X188663Y17427D01*
X187927Y18163D01*
X187026Y18683D01*
X186020Y18953D01*
D02*
G37*
G36*
X176020D02*
X174980D01*
X173974Y18683D01*
X173073Y18163D01*
X172337Y17427D01*
X171817Y16526D01*
X171547Y15520D01*
Y14480D01*
X171817Y13474D01*
X172337Y12573D01*
X173073Y11837D01*
X173974Y11317D01*
X174980Y11047D01*
X176020D01*
X177026Y11317D01*
X177927Y11837D01*
X178663Y12573D01*
X179183Y13474D01*
X179453Y14480D01*
Y15520D01*
X179183Y16526D01*
X178663Y17427D01*
X177927Y18163D01*
X177026Y18683D01*
X176020Y18953D01*
D02*
G37*
G36*
X44681Y8421D02*
X44587D01*
X44539Y8417D01*
X44496Y8409D01*
X44449Y8402D01*
X44405Y8390D01*
X44358Y8378D01*
X44315Y8362D01*
X44272Y8347D01*
X44232Y8323D01*
X44193Y8303D01*
X44150Y8280D01*
X44114Y8252D01*
X44075Y8224D01*
X44039Y8193D01*
X44008Y8161D01*
X43976Y8130D01*
X43945Y8095D01*
X43917Y8055D01*
X43890Y8020D01*
X43866Y7976D01*
X43846Y7937D01*
X43823Y7898D01*
X43807Y7854D01*
X43791Y7811D01*
X43780Y7764D01*
X43768Y7721D01*
X43760Y7673D01*
X43752Y7630D01*
X43748Y7583D01*
Y7535D01*
Y5961D01*
Y4386D01*
Y4339D01*
X43752Y4291D01*
X43760Y4248D01*
X43768Y4201D01*
X43780Y4157D01*
X43791Y4110D01*
X43807Y4067D01*
X43823Y4024D01*
X43846Y3984D01*
X43866Y3945D01*
X43890Y3902D01*
X43917Y3866D01*
X43945Y3827D01*
X43976Y3791D01*
X44008Y3760D01*
X44039Y3728D01*
X44075Y3697D01*
X44114Y3669D01*
X44150Y3642D01*
X44193Y3618D01*
X44232Y3598D01*
X44272Y3575D01*
X44315Y3559D01*
X44358Y3543D01*
X44405Y3531D01*
X44449Y3520D01*
X44496Y3512D01*
X44539Y3504D01*
X44587Y3500D01*
X44681D01*
X44728Y3504D01*
X44772Y3512D01*
X44819Y3520D01*
X44862Y3531D01*
X44909Y3543D01*
X44953Y3559D01*
X44996Y3575D01*
X45035Y3598D01*
X45079Y3618D01*
X45118Y3642D01*
X45154Y3669D01*
X45193Y3697D01*
X45228Y3728D01*
X45260Y3760D01*
X45291Y3791D01*
X45323Y3827D01*
X45350Y3866D01*
X45378Y3902D01*
X45402Y3941D01*
X45421Y3984D01*
X45445Y4024D01*
X45461Y4067D01*
X45476Y4110D01*
X45488Y4157D01*
X45500Y4201D01*
X45508Y4248D01*
X45516Y4291D01*
X45520Y4339D01*
Y4386D01*
Y5961D01*
Y7535D01*
Y7583D01*
X45516Y7630D01*
X45508Y7673D01*
X45500Y7721D01*
X45488Y7764D01*
X45476Y7811D01*
X45461Y7854D01*
X45445Y7898D01*
X45421Y7937D01*
X45402Y7980D01*
X45378Y8020D01*
X45350Y8055D01*
X45323Y8095D01*
X45291Y8130D01*
X45260Y8161D01*
X45228Y8193D01*
X45193Y8224D01*
X45154Y8252D01*
X45118Y8280D01*
X45079Y8303D01*
X45035Y8323D01*
X44996Y8347D01*
X44953Y8362D01*
X44909Y8378D01*
X44862Y8390D01*
X44819Y8402D01*
X44772Y8409D01*
X44728Y8417D01*
X44681Y8421D01*
D02*
G37*
G36*
X16532D02*
X16437D01*
X16390Y8417D01*
X16346Y8409D01*
X16299Y8402D01*
X16256Y8390D01*
X16209Y8378D01*
X16165Y8362D01*
X16122Y8347D01*
X16083Y8323D01*
X16039Y8303D01*
X16000Y8280D01*
X15965Y8252D01*
X15925Y8224D01*
X15890Y8193D01*
X15858Y8161D01*
X15827Y8130D01*
X15795Y8095D01*
X15768Y8055D01*
X15740Y8020D01*
X15717Y7980D01*
X15697Y7937D01*
X15673Y7898D01*
X15657Y7854D01*
X15642Y7811D01*
X15630Y7764D01*
X15618Y7721D01*
X15610Y7673D01*
X15602Y7630D01*
X15598Y7583D01*
Y7535D01*
Y5961D01*
Y4386D01*
Y4339D01*
X15602Y4291D01*
X15610Y4248D01*
X15618Y4201D01*
X15630Y4157D01*
X15642Y4110D01*
X15657Y4067D01*
X15673Y4024D01*
X15697Y3984D01*
X15717Y3941D01*
X15740Y3902D01*
X15768Y3866D01*
X15795Y3827D01*
X15827Y3791D01*
X15858Y3760D01*
X15890Y3728D01*
X15925Y3697D01*
X15965Y3669D01*
X16000Y3642D01*
X16039Y3618D01*
X16083Y3598D01*
X16122Y3575D01*
X16165Y3559D01*
X16209Y3543D01*
X16256Y3531D01*
X16299Y3520D01*
X16346Y3512D01*
X16390Y3504D01*
X16437Y3500D01*
X16532D01*
X16579Y3504D01*
X16622Y3512D01*
X16669Y3520D01*
X16713Y3531D01*
X16760Y3543D01*
X16803Y3559D01*
X16847Y3575D01*
X16886Y3598D01*
X16925Y3618D01*
X16969Y3642D01*
X17004Y3669D01*
X17043Y3697D01*
X17079Y3728D01*
X17110Y3760D01*
X17142Y3791D01*
X17173Y3827D01*
X17201Y3866D01*
X17228Y3902D01*
X17252Y3945D01*
X17272Y3984D01*
X17295Y4024D01*
X17311Y4067D01*
X17327Y4110D01*
X17339Y4157D01*
X17350Y4201D01*
X17358Y4248D01*
X17366Y4291D01*
X17370Y4339D01*
Y4386D01*
Y5961D01*
Y7535D01*
Y7583D01*
X17366Y7630D01*
X17358Y7673D01*
X17350Y7721D01*
X17339Y7764D01*
X17327Y7811D01*
X17311Y7854D01*
X17295Y7898D01*
X17272Y7937D01*
X17252Y7976D01*
X17228Y8020D01*
X17201Y8055D01*
X17173Y8095D01*
X17142Y8130D01*
X17110Y8161D01*
X17079Y8193D01*
X17043Y8224D01*
X17004Y8252D01*
X16969Y8280D01*
X16925Y8303D01*
X16886Y8323D01*
X16847Y8347D01*
X16803Y8362D01*
X16760Y8378D01*
X16713Y8390D01*
X16669Y8402D01*
X16622Y8409D01*
X16579Y8417D01*
X16532Y8421D01*
D02*
G37*
%LPD*%
D13*
X141539Y121195D02*
Y133453D01*
Y121195D02*
X142500Y120233D01*
Y107500D02*
Y120233D01*
X141539Y133453D02*
X145086Y137000D01*
X165025Y143000D02*
X165500D01*
X164525Y142500D02*
X165025Y143000D01*
X152500Y142500D02*
X164525D01*
X187750Y111250D02*
X188000Y111000D01*
X175965Y111465D02*
X176180Y111250D01*
X187750D01*
X223500Y96500D02*
Y102500D01*
X235000Y114000D01*
Y118000D01*
X145086Y137000D02*
X149000D01*
X21500Y32000D02*
Y65500D01*
Y32000D02*
X29500Y24000D01*
X158437Y145500D02*
X158468D01*
X164469Y151500D01*
X164500D01*
X192000Y267461D02*
X192516Y266945D01*
D58*
X192496Y129188D02*
Y130603D01*
X201801Y125797D02*
Y186262D01*
X199944Y121740D02*
X200572D01*
X192496Y129188D02*
X199944Y121740D01*
X43500Y55000D02*
X44500D01*
X53500Y64000D01*
Y95000D01*
X51000Y234000D02*
Y248000D01*
X52500Y162500D02*
X87000Y128000D01*
X192496Y130603D02*
Y186957D01*
X212258Y267203D02*
Y285742D01*
X222258Y267203D02*
Y285742D01*
X202258Y267203D02*
Y285742D01*
X192000Y267461D02*
Y286000D01*
D59*
X169000Y113302D02*
Y153000D01*
X127151Y194849D02*
X169000Y153000D01*
X125882Y195000D02*
X126032Y194849D01*
X127151D01*
X92004Y300069D02*
X96934Y305000D01*
X104000D01*
X116098Y166727D02*
X125609Y157217D01*
X126043D01*
X116098Y166727D02*
Y173273D01*
X127273Y160185D02*
X139054Y148404D01*
X126839Y160185D02*
X127273D01*
X119067Y167957D02*
X126839Y160185D01*
X119067Y167957D02*
Y172043D01*
X139054Y106191D02*
Y148404D01*
X119067Y172043D02*
X122520Y175496D01*
X126043Y157217D02*
X128933Y154327D01*
X117416Y269907D02*
X117686D01*
X139658Y89087D02*
Y95158D01*
X126572Y146248D02*
X136086Y136734D01*
X126572Y147879D02*
X128933Y150240D01*
Y154327D01*
X126572Y146248D02*
Y147879D01*
X117686Y269907D02*
X122520Y265074D01*
X92004Y289741D02*
Y300069D01*
X114828Y268297D02*
X116186Y266939D01*
X92004Y289741D02*
X113448Y268297D01*
X144107Y84638D02*
X146893D01*
X119551Y176726D02*
Y263844D01*
X139658Y89087D02*
X144107Y84638D01*
X122520Y175496D02*
Y265074D01*
X97947Y289376D02*
X117416Y269907D01*
X139054Y106191D02*
X148862Y96383D01*
X146893Y84638D02*
X148862Y86607D01*
X116098Y173273D02*
X119551Y176726D01*
X148862Y86607D02*
Y96383D01*
X113448Y268297D02*
X114828D01*
X116457Y266939D02*
X119551Y263844D01*
X116186Y266939D02*
X116457D01*
X96500Y290000D02*
X96975D01*
X97599Y289376D01*
X97947D01*
X145500Y88000D02*
Y94070D01*
X136570Y103000D02*
X145500Y94070D01*
X136086Y103000D02*
X136570D01*
X136086D02*
Y136734D01*
X194802Y87500D02*
X205500D01*
X169000Y113302D02*
X194802Y87500D01*
D60*
X62500Y214000D02*
X113435Y264935D01*
X201812Y120500D02*
X205000D01*
X200572Y121740D02*
X201812Y120500D01*
X201801Y186262D02*
X202496Y186957D01*
X201500Y125496D02*
X201801Y125797D01*
X175000Y5500D02*
X214155D01*
X165500Y15000D02*
X175000Y5500D01*
X214155D02*
X225000Y16345D01*
Y52000D01*
X93500Y229000D02*
X100500Y236000D01*
X93500Y157193D02*
Y229000D01*
X212258Y267203D02*
X212516Y266945D01*
X212000Y286000D02*
X212258Y285742D01*
X222258Y267203D02*
X222516Y266945D01*
X222000Y286000D02*
X222258Y285742D01*
X202258Y267203D02*
X202516Y266945D01*
X202000Y286000D02*
X202258Y285742D01*
D63*
X98409Y152283D02*
D03*
X124000D02*
D03*
Y170000D02*
D03*
X98409Y98783D02*
D03*
X124000D02*
D03*
Y116500D02*
D03*
D64*
X98409Y170000D02*
D03*
Y116500D02*
D03*
D65*
X16484Y5961D02*
D03*
X44634D02*
D03*
D66*
X182496Y186957D02*
D03*
X127000Y298000D02*
D03*
X192516Y266945D02*
D03*
X192000Y286000D02*
D03*
D67*
X192496Y186957D02*
D03*
X202496D02*
D03*
X212496D02*
D03*
X117000Y298000D02*
D03*
X107000D02*
D03*
X97000D02*
D03*
X222516Y266945D02*
D03*
X212516D02*
D03*
X202516D02*
D03*
X222000Y286000D02*
D03*
X212000D02*
D03*
X202000D02*
D03*
D68*
X8500Y28000D02*
D03*
Y317000D02*
D03*
X233000D02*
D03*
X232500Y26500D02*
D03*
D69*
X215500Y15000D02*
D03*
D70*
X205500D02*
D03*
X195500D02*
D03*
X185500D02*
D03*
X175500D02*
D03*
X165500D02*
D03*
D71*
X31657Y290500D02*
D03*
X41500D02*
D03*
D72*
X104000Y305000D02*
D03*
X139658Y95158D02*
D03*
X125882Y195000D02*
D03*
X113435Y264935D02*
D03*
X145500Y88000D02*
D03*
X205000Y120500D02*
D03*
X201500Y125496D02*
D03*
X43500Y55000D02*
D03*
X53500Y95000D02*
D03*
X51000Y248000D02*
D03*
Y234000D02*
D03*
X165500Y143000D02*
D03*
X152500Y142500D02*
D03*
X188000Y111000D02*
D03*
X175965Y111465D02*
D03*
X87000Y128000D02*
D03*
X52500Y162500D02*
D03*
X62500Y214000D02*
D03*
X225000Y52000D02*
D03*
X223500Y96500D02*
D03*
X235000Y118000D02*
D03*
X96500Y290000D02*
D03*
X142500Y107500D02*
D03*
X149000Y137000D02*
D03*
X93500Y157193D02*
D03*
X100500Y236000D02*
D03*
X29500Y24000D02*
D03*
X21500Y65500D02*
D03*
X158437Y145500D02*
D03*
X164500Y151500D02*
D03*
X205500Y87500D02*
D03*
M02*
