G04*
G04 #@! TF.GenerationSoftware,Altium Limited,Altium Designer,23.4.1 (23)*
G04*
G04 Layer_Color=16711935*
%FSLAX25Y25*%
%MOIN*%
G70*
G04*
G04 #@! TF.SameCoordinates,09768D10-58BE-4D6D-BEFF-C0C13B30395A*
G04*
G04*
G04 #@! TF.FilePolarity,Positive*
G04*
G01*
G75*
%ADD10C,0.00500*%
%ADD11C,0.00787*%
%ADD12C,0.00000*%
%ADD13C,0.01000*%
%ADD14C,0.00600*%
%ADD70C,0.00394*%
D10*
X118114Y161142D02*
X118041Y162148D01*
X117821Y163132D01*
X117461Y164075D01*
X116967Y164954D01*
X116351Y165752D01*
X115624Y166453D01*
X114804Y167040D01*
X113907Y167501D01*
X112952Y167826D01*
X111960Y168010D01*
X110952Y168047D01*
X109950Y167936D01*
X108974Y167681D01*
X108045Y167287D01*
X107184Y166761D01*
X106409Y166116D01*
X105736Y165365D01*
X105179Y164523D01*
X104751Y163610D01*
X104461Y162644D01*
X104314Y161646D01*
Y160637D01*
X104461Y159639D01*
X104751Y158674D01*
X105179Y157760D01*
X105736Y156919D01*
X106409Y156168D01*
X107184Y155522D01*
X108045Y154997D01*
X108974Y154602D01*
X109950Y154347D01*
X110952Y154237D01*
X111960Y154274D01*
X112952Y154457D01*
X113907Y154783D01*
X114804Y155244D01*
X115624Y155831D01*
X116351Y156531D01*
X116967Y157329D01*
X117461Y158209D01*
X117821Y159151D01*
X118041Y160136D01*
X118114Y161142D01*
Y107642D02*
X118041Y108648D01*
X117821Y109632D01*
X117461Y110574D01*
X116967Y111454D01*
X116351Y112252D01*
X115624Y112953D01*
X114804Y113540D01*
X113907Y114001D01*
X112952Y114327D01*
X111960Y114510D01*
X110952Y114547D01*
X109950Y114436D01*
X108974Y114181D01*
X108045Y113787D01*
X107184Y113261D01*
X106409Y112616D01*
X105736Y111865D01*
X105179Y111023D01*
X104751Y110110D01*
X104461Y109144D01*
X104314Y108146D01*
Y107137D01*
X104461Y106139D01*
X104751Y105174D01*
X105179Y104260D01*
X105736Y103419D01*
X106409Y102668D01*
X107184Y102022D01*
X108045Y101497D01*
X108974Y101102D01*
X109950Y100847D01*
X110952Y100737D01*
X111960Y100774D01*
X112952Y100957D01*
X113907Y101283D01*
X114804Y101744D01*
X115624Y102331D01*
X116351Y103031D01*
X116967Y103829D01*
X117461Y104709D01*
X117821Y105651D01*
X118041Y106636D01*
X118114Y107642D01*
X148583Y55390D02*
X155276D01*
X148583Y51610D02*
X155276D01*
X148583D02*
Y55390D01*
X155276Y51610D02*
Y55390D01*
X203083D02*
X209776D01*
X203083Y51610D02*
X209776D01*
X203083D02*
Y55390D01*
X209776Y51610D02*
Y55390D01*
X227153Y68110D02*
X233846D01*
X227153Y71890D02*
X233846D01*
Y68110D02*
Y71890D01*
X227153Y68110D02*
Y71890D01*
X227654Y99890D02*
X234347D01*
X227654Y96110D02*
X234347D01*
X227654D02*
Y99890D01*
X234347Y96110D02*
Y99890D01*
X99413Y149350D02*
Y172933D01*
Y149350D02*
X122996D01*
Y172933D01*
X99413D02*
X122996D01*
X99413Y95850D02*
Y119433D01*
Y95850D02*
X122996D01*
Y119433D01*
X99413D02*
X122996D01*
X227654Y88890D02*
X234346D01*
X227654Y85110D02*
X234346D01*
X227654D02*
Y88890D01*
X234346Y85110D02*
Y88890D01*
X227654Y107110D02*
X234346D01*
X227654Y110890D02*
X234346D01*
Y107110D02*
Y110890D01*
X227654Y107110D02*
Y110890D01*
X139154Y167890D02*
X145846D01*
X139154Y164110D02*
X145846D01*
X139154D02*
Y167890D01*
X145846Y164110D02*
Y167890D01*
X139154Y142890D02*
X145846D01*
X139154Y139110D02*
X145846D01*
X139154D02*
Y142890D01*
X145846Y139110D02*
Y142890D01*
X22012Y281248D02*
Y303886D01*
X51146D01*
Y281248D02*
Y303886D01*
X22012Y281248D02*
X51146D01*
D11*
X175055Y186957D02*
X174268D01*
X175055D01*
X135228Y298000D02*
X134441D01*
X135228D01*
X185075Y266945D02*
X184287D01*
X185075D01*
X184559Y286000D02*
X183772D01*
X184559D01*
X41894Y278787D02*
X41106D01*
X41894D01*
X6937Y252D02*
X54181D01*
D12*
X34200Y41400D02*
X33849Y42248D01*
X33000Y42600D01*
X32151Y42248D01*
X31800Y41400D01*
D13*
X23058Y-4041D02*
Y-1417D01*
X24370D01*
X24807Y-1854D01*
Y-2729D01*
X24370Y-3166D01*
X23058D01*
X27432Y-1854D02*
X26994Y-1417D01*
X26120D01*
X25682Y-1854D01*
Y-3604D01*
X26120Y-4041D01*
X26994D01*
X27432Y-3604D01*
X28306Y-1417D02*
Y-4041D01*
X29619D01*
X30056Y-3604D01*
Y-3166D01*
X29619Y-2729D01*
X28306D01*
X29619D01*
X30056Y-2291D01*
Y-1854D01*
X29619Y-1417D01*
X28306D01*
X35304D02*
X33555D01*
Y-4041D01*
X35304D01*
X33555Y-2729D02*
X34430D01*
X37929Y-1417D02*
Y-4041D01*
X36617D01*
X36179Y-3604D01*
Y-2729D01*
X36617Y-2291D01*
X37929D01*
X39678Y-4916D02*
X40115D01*
X40553Y-4478D01*
Y-2291D01*
X39241D01*
X38803Y-2729D01*
Y-3604D01*
X39241Y-4041D01*
X40553D01*
X42740D02*
X41865D01*
X41428Y-3604D01*
Y-2729D01*
X41865Y-2291D01*
X42740D01*
X43177Y-2729D01*
Y-3166D01*
X41428D01*
D14*
X27100Y42800D02*
X29600D01*
X27100D02*
Y44700D01*
X29600D01*
Y42800D02*
Y44700D01*
Y41400D02*
Y42800D01*
X27100Y50300D02*
X29600D01*
X27100D02*
Y52200D01*
X29600D01*
X36400D02*
X38900D01*
Y50300D02*
Y52200D01*
X36400Y50300D02*
X38900D01*
X36400D02*
Y52200D01*
Y53600D01*
Y48500D02*
X38900D01*
Y46500D02*
Y48500D01*
X36400Y46500D02*
X38900D01*
X36400Y44700D02*
X38900D01*
Y42800D02*
Y44700D01*
X36400Y42800D02*
X38900D01*
X36400Y48500D02*
Y50300D01*
Y46500D02*
Y48500D01*
Y44700D02*
Y46500D01*
Y42800D02*
Y44700D01*
Y41400D02*
Y42800D01*
X34200Y41400D02*
X36400D01*
X31800D02*
X34200D01*
X29600D02*
X31800D01*
X29600Y44700D02*
Y50300D01*
Y52200D01*
Y53600D01*
X36400D01*
D70*
X15992Y-4965D02*
X45126D01*
X15992Y16886D02*
X45126D01*
Y-4965D02*
Y16886D01*
X15992Y-4965D02*
Y16886D01*
X177496Y181957D02*
Y191957D01*
X217496D01*
Y181957D02*
Y191957D01*
X177496Y181957D02*
X217496D01*
X132000Y293000D02*
Y303000D01*
X92000Y293000D02*
X132000D01*
X92000D02*
Y303000D01*
X132000D01*
X187516Y261945D02*
X227516D01*
Y271945D01*
X187516D02*
X227516D01*
X187516Y261945D02*
Y271945D01*
X187000Y281000D02*
X227000D01*
Y291000D01*
X187000D02*
X227000D01*
X187000Y281000D02*
Y291000D01*
X57823Y32461D02*
X65697D01*
Y27539D02*
Y32461D01*
X57823Y27539D02*
X65697D01*
X57823D02*
Y32461D01*
X58323Y46039D02*
X66197D01*
X58323D02*
Y50961D01*
X66197D01*
Y46039D02*
Y50961D01*
X70618Y232039D02*
X78492D01*
X70618D02*
Y236961D01*
X78492D01*
Y232039D02*
Y236961D01*
X70323Y192539D02*
X78197D01*
X70323D02*
Y197461D01*
X78197D01*
Y192539D02*
Y197461D01*
M02*
