G04*
G04 #@! TF.GenerationSoftware,Altium Limited,Altium Designer,23.4.1 (23)*
G04*
G04 Layer_Color=2752767*
%FSLAX25Y25*%
%MOIN*%
G70*
G04*
G04 #@! TF.SameCoordinates,6F0939B7-69C9-4D99-BC4F-421D0579EF30*
G04*
G04*
G04 #@! TF.FilePolarity,Positive*
G04*
G01*
G75*
%ADD10C,0.00500*%
%ADD72C,0.00667*%
D10*
X96409Y150283D02*
X97409Y152283D01*
X96409Y154283D01*
X98409Y153283D01*
X100409Y154283D01*
X99409Y152283D01*
X100409Y150283D01*
X98409Y151283D01*
X96409Y150283D01*
Y168000D02*
X97409Y170000D01*
X96409Y172000D01*
X98409Y171000D01*
X100409Y172000D01*
X99409Y170000D01*
X100409Y168000D01*
X98409Y169000D01*
X96409Y168000D01*
X122000Y150283D02*
X123000Y152283D01*
X122000Y154283D01*
X124000Y153283D01*
X126000Y154283D01*
X125000Y152283D01*
X126000Y150283D01*
X124000Y151283D01*
X122000Y150283D01*
Y168000D02*
X123000Y170000D01*
X122000Y172000D01*
X124000Y171000D01*
X126000Y172000D01*
X125000Y170000D01*
X126000Y168000D01*
X124000Y169000D01*
X122000Y168000D01*
X96409Y96783D02*
X97409Y98783D01*
X96409Y100783D01*
X98409Y99783D01*
X100409Y100783D01*
X99409Y98783D01*
X100409Y96783D01*
X98409Y97783D01*
X96409Y96783D01*
Y114500D02*
X97409Y116500D01*
X96409Y118500D01*
X98409Y117500D01*
X100409Y118500D01*
X99409Y116500D01*
X100409Y114500D01*
X98409Y115500D01*
X96409Y114500D01*
X122000Y96783D02*
X123000Y98783D01*
X122000Y100783D01*
X124000Y99783D01*
X126000Y100783D01*
X125000Y98783D01*
X126000Y96783D01*
X124000Y97783D01*
X122000Y96783D01*
Y114500D02*
X123000Y116500D01*
X122000Y118500D01*
X124000Y117500D01*
X126000Y118500D01*
X125000Y116500D01*
X126000Y114500D01*
X124000Y115500D01*
X122000Y114500D01*
X16484Y3961D02*
X14484Y7961D01*
X18484D01*
X16484Y3961D01*
X44634D02*
X42634Y7961D01*
X46634D01*
X44634Y3961D01*
X180496Y184957D02*
Y188957D01*
X184496D01*
Y184957D01*
X180496D01*
X190496D02*
Y188957D01*
X194496D01*
Y184957D01*
X190496D01*
X200496D02*
Y188957D01*
X204496D01*
Y184957D01*
X200496D01*
X210496D02*
Y188957D01*
X214496D01*
Y184957D01*
X210496D01*
X7500Y27000D02*
Y26000D01*
X9500D01*
Y27000D01*
X10500D01*
Y29000D01*
X9500D01*
Y30000D01*
X7500D01*
Y29000D01*
X6500D01*
Y27000D01*
X7500D01*
Y316000D02*
Y315000D01*
X9500D01*
Y316000D01*
X10500D01*
Y318000D01*
X9500D01*
Y319000D01*
X7500D01*
Y318000D01*
X6500D01*
Y316000D01*
X7500D01*
X232000D02*
Y315000D01*
X234000D01*
Y316000D01*
X235000D01*
Y318000D01*
X234000D01*
Y319000D01*
X232000D01*
Y318000D01*
X231000D01*
Y316000D01*
X232000D01*
X231500Y25500D02*
Y24500D01*
X233500D01*
Y25500D01*
X234500D01*
Y27500D01*
X233500D01*
Y28500D01*
X231500D01*
Y27500D01*
X230500D01*
Y25500D01*
X231500D01*
X125000Y296000D02*
Y300000D01*
X129000D01*
Y296000D01*
X125000D01*
X115000D02*
Y300000D01*
X119000D01*
Y296000D01*
X115000D01*
X105000D02*
Y300000D01*
X109000D01*
Y296000D01*
X105000D01*
X95000D02*
Y300000D01*
X99000D01*
Y296000D01*
X95000D01*
X220516Y264945D02*
Y268945D01*
X224516D01*
Y264945D01*
X220516D01*
X210516D02*
Y268945D01*
X214516D01*
Y264945D01*
X210516D01*
X200516D02*
Y268945D01*
X204516D01*
Y264945D01*
X200516D01*
X190516D02*
Y268945D01*
X194516D01*
Y264945D01*
X190516D01*
X220000Y284000D02*
Y288000D01*
X224000D01*
Y284000D01*
X220000D01*
X210000D02*
Y288000D01*
X214000D01*
Y284000D01*
X210000D01*
X200000D02*
Y288000D01*
X204000D01*
Y284000D01*
X200000D01*
X190000D02*
Y288000D01*
X194000D01*
Y284000D01*
X190000D01*
X31657Y288500D02*
X32657Y289500D01*
X33657D01*
X32657Y290500D01*
X33657Y291500D01*
X32657D01*
X31657Y292500D01*
X30657Y291500D01*
X29657D01*
X30657Y290500D01*
X29657Y289500D01*
X30657D01*
X31657Y288500D01*
X41500D02*
X42500Y289500D01*
X43500D01*
X42500Y290500D01*
X43500Y291500D01*
X42500D01*
X41500Y292500D01*
X40500Y291500D01*
X39500D01*
X40500Y290500D01*
X39500Y289500D01*
X40500D01*
X41500Y288500D01*
X232500Y103500D02*
X234500Y105500D01*
X236500Y103500D01*
X234500Y101500D01*
X232500Y103500D01*
X162000Y94000D02*
X164000Y96000D01*
X166000Y94000D01*
X164000Y92000D01*
X162000Y94000D01*
X167118Y96999D02*
X169118Y98999D01*
X171118Y96999D01*
X169118Y94999D01*
X167118Y96999D01*
X229500Y77000D02*
X231500Y79000D01*
X233500Y77000D01*
X231500Y75000D01*
X229500Y77000D01*
X181000Y58000D02*
X183000Y60000D01*
X185000Y58000D01*
X183000Y56000D01*
X181000Y58000D01*
X160500Y53500D02*
X162500Y55500D01*
X164500Y53500D01*
X162500Y51500D01*
X160500Y53500D01*
X200500Y42500D02*
X202500Y44500D01*
X204500Y42500D01*
X202500Y40500D01*
X200500Y42500D01*
X230500Y148000D02*
X232500Y150000D01*
X234500Y148000D01*
X232500Y146000D01*
X230500Y148000D01*
X19500Y65500D02*
X21500Y67500D01*
X23500Y65500D01*
X21500Y63500D01*
X19500Y65500D01*
X27500Y24000D02*
X29500Y26000D01*
X31500Y24000D01*
X29500Y22000D01*
X27500Y24000D01*
X52500Y232500D02*
X54500Y234500D01*
X56500Y232500D01*
X54500Y230500D01*
X52500Y232500D01*
X98500Y236000D02*
X100500Y238000D01*
X102500Y236000D01*
X100500Y234000D01*
X98500Y236000D01*
X91500Y224500D02*
X93500Y226500D01*
X95500Y224500D01*
X93500Y222500D01*
X91500Y224500D01*
X81500Y193000D02*
X83500Y195000D01*
X85500Y193000D01*
X83500Y191000D01*
X81500Y193000D01*
X121500Y144500D02*
X123500Y146500D01*
X125500Y144500D01*
X123500Y142500D01*
X121500Y144500D01*
X146271Y121271D02*
X148271Y123271D01*
X150271Y121271D01*
X148271Y119271D01*
X146271Y121271D01*
X144000Y126000D02*
X146000Y128000D01*
X148000Y126000D01*
X146000Y124000D01*
X144000Y126000D01*
X234634Y148000D02*
X236634Y150000D01*
X238634Y148000D01*
X236634Y146000D01*
X234634Y148000D01*
X167000Y104000D02*
X169000Y106000D01*
X171000Y104000D01*
X169000Y102000D01*
X167000Y104000D01*
X50500Y162500D02*
X52500Y164500D01*
X54500Y162500D01*
X52500Y160500D01*
X50500Y162500D01*
X85000Y128000D02*
X87000Y130000D01*
X89000Y128000D01*
X87000Y126000D01*
X85000Y128000D01*
X116000Y289500D02*
X118000Y291500D01*
X120000Y289500D01*
X118000Y287500D01*
X116000Y289500D01*
X60500Y214000D02*
X62500Y216000D01*
X64500Y214000D01*
X62500Y212000D01*
X60500Y214000D01*
X128000Y91500D02*
X130000Y93500D01*
X132000Y91500D01*
X130000Y89500D01*
X128000Y91500D01*
X196500Y81500D02*
X198500Y83500D01*
X200500Y81500D01*
X198500Y79500D01*
X196500Y81500D01*
X206000Y79000D02*
X208000Y81000D01*
X210000Y79000D01*
X208000Y77000D01*
X206000Y79000D01*
X51500Y98500D02*
X53500Y100500D01*
X55500Y98500D01*
X53500Y96500D01*
X51500Y98500D01*
X42500Y51500D02*
X44500Y53500D01*
X46500Y51500D01*
X44500Y49500D01*
X42500Y51500D01*
X190500Y32500D02*
X192500Y34500D01*
X194500Y32500D01*
X192500Y30500D01*
X190500Y32500D01*
X187500Y24000D02*
X189500Y26000D01*
X191500Y24000D01*
X189500Y22000D01*
X187500Y24000D01*
X190500Y81000D02*
X192500Y83000D01*
X194500Y81000D01*
X192500Y79000D01*
X190500Y81000D01*
X169000D02*
X171000Y83000D01*
X173000Y81000D01*
X171000Y79000D01*
X169000Y81000D01*
X193500Y23000D02*
X195500Y25000D01*
X197500Y23000D01*
X195500Y21000D01*
X193500Y23000D01*
D72*
X217500Y15000D02*
X217271Y15929D01*
X216636Y16646D01*
X215741Y16985D01*
X214791Y16870D01*
X214003Y16326D01*
X213558Y15479D01*
Y14521D01*
X214003Y13674D01*
X214791Y13130D01*
X215741Y13015D01*
X216636Y13354D01*
X217271Y14071D01*
X217500Y15000D01*
X207500D02*
X207271Y15929D01*
X206636Y16646D01*
X205741Y16985D01*
X204791Y16870D01*
X204003Y16326D01*
X203558Y15479D01*
Y14521D01*
X204003Y13674D01*
X204791Y13130D01*
X205741Y13015D01*
X206636Y13354D01*
X207271Y14071D01*
X207500Y15000D01*
X197500D02*
X197271Y15929D01*
X196636Y16646D01*
X195741Y16985D01*
X194791Y16870D01*
X194003Y16326D01*
X193558Y15479D01*
Y14521D01*
X194003Y13674D01*
X194791Y13130D01*
X195741Y13015D01*
X196636Y13354D01*
X197271Y14071D01*
X197500Y15000D01*
X187500D02*
X187271Y15929D01*
X186636Y16646D01*
X185741Y16985D01*
X184791Y16870D01*
X184003Y16326D01*
X183558Y15479D01*
Y14521D01*
X184003Y13674D01*
X184791Y13130D01*
X185741Y13015D01*
X186636Y13354D01*
X187271Y14071D01*
X187500Y15000D01*
X177500D02*
X177271Y15929D01*
X176636Y16646D01*
X175741Y16985D01*
X174791Y16870D01*
X174003Y16326D01*
X173558Y15479D01*
Y14521D01*
X174003Y13674D01*
X174791Y13130D01*
X175741Y13015D01*
X176636Y13354D01*
X177271Y14071D01*
X177500Y15000D01*
X167500D02*
X167271Y15929D01*
X166636Y16646D01*
X165741Y16985D01*
X164791Y16870D01*
X164003Y16326D01*
X163558Y15479D01*
Y14521D01*
X164003Y13674D01*
X164791Y13130D01*
X165741Y13015D01*
X166636Y13354D01*
X167271Y14071D01*
X167500Y15000D01*
M02*
