G04*
G04 #@! TF.GenerationSoftware,Altium Limited,Altium Designer,23.4.1 (23)*
G04*
G04 Layer_Color=32768*
%FSLAX25Y25*%
%MOIN*%
G70*
G04*
G04 #@! TF.SameCoordinates,09768D10-58BE-4D6D-BEFF-C0C13B30395A*
G04*
G04*
G04 #@! TF.FilePolarity,Positive*
G04*
G01*
G75*
%ADD70C,0.00394*%
%ADD71C,0.00197*%
D70*
X176752Y34535D02*
X189449D01*
X193681Y38768D01*
Y47232D01*
X189449Y51465D02*
X193681Y47232D01*
X176752Y51465D02*
X189449D01*
X176752Y34535D02*
Y51465D01*
X106539Y221913D02*
X111461D01*
Y229787D01*
X106539D02*
X111461D01*
X106539Y221913D02*
Y229787D01*
Y41413D02*
Y49287D01*
X111461D01*
Y41413D02*
Y49287D01*
X106539Y41413D02*
X111461D01*
X30559Y3961D02*
Y7961D01*
X28559Y5961D02*
X32559D01*
X36791Y72039D02*
X44665D01*
X36791D02*
Y76961D01*
X44665D01*
Y72039D02*
Y76961D01*
X40335Y106961D02*
X48209D01*
Y102039D02*
Y106961D01*
X40335Y102039D02*
X48209D01*
X40335D02*
Y106961D01*
X59094Y4563D02*
X70906D01*
X59094D02*
Y12437D01*
X70906D01*
Y4563D02*
Y12437D01*
X68051Y4563D02*
X70906Y7417D01*
X33807Y165035D02*
X46504D01*
X50736Y169268D01*
Y177732D01*
X46504Y181965D02*
X50736Y177732D01*
X33807Y181965D02*
X46504D01*
X33807Y165035D02*
Y181965D01*
X35382Y201205D02*
X49161D01*
X35382D02*
Y226795D01*
X49161D01*
Y201205D02*
Y226795D01*
X40106Y201205D02*
X49161Y210260D01*
X33807Y246035D02*
X46504D01*
X50736Y250268D01*
Y258732D01*
X46504Y262965D02*
X50736Y258732D01*
X33807Y262965D02*
X46504D01*
X33807Y246035D02*
Y262965D01*
D71*
X146161Y56402D02*
X157697D01*
X146161Y50598D02*
X157697D01*
Y56402D01*
X146161Y50598D02*
Y56402D01*
X200661D02*
X212197D01*
X200661Y50598D02*
X212197D01*
Y56402D01*
X200661Y50598D02*
Y56402D01*
X224732Y67098D02*
X236268D01*
X224732Y72902D02*
X236268D01*
X224732Y67098D02*
Y72902D01*
X236268Y67098D02*
Y72902D01*
X225232Y100902D02*
X236768D01*
X225232Y95098D02*
X236768D01*
Y100902D01*
X225232Y95098D02*
Y100902D01*
X94472Y148346D02*
Y173937D01*
Y148346D02*
X127937D01*
Y173937D01*
X94472D02*
X127937D01*
X94472Y94846D02*
Y120437D01*
Y94846D02*
X127937D01*
Y120437D01*
X94472D02*
X127937D01*
X12843Y-5850D02*
X48276D01*
X12843Y19740D02*
X48276Y19780D01*
Y-5850D02*
Y19780D01*
X12843Y-5850D02*
Y19740D01*
X176512Y192941D02*
X218480D01*
Y180972D02*
Y192941D01*
X176512Y180972D02*
X218480D01*
X176512D02*
Y192941D01*
X91016Y292016D02*
X132984D01*
X91016D02*
Y303984D01*
X132984D01*
Y292016D02*
Y303984D01*
X186532Y260961D02*
Y272929D01*
Y260961D02*
X228500D01*
Y272929D01*
X186532D02*
X228500D01*
X186016Y280016D02*
Y291984D01*
Y280016D02*
X227984D01*
Y291984D01*
X186016D02*
X227984D01*
X225232Y89902D02*
X236768D01*
X225232Y84098D02*
X236768D01*
Y89902D01*
X225232Y84098D02*
Y89902D01*
Y106098D02*
X236768D01*
X225232Y111902D02*
X236768D01*
X225232Y106098D02*
Y111902D01*
X236768Y106098D02*
Y111902D01*
X136732Y168902D02*
X148268D01*
X136732Y163098D02*
X148268D01*
Y168902D01*
X136732Y163098D02*
Y168902D01*
Y143902D02*
X148268D01*
X136732Y138098D02*
X148268D01*
Y143902D01*
X136732Y138098D02*
Y143902D01*
X55264Y33937D02*
X68256D01*
Y26063D02*
Y33937D01*
X55264Y26063D02*
X68256D01*
X55264D02*
Y33937D01*
X55764Y44563D02*
X68756D01*
X55764D02*
Y52437D01*
X68756D01*
Y44563D02*
Y52437D01*
X67764Y230760D02*
X81346D01*
X67764D02*
Y238240D01*
X81346D01*
Y230760D02*
Y238240D01*
X67764Y191063D02*
X80756D01*
X67764D02*
Y198937D01*
X80756D01*
Y191063D02*
Y198937D01*
X21028Y280264D02*
Y304870D01*
X52130D01*
Y280264D02*
Y304870D01*
X21028Y280264D02*
X52130D01*
M02*
