G04*
G04 #@! TF.GenerationSoftware,Altium Limited,Altium Designer,23.4.1 (23)*
G04*
G04 Layer_Color=16711935*
%FSLAX25Y25*%
%MOIN*%
G70*
G04*
G04 #@! TF.SameCoordinates,3121AE9F-DB6A-48AE-AC32-4FE8ED9D71C7*
G04*
G04*
G04 #@! TF.FilePolarity,Negative*
G04*
G01*
G75*
%ADD31C,0.06698*%
%ADD32R,0.06698X0.06698*%
%ADD33C,0.02572*%
%ADD34R,0.06824X0.06824*%
%ADD35C,0.06824*%
%ADD36C,0.06800*%
%ADD37R,0.06706X0.06706*%
%ADD38C,0.06706*%
%ADD39C,0.06737*%
%ADD40C,0.03556*%
G36*
X19339Y1426D02*
X13603D01*
Y10488D01*
X19339D01*
Y1426D01*
D02*
G37*
G36*
X47488Y1424D02*
X41801D01*
Y10488D01*
X47488D01*
Y1424D01*
D02*
G37*
D31*
X98409Y152283D02*
D03*
X124000D02*
D03*
Y170000D02*
D03*
X98409Y98783D02*
D03*
X124000D02*
D03*
Y116500D02*
D03*
D32*
X98409Y170000D02*
D03*
Y116500D02*
D03*
D33*
X16484Y5961D02*
D03*
X44634D02*
D03*
D34*
X182496Y186957D02*
D03*
X127000Y298000D02*
D03*
X192516Y266945D02*
D03*
X192000Y286000D02*
D03*
D35*
X192496Y186957D02*
D03*
X202496D02*
D03*
X212496D02*
D03*
X117000Y298000D02*
D03*
X107000D02*
D03*
X97000D02*
D03*
X222516Y266945D02*
D03*
X212516D02*
D03*
X202516D02*
D03*
X222000Y286000D02*
D03*
X212000D02*
D03*
X202000D02*
D03*
D36*
X8500Y28000D02*
D03*
Y317000D02*
D03*
X233000D02*
D03*
X232500Y26500D02*
D03*
D37*
X215500Y15000D02*
D03*
D38*
X205500D02*
D03*
X195500D02*
D03*
X185500D02*
D03*
X175500D02*
D03*
X165500D02*
D03*
D39*
X31657Y290500D02*
D03*
X41500D02*
D03*
D40*
X104000Y305000D02*
D03*
X139658Y95158D02*
D03*
X125882Y195000D02*
D03*
X113435Y264935D02*
D03*
X145500Y88000D02*
D03*
X205000Y120500D02*
D03*
X201500Y125496D02*
D03*
X43500Y55000D02*
D03*
X53500Y95000D02*
D03*
X51000Y248000D02*
D03*
Y234000D02*
D03*
X165500Y143000D02*
D03*
X152500Y142500D02*
D03*
X188000Y111000D02*
D03*
X175965Y111465D02*
D03*
X87000Y128000D02*
D03*
X52500Y162500D02*
D03*
X62500Y214000D02*
D03*
X225000Y52000D02*
D03*
X223500Y96500D02*
D03*
X235000Y118000D02*
D03*
X96500Y290000D02*
D03*
X142500Y107500D02*
D03*
X149000Y137000D02*
D03*
X93500Y157193D02*
D03*
X100500Y236000D02*
D03*
X29500Y24000D02*
D03*
X21500Y65500D02*
D03*
X158437Y145500D02*
D03*
X164500Y151500D02*
D03*
X205500Y87500D02*
D03*
M02*
