G04*
G04 #@! TF.GenerationSoftware,Altium Limited,Altium Designer,23.4.1 (23)*
G04*
G04 Layer_Color=32896*
%FSLAX25Y25*%
%MOIN*%
G70*
G04*
G04 #@! TF.SameCoordinates,09768D10-58BE-4D6D-BEFF-C0C13B30395A*
G04*
G04*
G04 #@! TF.FilePolarity,Positive*
G04*
G01*
G75*
%ADD71C,0.00197*%
D71*
X169961Y32173D02*
X200472D01*
X169961D02*
Y53827D01*
X200472D01*
Y32173D02*
Y53827D01*
X105496Y220102D02*
X112504D01*
Y231598D01*
X105496D02*
X112504D01*
X105496Y220102D02*
Y231598D01*
Y39602D02*
Y51098D01*
X112504D01*
Y39602D02*
Y51098D01*
X105496Y39602D02*
X112504D01*
X34961Y70996D02*
X46496D01*
X34961D02*
Y78004D01*
X46496D01*
Y70996D02*
Y78004D01*
X38504Y108004D02*
X50039D01*
Y100996D02*
Y108004D01*
X38504Y100996D02*
X50039D01*
X38504D02*
Y108004D01*
X55846Y3382D02*
X74154D01*
X55846D02*
Y13618D01*
X74154D01*
Y3382D02*
Y13618D01*
X27016Y162673D02*
X57528D01*
X27016D02*
Y184327D01*
X57528D01*
Y162673D02*
Y184327D01*
X25441Y199827D02*
X59102D01*
X25441D02*
Y228173D01*
X59102D01*
Y199827D02*
Y228173D01*
X27016Y243673D02*
X57528D01*
X27016D02*
Y265327D01*
X57528D01*
Y243673D02*
Y265327D01*
M02*
