G04*
G04 #@! TF.GenerationSoftware,Altium Limited,Altium Designer,23.4.1 (23)*
G04*
G04 Layer_Physical_Order=1*
G04 Layer_Color=255*
%FSLAX44Y44*%
%MOMM*%
G71*
G04*
G04 #@! TF.SameCoordinates,F2A16652-085B-4F69-B410-D4E0E0FCB8A4*
G04*
G04*
G04 #@! TF.FilePolarity,Positive*
G04*
G01*
G75*
%ADD13C,0.2540*%
%ADD15R,3.0500X1.8000*%
%ADD16R,1.4700X1.0200*%
G04:AMPARAMS|DCode=17|XSize=2.2mm|YSize=1.2mm|CornerRadius=0.12mm|HoleSize=0mm|Usage=FLASHONLY|Rotation=180.000|XOffset=0mm|YOffset=0mm|HoleType=Round|Shape=RoundedRectangle|*
%AMROUNDEDRECTD17*
21,1,2.2000,0.9600,0,0,180.0*
21,1,1.9600,1.2000,0,0,180.0*
1,1,0.2400,-0.9800,0.4800*
1,1,0.2400,0.9800,0.4800*
1,1,0.2400,0.9800,-0.4800*
1,1,0.2400,-0.9800,-0.4800*
%
%ADD17ROUNDEDRECTD17*%
G04:AMPARAMS|DCode=18|XSize=1.6mm|YSize=1.2mm|CornerRadius=0.12mm|HoleSize=0mm|Usage=FLASHONLY|Rotation=270.000|XOffset=0mm|YOffset=0mm|HoleType=Round|Shape=RoundedRectangle|*
%AMROUNDEDRECTD18*
21,1,1.6000,0.9600,0,0,270.0*
21,1,1.3600,1.2000,0,0,270.0*
1,1,0.2400,-0.4800,-0.6800*
1,1,0.2400,-0.4800,0.6800*
1,1,0.2400,0.4800,0.6800*
1,1,0.2400,0.4800,-0.6800*
%
%ADD18ROUNDEDRECTD18*%
%ADD19R,1.4500X1.0000*%
%ADD20R,1.0000X1.4500*%
%ADD21R,1.2700X0.5588*%
%ADD22R,0.7000X1.4000*%
%ADD23R,0.4000X1.4000*%
%ADD24R,1.9000X2.0000*%
%ADD25R,0.9900X1.4700*%
%ADD26R,0.9000X1.4500*%
%ADD27R,1.5500X1.4500*%
%ADD28R,1.0500X1.4000*%
%ADD29R,1.7500X0.9500*%
%ADD30R,1.7500X3.2000*%
%ADD57R,0.1000X0.1000*%
%ADD58C,0.7000*%
%ADD59C,0.3000*%
%ADD60C,0.5000*%
%ADD61C,0.2794*%
%ADD62C,0.2740*%
%ADD63C,1.4980*%
%ADD64R,1.4980X1.4980*%
%ADD65C,0.4500*%
%ADD66R,1.5300X1.5300*%
%ADD67C,1.5300*%
%ADD68C,1.5240*%
%ADD69R,1.5000X1.5000*%
%ADD70C,1.5000*%
%ADD71C,1.5080*%
%ADD72C,0.7000*%
G36*
X609600Y830580D02*
X607060Y828040D01*
Y816130D01*
X605845Y815762D01*
X605444Y816361D01*
X603001Y818804D01*
X600128Y820724D01*
X596936Y822046D01*
X593548Y822720D01*
X590093D01*
X586704Y822046D01*
X583512Y820724D01*
X580639Y818804D01*
X578196Y816361D01*
X576276Y813488D01*
X574954Y810296D01*
X574280Y806908D01*
Y803453D01*
X574954Y800064D01*
X576276Y796872D01*
X578196Y793999D01*
X580639Y791556D01*
X583512Y789636D01*
X586704Y788314D01*
X590093Y787640D01*
X593548D01*
X596936Y788314D01*
X600128Y789636D01*
X603001Y791556D01*
X605444Y793999D01*
X605845Y794598D01*
X607060Y794230D01*
Y76458D01*
X605790Y76073D01*
X604174Y78491D01*
X601731Y80934D01*
X598858Y82854D01*
X595666Y84176D01*
X592277Y84850D01*
X588823D01*
X585434Y84176D01*
X582242Y82854D01*
X579369Y80934D01*
X576926Y78491D01*
X575006Y75618D01*
X573684Y72426D01*
X573010Y69037D01*
Y65582D01*
X573684Y62194D01*
X575006Y59002D01*
X576926Y56129D01*
X579369Y53686D01*
X582242Y51766D01*
X585434Y50444D01*
X588823Y49770D01*
X592277D01*
X595666Y50444D01*
X598858Y51766D01*
X601731Y53686D01*
X604174Y56129D01*
X605790Y58547D01*
X607060Y58162D01*
Y3810D01*
X118756D01*
X118659Y3934D01*
X118355Y5094D01*
X118565Y5274D01*
X118607Y5327D01*
X118664Y5362D01*
X118864Y5552D01*
X118903Y5608D01*
X118958Y5646D01*
X119148Y5846D01*
X119184Y5903D01*
X119236Y5945D01*
X119416Y6155D01*
X119434Y6187D01*
X119463Y6211D01*
X119633Y6421D01*
X119695Y6539D01*
X119789Y6635D01*
X119939Y6865D01*
X119939Y6865D01*
X119939Y6865D01*
X120089Y7095D01*
X120137Y7215D01*
X120218Y7315D01*
X120348Y7565D01*
X120353Y7585D01*
X120366Y7602D01*
X120486Y7842D01*
X120520Y7964D01*
X120587Y8070D01*
X120687Y8330D01*
X120695Y8374D01*
X120717Y8413D01*
X120807Y8673D01*
X120814Y8718D01*
X120835Y8758D01*
X120915Y9018D01*
X120921Y9077D01*
X120947Y9130D01*
X121017Y9400D01*
X121022Y9492D01*
X121056Y9578D01*
X121107Y9848D01*
X121105Y9944D01*
X121134Y10034D01*
X121164Y10304D01*
X121159Y10355D01*
X121173Y10405D01*
X121193Y10685D01*
X121187Y10730D01*
X121198Y10774D01*
X121208Y11044D01*
X121200Y11092D01*
X121210Y11140D01*
Y19140D01*
X121200Y19188D01*
X121208Y19236D01*
X121198Y19506D01*
X121187Y19550D01*
X121193Y19595D01*
X121173Y19875D01*
X121159Y19925D01*
X121164Y19976D01*
X121134Y20246D01*
X121105Y20336D01*
X121107Y20431D01*
X121056Y20701D01*
X121022Y20787D01*
X121017Y20880D01*
X120947Y21150D01*
X120921Y21203D01*
X120915Y21262D01*
X120835Y21522D01*
X120814Y21562D01*
X120807Y21607D01*
X120717Y21867D01*
X120695Y21906D01*
X120687Y21950D01*
X120587Y22210D01*
X120520Y22317D01*
X120486Y22438D01*
X120366Y22678D01*
X120353Y22695D01*
X120348Y22715D01*
X120218Y22965D01*
X120137Y23065D01*
X120089Y23185D01*
X119939Y23415D01*
X119939Y23415D01*
X119939Y23415D01*
X119789Y23645D01*
X119695Y23741D01*
X119633Y23860D01*
X119463Y24069D01*
X119434Y24093D01*
X119416Y24125D01*
X119236Y24335D01*
X119184Y24377D01*
X119148Y24434D01*
X118958Y24634D01*
X118903Y24673D01*
X118864Y24727D01*
X118664Y24918D01*
X118607Y24953D01*
X118565Y25006D01*
X118355Y25186D01*
X118323Y25204D01*
X118300Y25233D01*
X118090Y25403D01*
X117971Y25465D01*
X117875Y25559D01*
X117645Y25709D01*
X117621Y25719D01*
X117603Y25736D01*
X117362Y25886D01*
X117286Y25915D01*
X117223Y25967D01*
X116983Y26097D01*
X116942Y26110D01*
X116908Y26136D01*
X116668Y26256D01*
X116546Y26290D01*
X116440Y26357D01*
X116180Y26457D01*
X116136Y26465D01*
X116097Y26487D01*
X115837Y26577D01*
X115792Y26583D01*
X115752Y26605D01*
X115492Y26685D01*
X115433Y26691D01*
X115380Y26717D01*
X115110Y26787D01*
X115017Y26792D01*
X114931Y26827D01*
X114662Y26876D01*
X114566Y26875D01*
X114476Y26904D01*
X114206Y26934D01*
X114155Y26930D01*
X114105Y26943D01*
X113825Y26963D01*
X113780Y26957D01*
X113736Y26968D01*
X113466Y26978D01*
X113370Y26963D01*
X113274Y26978D01*
X113004Y26968D01*
X112960Y26957D01*
X112915Y26963D01*
X112635Y26943D01*
X112585Y26930D01*
X112534Y26934D01*
X112264Y26904D01*
X112174Y26875D01*
X112079Y26876D01*
X111809Y26827D01*
X111723Y26792D01*
X111630Y26787D01*
X111360Y26717D01*
X111307Y26691D01*
X111248Y26685D01*
X110988Y26605D01*
X110948Y26583D01*
X110903Y26577D01*
X110643Y26487D01*
X110604Y26465D01*
X110560Y26457D01*
X110300Y26357D01*
X110194Y26290D01*
X110072Y26256D01*
X109832Y26136D01*
X109798Y26110D01*
X109757Y26097D01*
X109517Y25967D01*
X109454Y25915D01*
X109378Y25886D01*
X109138Y25736D01*
X109119Y25719D01*
X109095Y25709D01*
X108865Y25559D01*
X108769Y25465D01*
X108651Y25403D01*
X108441Y25233D01*
X108417Y25205D01*
X108385Y25186D01*
X108175Y25006D01*
X108133Y24953D01*
X108076Y24918D01*
X107876Y24727D01*
X107837Y24672D01*
X107782Y24634D01*
X107592Y24434D01*
X107556Y24377D01*
X107504Y24335D01*
X107324Y24125D01*
X107306Y24093D01*
X107277Y24069D01*
X107107Y23860D01*
X107045Y23741D01*
X106951Y23645D01*
X106801Y23415D01*
X106791Y23391D01*
X106774Y23373D01*
X106624Y23133D01*
X106595Y23056D01*
X106543Y22993D01*
X106413Y22753D01*
X106400Y22712D01*
X106374Y22678D01*
X106254Y22438D01*
X106220Y22316D01*
X106153Y22210D01*
X106053Y21950D01*
X106045Y21906D01*
X106023Y21867D01*
X105933Y21607D01*
X105927Y21562D01*
X105905Y21522D01*
X105825Y21262D01*
X105819Y21203D01*
X105793Y21150D01*
X105723Y20880D01*
X105718Y20787D01*
X105683Y20701D01*
X105633Y20431D01*
X105635Y20336D01*
X105606Y20246D01*
X105576Y19976D01*
X105581Y19924D01*
X105567Y19875D01*
X105547Y19595D01*
X105553Y19550D01*
X105542Y19506D01*
X105532Y19236D01*
X105540Y19188D01*
X105530Y19140D01*
Y11140D01*
X105540Y11092D01*
X105532Y11044D01*
X105542Y10774D01*
X105553Y10730D01*
X105547Y10685D01*
X105567Y10405D01*
X105581Y10355D01*
X105576Y10304D01*
X105606Y10034D01*
X105635Y9944D01*
X105633Y9848D01*
X105683Y9578D01*
X105718Y9492D01*
X105723Y9400D01*
X105793Y9130D01*
X105819Y9077D01*
X105825Y9018D01*
X105905Y8758D01*
X105927Y8718D01*
X105933Y8673D01*
X106023Y8413D01*
X106045Y8374D01*
X106053Y8330D01*
X106153Y8070D01*
X106220Y7964D01*
X106254Y7842D01*
X106374Y7602D01*
X106400Y7568D01*
X106413Y7527D01*
X106543Y7287D01*
X106595Y7224D01*
X106624Y7147D01*
X106774Y6907D01*
X106791Y6889D01*
X106801Y6865D01*
X106951Y6635D01*
X107045Y6539D01*
X107107Y6421D01*
X107277Y6211D01*
X107306Y6187D01*
X107324Y6155D01*
X107504Y5944D01*
X107557Y5903D01*
X107592Y5846D01*
X107782Y5646D01*
X107837Y5608D01*
X107876Y5552D01*
X108076Y5362D01*
X108133Y5326D01*
X108175Y5274D01*
X108385Y5094D01*
X108081Y3934D01*
X107985Y3810D01*
X101660D01*
Y25855D01*
X102359Y25994D01*
X103661Y26864D01*
X143130Y66333D01*
X144267D01*
X144267Y66333D01*
X144267Y66333D01*
X144656Y66410D01*
X154410D01*
Y85990D01*
X140330D01*
Y74135D01*
X139931Y74055D01*
X138628Y73185D01*
X99160Y33717D01*
X96660D01*
Y39370D01*
X90620D01*
Y41910D01*
X96660D01*
Y50180D01*
X94505D01*
Y70670D01*
X94209Y72157D01*
X93367Y73417D01*
X85165Y81619D01*
Y109317D01*
X86711Y110863D01*
X87884Y110377D01*
Y105918D01*
X105664D01*
Y107367D01*
X111050D01*
X111151Y106863D01*
X112485Y104865D01*
X125185Y92165D01*
X127183Y90830D01*
X129540Y90362D01*
X163791D01*
X166989Y87163D01*
X166503Y85990D01*
X159330D01*
Y66410D01*
X159537D01*
X160343Y65428D01*
X160212Y64770D01*
Y49541D01*
X150585Y39915D01*
X149250Y37917D01*
X148782Y35560D01*
Y34290D01*
X148864Y33878D01*
X148294Y33026D01*
X147981Y31450D01*
Y31380D01*
X141810D01*
Y11800D01*
X162390D01*
Y31380D01*
X161671D01*
X160772Y32650D01*
X160780Y32691D01*
X170372Y42283D01*
X171642Y41783D01*
Y35560D01*
X172111Y33203D01*
X172580Y32500D01*
X171982Y31380D01*
X167810D01*
Y11800D01*
X188390D01*
Y31380D01*
X183618D01*
X183020Y32500D01*
X183489Y33203D01*
X183958Y35560D01*
Y85062D01*
X183489Y87419D01*
X182155Y89417D01*
X170697Y100875D01*
X168699Y102210D01*
X166342Y102678D01*
X132091D01*
X121195Y113575D01*
X119197Y114909D01*
X116840Y115378D01*
X115806Y115173D01*
X114808Y115371D01*
X113629Y115137D01*
X105664D01*
Y116765D01*
X132432D01*
X139815Y109383D01*
X141075Y108541D01*
X142562Y108245D01*
X159330D01*
X160817Y108541D01*
X160817Y108541D01*
X160817Y108541D01*
X162077Y109383D01*
X166094Y113400D01*
X166370D01*
Y121920D01*
X160600D01*
Y118894D01*
X157721Y116014D01*
X155680D01*
Y132980D01*
X141600D01*
Y127075D01*
X140295D01*
X117613Y149757D01*
X116353Y150599D01*
X114866Y150895D01*
X99204D01*
X97717Y150599D01*
X96457Y149757D01*
X80929Y134229D01*
X79756Y134715D01*
Y135382D01*
X74880D01*
Y144384D01*
X109836Y179340D01*
X119140D01*
Y199120D01*
X104160D01*
Y186043D01*
X104010Y185943D01*
X102740Y186622D01*
Y187960D01*
X96520D01*
Y179340D01*
X96823D01*
X97309Y178167D01*
X68028Y148885D01*
X67157Y147583D01*
X66852Y146046D01*
Y135382D01*
X61976D01*
Y134035D01*
X55784D01*
X55118Y134167D01*
X53542Y133854D01*
X52205Y132961D01*
X38988Y119743D01*
X38095Y118407D01*
X37781Y116830D01*
Y85100D01*
X38095Y83523D01*
X38988Y82187D01*
X60501Y60674D01*
Y50180D01*
X58580D01*
Y31100D01*
X63553D01*
X65800Y28853D01*
X65314Y27680D01*
X53580D01*
Y3810D01*
X47256D01*
X47159Y3934D01*
X46855Y5094D01*
X47065Y5274D01*
X47107Y5326D01*
X47164Y5362D01*
X47364Y5552D01*
X47403Y5608D01*
X47458Y5646D01*
X47648Y5846D01*
X47684Y5903D01*
X47736Y5944D01*
X47916Y6155D01*
X47934Y6187D01*
X47963Y6211D01*
X48133Y6421D01*
X48195Y6539D01*
X48289Y6635D01*
X48439Y6865D01*
X48449Y6889D01*
X48466Y6907D01*
X48616Y7147D01*
X48645Y7224D01*
X48697Y7287D01*
X48827Y7527D01*
X48840Y7568D01*
X48866Y7602D01*
X48986Y7842D01*
X49020Y7964D01*
X49087Y8070D01*
X49187Y8330D01*
X49195Y8374D01*
X49217Y8413D01*
X49307Y8673D01*
X49314Y8718D01*
X49335Y8758D01*
X49415Y9018D01*
X49421Y9077D01*
X49447Y9130D01*
X49517Y9400D01*
X49522Y9492D01*
X49556Y9578D01*
X49606Y9848D01*
X49605Y9944D01*
X49634Y10034D01*
X49664Y10304D01*
X49660Y10355D01*
X49673Y10405D01*
X49693Y10685D01*
X49688Y10730D01*
X49698Y10774D01*
X49708Y11044D01*
X49700Y11092D01*
X49710Y11140D01*
Y19140D01*
X49700Y19188D01*
X49708Y19236D01*
X49698Y19506D01*
X49688Y19550D01*
X49693Y19595D01*
X49673Y19875D01*
X49660Y19925D01*
X49664Y19976D01*
X49634Y20246D01*
X49605Y20336D01*
X49606Y20431D01*
X49556Y20701D01*
X49522Y20787D01*
X49517Y20880D01*
X49447Y21150D01*
X49421Y21203D01*
X49415Y21262D01*
X49335Y21522D01*
X49314Y21562D01*
X49307Y21607D01*
X49217Y21867D01*
X49195Y21906D01*
X49187Y21950D01*
X49087Y22210D01*
X49020Y22316D01*
X48986Y22438D01*
X48866Y22678D01*
X48840Y22712D01*
X48827Y22753D01*
X48697Y22993D01*
X48645Y23056D01*
X48616Y23133D01*
X48466Y23373D01*
X48449Y23391D01*
X48439Y23415D01*
X48289Y23645D01*
X48195Y23741D01*
X48133Y23860D01*
X47963Y24069D01*
X47934Y24093D01*
X47916Y24125D01*
X47736Y24335D01*
X47683Y24377D01*
X47648Y24434D01*
X47458Y24634D01*
X47403Y24673D01*
X47364Y24727D01*
X47164Y24918D01*
X47107Y24953D01*
X47065Y25006D01*
X46855Y25186D01*
X46823Y25205D01*
X46799Y25233D01*
X46589Y25403D01*
X46471Y25465D01*
X46375Y25559D01*
X46145Y25709D01*
X46121Y25719D01*
X46102Y25736D01*
X45862Y25886D01*
X45786Y25915D01*
X45723Y25967D01*
X45483Y26097D01*
X45442Y26110D01*
X45408Y26136D01*
X45168Y26256D01*
X45047Y26290D01*
X44940Y26357D01*
X44680Y26457D01*
X44636Y26465D01*
X44597Y26487D01*
X44337Y26577D01*
X44292Y26583D01*
X44252Y26605D01*
X43992Y26685D01*
X43933Y26691D01*
X43880Y26717D01*
X43610Y26787D01*
X43517Y26792D01*
X43432Y26827D01*
X43162Y26876D01*
X43067Y26875D01*
X42976Y26904D01*
X42706Y26934D01*
X42654Y26930D01*
X42605Y26943D01*
X42325Y26963D01*
X42280Y26957D01*
X42236Y26968D01*
X41966Y26978D01*
X41870Y26963D01*
X41774Y26978D01*
X41504Y26968D01*
X41460Y26957D01*
X41415Y26963D01*
X41135Y26943D01*
X41085Y26930D01*
X41034Y26934D01*
X40764Y26904D01*
X40673Y26875D01*
X40579Y26876D01*
X40309Y26827D01*
X40223Y26792D01*
X40130Y26787D01*
X39860Y26717D01*
X39807Y26691D01*
X39748Y26685D01*
X39488Y26605D01*
X39448Y26583D01*
X39403Y26577D01*
X39143Y26487D01*
X39104Y26465D01*
X39060Y26457D01*
X38800Y26357D01*
X38693Y26290D01*
X38572Y26256D01*
X38332Y26136D01*
X38298Y26110D01*
X38257Y26097D01*
X38017Y25967D01*
X37954Y25915D01*
X37878Y25886D01*
X37638Y25736D01*
X37619Y25719D01*
X37595Y25709D01*
X37365Y25559D01*
X37269Y25465D01*
X37150Y25403D01*
X36941Y25233D01*
X36917Y25204D01*
X36885Y25186D01*
X36675Y25006D01*
X36633Y24953D01*
X36576Y24918D01*
X36376Y24727D01*
X36337Y24673D01*
X36282Y24634D01*
X36137Y24480D01*
X35880D01*
Y24191D01*
X35824Y24125D01*
X35806Y24093D01*
X35777Y24069D01*
X35607Y23860D01*
X35545Y23741D01*
X35451Y23645D01*
X35301Y23415D01*
X35301Y23415D01*
X35301Y23415D01*
X35151Y23185D01*
X35103Y23065D01*
X35022Y22965D01*
X34892Y22715D01*
X34887Y22695D01*
X34874Y22678D01*
X34754Y22438D01*
X34720Y22317D01*
X34653Y22210D01*
X34553Y21950D01*
X34545Y21906D01*
X34523Y21867D01*
X34433Y21607D01*
X34427Y21562D01*
X34405Y21522D01*
X34325Y21262D01*
X34319Y21203D01*
X34293Y21150D01*
X34223Y20880D01*
X34218Y20787D01*
X34183Y20701D01*
X34134Y20431D01*
X34135Y20336D01*
X34106Y20246D01*
X34076Y19976D01*
X34081Y19924D01*
X34067Y19875D01*
X34047Y19595D01*
X34053Y19550D01*
X34042Y19506D01*
X34032Y19236D01*
X34040Y19188D01*
X34030Y19140D01*
Y11140D01*
X34040Y11092D01*
X34032Y11044D01*
X34042Y10774D01*
X34053Y10730D01*
X34047Y10685D01*
X34067Y10405D01*
X34081Y10355D01*
X34076Y10304D01*
X34106Y10034D01*
X34135Y9944D01*
X34134Y9848D01*
X34183Y9578D01*
X34218Y9492D01*
X34223Y9400D01*
X34293Y9130D01*
X34319Y9077D01*
X34325Y9018D01*
X34405Y8758D01*
X34427Y8718D01*
X34433Y8673D01*
X34523Y8413D01*
X34545Y8374D01*
X34553Y8330D01*
X34653Y8070D01*
X34720Y7964D01*
X34754Y7842D01*
X34874Y7602D01*
X34887Y7585D01*
X34892Y7565D01*
X35022Y7315D01*
X35103Y7215D01*
X35151Y7095D01*
X35301Y6865D01*
X35301Y6865D01*
X35301Y6865D01*
X35451Y6635D01*
X35545Y6539D01*
X35607Y6421D01*
X35777Y6211D01*
X35806Y6187D01*
X35824Y6155D01*
X36004Y5945D01*
X36057Y5903D01*
X36093Y5846D01*
X36282Y5646D01*
X36337Y5608D01*
X36376Y5552D01*
X36576Y5362D01*
X36633Y5327D01*
X36675Y5274D01*
X36885Y5094D01*
X36581Y3934D01*
X36484Y3810D01*
X1273D01*
X6Y4928D01*
X2540Y833120D01*
X607060D01*
X609600Y830580D01*
D02*
G37*
G36*
X61976Y124714D02*
X77141D01*
Y119465D01*
X74262Y116586D01*
X61976D01*
Y105918D01*
X77395D01*
Y80010D01*
X77691Y78523D01*
X78533Y77263D01*
X86735Y69061D01*
Y55928D01*
X85562Y55442D01*
X81314Y59690D01*
X74930D01*
Y60960D01*
X73660D01*
Y66972D01*
X71509Y66080D01*
X69809Y64381D01*
X69692Y64098D01*
X69000Y64021D01*
X68323Y64110D01*
X67533Y65293D01*
X46020Y86806D01*
Y115124D01*
X56957Y126061D01*
X61976D01*
Y124714D01*
D02*
G37*
G36*
X113640Y24380D02*
X113920Y24360D01*
X114190Y24330D01*
X114460Y24280D01*
X114730Y24210D01*
X114990Y24130D01*
X115250Y24040D01*
X115510Y23940D01*
X115750Y23820D01*
X115990Y23690D01*
X116230Y23540D01*
X116460Y23390D01*
X116670Y23220D01*
X116880Y23040D01*
X117080Y22850D01*
X117270Y22650D01*
X117450Y22440D01*
X117620Y22230D01*
X117770Y22000D01*
X117920Y21770D01*
X118050Y21520D01*
X118170Y21280D01*
X118270Y21020D01*
X118360Y20760D01*
X118440Y20500D01*
X118510Y20230D01*
X118560Y19960D01*
X118590Y19690D01*
X118610Y19410D01*
X118620Y19140D01*
Y15140D01*
Y11140D01*
X118610Y10870D01*
X118590Y10590D01*
X118560Y10320D01*
X118510Y10050D01*
X118440Y9780D01*
X118360Y9520D01*
X118270Y9260D01*
X118170Y9000D01*
X118050Y8760D01*
X117920Y8510D01*
X117770Y8280D01*
X117620Y8050D01*
X117450Y7840D01*
X117270Y7630D01*
X117080Y7430D01*
X116880Y7240D01*
X116670Y7060D01*
X116460Y6890D01*
X116230Y6740D01*
X115990Y6590D01*
X115750Y6460D01*
X115510Y6340D01*
X115250Y6240D01*
X114990Y6150D01*
X114730Y6070D01*
X114460Y6000D01*
X114190Y5950D01*
X113920Y5920D01*
X113640Y5900D01*
X113370Y5890D01*
X113100Y5900D01*
X112820Y5920D01*
X112550Y5950D01*
X112280Y6000D01*
X112010Y6070D01*
X111750Y6150D01*
X111490Y6240D01*
X111230Y6340D01*
X110990Y6460D01*
X110750Y6590D01*
X110510Y6740D01*
X110280Y6890D01*
X110070Y7060D01*
X109860Y7240D01*
X109660Y7430D01*
X109470Y7630D01*
X109290Y7840D01*
X109120Y8050D01*
X108970Y8280D01*
X108820Y8520D01*
X108690Y8760D01*
X108570Y9000D01*
X108470Y9260D01*
X108380Y9520D01*
X108300Y9780D01*
X108230Y10050D01*
X108180Y10320D01*
X108150Y10590D01*
X108130Y10870D01*
X108120Y11140D01*
Y15140D01*
Y19140D01*
X108130Y19410D01*
X108150Y19690D01*
X108180Y19960D01*
X108230Y20230D01*
X108300Y20500D01*
X108380Y20760D01*
X108470Y21020D01*
X108570Y21280D01*
X108690Y21520D01*
X108820Y21760D01*
X108970Y22000D01*
X109120Y22230D01*
X109290Y22440D01*
X109470Y22650D01*
X109660Y22850D01*
X109860Y23040D01*
X110070Y23220D01*
X110280Y23390D01*
X110510Y23540D01*
X110750Y23690D01*
X110990Y23820D01*
X111230Y23940D01*
X111490Y24040D01*
X111750Y24130D01*
X112010Y24210D01*
X112280Y24280D01*
X112550Y24330D01*
X112820Y24360D01*
X113100Y24380D01*
X113370Y24390D01*
X113640Y24380D01*
D02*
G37*
G36*
X42140D02*
X42420Y24360D01*
X42690Y24330D01*
X42960Y24280D01*
X43230Y24210D01*
X43490Y24130D01*
X43750Y24040D01*
X44010Y23940D01*
X44250Y23820D01*
X44490Y23690D01*
X44730Y23540D01*
X44960Y23390D01*
X45170Y23220D01*
X45380Y23040D01*
X45580Y22850D01*
X45770Y22650D01*
X45950Y22440D01*
X46120Y22230D01*
X46270Y22000D01*
X46420Y21760D01*
X46550Y21520D01*
X46670Y21280D01*
X46770Y21020D01*
X46860Y20760D01*
X46940Y20500D01*
X47010Y20230D01*
X47060Y19960D01*
X47090Y19690D01*
X47110Y19410D01*
X47120Y19140D01*
Y15140D01*
Y11140D01*
X47110Y10870D01*
X47090Y10590D01*
X47060Y10320D01*
X47010Y10050D01*
X46940Y9780D01*
X46860Y9520D01*
X46770Y9260D01*
X46670Y9000D01*
X46550Y8760D01*
X46420Y8520D01*
X46270Y8280D01*
X46120Y8050D01*
X45950Y7840D01*
X45770Y7630D01*
X45580Y7430D01*
X45380Y7240D01*
X45170Y7060D01*
X44960Y6890D01*
X44730Y6740D01*
X44490Y6590D01*
X44250Y6460D01*
X44010Y6340D01*
X43750Y6240D01*
X43490Y6150D01*
X43230Y6070D01*
X42960Y6000D01*
X42690Y5950D01*
X42420Y5920D01*
X42140Y5900D01*
X41870Y5890D01*
X41600Y5900D01*
X41320Y5920D01*
X41050Y5950D01*
X40780Y6000D01*
X40510Y6070D01*
X40250Y6150D01*
X39990Y6240D01*
X39730Y6340D01*
X39490Y6460D01*
X39250Y6590D01*
X39010Y6740D01*
X38780Y6890D01*
X38570Y7060D01*
X38360Y7240D01*
X38160Y7430D01*
X37970Y7630D01*
X37790Y7840D01*
X37620Y8050D01*
X37470Y8280D01*
X37320Y8510D01*
X37190Y8760D01*
X37070Y9000D01*
X36970Y9260D01*
X36880Y9520D01*
X36800Y9780D01*
X36730Y10050D01*
X36680Y10320D01*
X36650Y10590D01*
X36630Y10870D01*
X36620Y11140D01*
Y15140D01*
Y19140D01*
X36630Y19410D01*
X36650Y19690D01*
X36680Y19960D01*
X36730Y20230D01*
X36800Y20500D01*
X36880Y20760D01*
X36970Y21020D01*
X37070Y21280D01*
X37190Y21520D01*
X37320Y21770D01*
X37470Y22000D01*
X37620Y22230D01*
X37790Y22440D01*
X37970Y22650D01*
X38160Y22850D01*
X38360Y23040D01*
X38570Y23220D01*
X38780Y23390D01*
X39010Y23540D01*
X39250Y23690D01*
X39490Y23820D01*
X39730Y23940D01*
X39990Y24040D01*
X40250Y24130D01*
X40510Y24210D01*
X40780Y24280D01*
X41050Y24330D01*
X41320Y24360D01*
X41600Y24380D01*
X41870Y24390D01*
X42140Y24380D01*
D02*
G37*
%LPC*%
G36*
X23317Y822720D02*
X19863D01*
X16474Y822046D01*
X13282Y820724D01*
X10409Y818804D01*
X7966Y816361D01*
X6046Y813488D01*
X4724Y810296D01*
X4050Y806908D01*
Y803453D01*
X4724Y800064D01*
X6046Y796872D01*
X7966Y793999D01*
X10409Y791556D01*
X13282Y789636D01*
X16474Y788314D01*
X19863Y787640D01*
X23317D01*
X26706Y788314D01*
X29898Y789636D01*
X32771Y791556D01*
X35214Y793999D01*
X37134Y796872D01*
X38456Y800064D01*
X39130Y803453D01*
Y806908D01*
X38456Y810296D01*
X37134Y813488D01*
X35214Y816361D01*
X32771Y818804D01*
X29898Y820724D01*
X26706Y822046D01*
X23317Y822720D01*
D02*
G37*
G36*
X332770Y767110D02*
X323850D01*
Y758190D01*
X332770D01*
Y767110D01*
D02*
G37*
G36*
X321310D02*
X312390D01*
Y758190D01*
X321310D01*
Y767110D01*
D02*
G37*
G36*
X265361Y780740D02*
X262959D01*
X260739Y779820D01*
X259039Y778121D01*
X258120Y775901D01*
Y773499D01*
X259039Y771279D01*
X260739Y769579D01*
X262959Y768660D01*
X264706D01*
X265454Y767912D01*
Y765005D01*
X263626Y763177D01*
X262284Y760853D01*
X261590Y758262D01*
Y755578D01*
X262284Y752987D01*
X263626Y750663D01*
X265523Y748766D01*
X267847Y747424D01*
X270438Y746730D01*
X273122D01*
X275713Y747424D01*
X278037Y748766D01*
X279934Y750663D01*
X281276Y752987D01*
X281970Y755578D01*
Y758262D01*
X281276Y760853D01*
X279934Y763177D01*
X278037Y765074D01*
X275713Y766416D01*
X273223Y767083D01*
Y769521D01*
X272927Y771008D01*
X272085Y772268D01*
X270200Y774154D01*
Y775901D01*
X269280Y778121D01*
X267581Y779820D01*
X265361Y780740D01*
D02*
G37*
G36*
X81737Y747950D02*
X81680D01*
Y739140D01*
X90490D01*
Y739197D01*
X89803Y741761D01*
X88476Y744059D01*
X86599Y745936D01*
X84300Y747263D01*
X81737Y747950D01*
D02*
G37*
G36*
X79140D02*
X79083D01*
X76519Y747263D01*
X74221Y745936D01*
X72344Y744059D01*
X71017Y741761D01*
X70330Y739197D01*
Y739140D01*
X79140D01*
Y747950D01*
D02*
G37*
G36*
X247722Y767110D02*
X245038D01*
X242447Y766416D01*
X240123Y765074D01*
X238226Y763177D01*
X236884Y760853D01*
X236190Y758262D01*
Y755578D01*
X236884Y752987D01*
X238226Y750663D01*
X240123Y748766D01*
X241860Y747763D01*
Y741792D01*
X241689Y741721D01*
X239989Y740021D01*
X239070Y737801D01*
Y735399D01*
X239989Y733179D01*
X241689Y731479D01*
X243909Y730560D01*
X246311D01*
X248531Y731479D01*
X250231Y733179D01*
X251150Y735399D01*
Y737801D01*
X250231Y740021D01*
X249630Y740622D01*
Y747241D01*
X250313Y747424D01*
X252637Y748766D01*
X254534Y750663D01*
X255876Y752987D01*
X256570Y755578D01*
Y758262D01*
X255876Y760853D01*
X254534Y763177D01*
X252637Y765074D01*
X250313Y766416D01*
X247722Y767110D01*
D02*
G37*
G36*
X79140Y736600D02*
X70330D01*
Y736543D01*
X71017Y733979D01*
X72344Y731681D01*
X74221Y729804D01*
X76519Y728477D01*
X79083Y727790D01*
X79140D01*
Y736600D01*
D02*
G37*
G36*
X565222Y736630D02*
X562538D01*
X559947Y735936D01*
X557623Y734594D01*
X555726Y732697D01*
X554384Y730373D01*
X553690Y727782D01*
Y725098D01*
X554384Y722507D01*
X555726Y720183D01*
X557623Y718286D01*
X559947Y716944D01*
X562538Y716250D01*
X565222D01*
X567813Y716944D01*
X570137Y718286D01*
X572034Y720183D01*
X573376Y722507D01*
X574070Y725098D01*
Y727782D01*
X573376Y730373D01*
X572034Y732697D01*
X570137Y734594D01*
X567813Y735936D01*
X565222Y736630D01*
D02*
G37*
G36*
X539822D02*
X537138D01*
X534547Y735936D01*
X532223Y734594D01*
X530326Y732697D01*
X528984Y730373D01*
X528290Y727782D01*
Y725098D01*
X528984Y722507D01*
X530326Y720183D01*
X532223Y718286D01*
X534547Y716944D01*
X537138Y716250D01*
X539822D01*
X542413Y716944D01*
X544737Y718286D01*
X546634Y720183D01*
X547976Y722507D01*
X548670Y725098D01*
Y727782D01*
X547976Y730373D01*
X546634Y732697D01*
X544737Y734594D01*
X542413Y735936D01*
X539822Y736630D01*
D02*
G37*
G36*
X514422D02*
X511738D01*
X509147Y735936D01*
X506823Y734594D01*
X504926Y732697D01*
X503584Y730373D01*
X502890Y727782D01*
Y725098D01*
X503584Y722507D01*
X504926Y720183D01*
X506823Y718286D01*
X509147Y716944D01*
X511738Y716250D01*
X514422D01*
X517013Y716944D01*
X519337Y718286D01*
X521234Y720183D01*
X522576Y722507D01*
X523270Y725098D01*
Y727782D01*
X522576Y730373D01*
X521234Y732697D01*
X519337Y734594D01*
X517013Y735936D01*
X514422Y736630D01*
D02*
G37*
G36*
X497870D02*
X477490D01*
Y716250D01*
X497870D01*
Y736630D01*
D02*
G37*
G36*
X566532Y688230D02*
X563849D01*
X561257Y687535D01*
X558933Y686194D01*
X557036Y684297D01*
X555695Y681973D01*
X555000Y679381D01*
Y676698D01*
X555695Y674107D01*
X557036Y671783D01*
X558933Y669886D01*
X561257Y668544D01*
X563849Y667850D01*
X566532D01*
X569123Y668544D01*
X571447Y669886D01*
X573344Y671783D01*
X574686Y674107D01*
X575380Y676698D01*
Y679381D01*
X574686Y681973D01*
X573344Y684297D01*
X571447Y686194D01*
X569123Y687535D01*
X566532Y688230D01*
D02*
G37*
G36*
X541132D02*
X538449D01*
X535857Y687535D01*
X533533Y686194D01*
X531636Y684297D01*
X530295Y681973D01*
X529600Y679381D01*
Y676698D01*
X530295Y674107D01*
X531636Y671783D01*
X533533Y669886D01*
X535857Y668544D01*
X538449Y667850D01*
X541132D01*
X543723Y668544D01*
X546047Y669886D01*
X547944Y671783D01*
X549286Y674107D01*
X549980Y676698D01*
Y679381D01*
X549286Y681973D01*
X547944Y684297D01*
X546047Y686194D01*
X543723Y687535D01*
X541132Y688230D01*
D02*
G37*
G36*
X515732D02*
X513049D01*
X510457Y687535D01*
X508133Y686194D01*
X506236Y684297D01*
X504895Y681973D01*
X504200Y679381D01*
Y676698D01*
X504895Y674107D01*
X506236Y671783D01*
X508133Y669886D01*
X510457Y668544D01*
X513049Y667850D01*
X515732D01*
X518323Y668544D01*
X520647Y669886D01*
X522544Y671783D01*
X523886Y674107D01*
X524580Y676698D01*
Y679381D01*
X523886Y681973D01*
X522544Y684297D01*
X520647Y686194D01*
X518323Y687535D01*
X515732Y688230D01*
D02*
G37*
G36*
X499180D02*
X478800D01*
Y667850D01*
X499180D01*
Y688230D01*
D02*
G37*
G36*
X298522Y767110D02*
X295838D01*
X293247Y766416D01*
X290923Y765074D01*
X289026Y763177D01*
X287684Y760853D01*
X286990Y758262D01*
Y755578D01*
X287684Y752987D01*
X289026Y750663D01*
X290923Y748766D01*
X293002Y747566D01*
Y690116D01*
X285879Y682992D01*
X285036Y681732D01*
X284741Y680245D01*
Y678071D01*
X284704Y678055D01*
X283005Y676356D01*
X282085Y674137D01*
Y671734D01*
X283005Y669514D01*
X284704Y667815D01*
X286924Y666895D01*
X289326D01*
X291546Y667815D01*
X293246Y669514D01*
X294165Y671734D01*
Y674137D01*
X293246Y676356D01*
X292510Y677092D01*
Y678636D01*
X299634Y685760D01*
X300476Y687020D01*
X300772Y688507D01*
Y747333D01*
X301113Y747424D01*
X303437Y748766D01*
X305334Y750663D01*
X306676Y752987D01*
X307370Y755578D01*
Y758262D01*
X306676Y760853D01*
X305334Y763177D01*
X303437Y765074D01*
X301113Y766416D01*
X298522Y767110D01*
D02*
G37*
G36*
X90490Y736600D02*
X81680D01*
Y727790D01*
X81737D01*
X82522Y726896D01*
Y657970D01*
X71080D01*
Y652346D01*
X70877D01*
X68521Y651877D01*
X66523Y650542D01*
X41365Y625385D01*
X40030Y623387D01*
X39562Y621030D01*
Y477590D01*
X40030Y475233D01*
X41365Y473236D01*
X71080Y443521D01*
Y441960D01*
X87600D01*
Y452230D01*
X79789D01*
X51878Y480141D01*
Y618479D01*
X69907Y636507D01*
X71080Y636021D01*
Y634890D01*
X87600D01*
Y646430D01*
X88870D01*
Y647700D01*
X106660D01*
Y657970D01*
X94838D01*
Y729600D01*
X94838Y729600D01*
X94370Y731956D01*
X93035Y733954D01*
X90480Y736508D01*
X90490Y736543D01*
Y736600D01*
D02*
G37*
G36*
X206660Y605170D02*
X200140D01*
Y596900D01*
X206660D01*
Y605170D01*
D02*
G37*
G36*
X332770Y755650D02*
X322580D01*
X312390D01*
Y746730D01*
X318695D01*
Y610739D01*
X287923Y579967D01*
X286750Y580453D01*
Y589300D01*
X271235D01*
X261310Y599225D01*
Y600641D01*
X260390Y602861D01*
X258691Y604561D01*
X256471Y605480D01*
X254069D01*
X251849Y604561D01*
X250149Y602861D01*
X249230Y600641D01*
Y598239D01*
X250149Y596019D01*
X251267Y594901D01*
X251018Y594152D01*
X250642Y593730D01*
X250370Y593784D01*
X206660D01*
Y594360D01*
X200140D01*
Y586090D01*
X202473D01*
X202850Y586015D01*
X248761D01*
X266970Y567806D01*
Y566930D01*
X276860D01*
X286750D01*
Y567806D01*
X322049Y603105D01*
X323161Y602421D01*
Y501564D01*
X322105Y500858D01*
X320941Y501340D01*
X318539D01*
X316363Y500439D01*
X209550D01*
X207584Y500048D01*
X206430Y499277D01*
X205160Y499602D01*
Y505090D01*
X202505D01*
Y575130D01*
X202209Y576617D01*
X201367Y577877D01*
X194327Y584917D01*
X194813Y586090D01*
X197600D01*
Y595630D01*
Y605170D01*
X196574D01*
X178967Y622777D01*
X177706Y623619D01*
X176220Y623915D01*
X133873D01*
X133347Y625185D01*
X133390Y625228D01*
X133895Y625565D01*
X134232Y626070D01*
X134661Y626499D01*
X134893Y627059D01*
X135230Y627563D01*
X135348Y628158D01*
X135580Y628719D01*
Y629325D01*
X135698Y629920D01*
Y634890D01*
X143660D01*
Y657970D01*
X132029D01*
Y717410D01*
X131560Y719766D01*
X130225Y721764D01*
X115481Y736508D01*
X115490Y736543D01*
Y739197D01*
X114803Y741761D01*
X113476Y744059D01*
X111599Y745936D01*
X109301Y747263D01*
X106737Y747950D01*
X104083D01*
X101519Y747263D01*
X99221Y745936D01*
X97344Y744059D01*
X96017Y741761D01*
X95330Y739197D01*
Y736543D01*
X96017Y733979D01*
X97344Y731681D01*
X99221Y729804D01*
X101519Y728477D01*
X104083Y727790D01*
X106737D01*
X106771Y727799D01*
X119712Y714859D01*
Y657970D01*
X108080D01*
Y641988D01*
X106810Y641309D01*
X106660Y641409D01*
Y645160D01*
X90140D01*
Y634890D01*
X101166D01*
X118773Y617283D01*
X120033Y616441D01*
X121520Y616146D01*
X174611D01*
X184413Y606343D01*
X183927Y605170D01*
X172080D01*
Y586090D01*
X182166D01*
X194735Y573521D01*
Y505090D01*
X191080D01*
Y485510D01*
X205160D01*
Y490998D01*
X206430Y491323D01*
X207584Y490552D01*
X209550Y490161D01*
X316363D01*
X318539Y489260D01*
X320941D01*
X322105Y489742D01*
X323161Y489036D01*
Y445826D01*
X318555Y441221D01*
X316280Y441830D01*
X316230D01*
Y431800D01*
X313690D01*
Y441830D01*
X313640D01*
X311089Y441147D01*
X308801Y439826D01*
X306934Y437959D01*
X305621Y435685D01*
X259990D01*
Y441830D01*
X251230D01*
Y431800D01*
Y421770D01*
X259990D01*
Y427915D01*
X305621D01*
X306934Y425641D01*
X308801Y423774D01*
X311089Y422453D01*
X312345Y422117D01*
Y418030D01*
X312641Y416543D01*
X313483Y415283D01*
X323843Y404923D01*
X325103Y404081D01*
X326590Y403785D01*
X347450D01*
Y397880D01*
X353720D01*
Y407670D01*
Y417460D01*
X347450D01*
Y411555D01*
X328199D01*
X320115Y419639D01*
Y423194D01*
X321119Y423774D01*
X322986Y425641D01*
X324164Y427681D01*
X496670D01*
X498246Y427994D01*
X499583Y428887D01*
X536014Y465319D01*
X538398Y464680D01*
X538470D01*
Y473600D01*
X529550D01*
Y473528D01*
X530189Y471144D01*
X494964Y435919D01*
X326564D01*
X326078Y437093D01*
X330193Y441207D01*
X331086Y442544D01*
X331399Y444120D01*
Y604430D01*
X331086Y606006D01*
X330193Y607343D01*
X326465Y611071D01*
Y746730D01*
X332770D01*
Y755650D01*
D02*
G37*
G36*
X286750Y564390D02*
X278130D01*
Y558020D01*
X286750D01*
Y564390D01*
D02*
G37*
G36*
X275590D02*
X266970D01*
Y558020D01*
X275590D01*
Y564390D01*
D02*
G37*
G36*
X87160Y562100D02*
X64580D01*
Y525020D01*
X87160D01*
Y562100D01*
D02*
G37*
G36*
X150160Y527850D02*
X140140D01*
Y521830D01*
X150160D01*
Y527850D01*
D02*
G37*
G36*
X137600D02*
X127580D01*
Y521830D01*
X137600D01*
Y527850D01*
D02*
G37*
G36*
X150160Y550850D02*
X127580D01*
Y536270D01*
X150160D01*
Y539441D01*
X152592D01*
Y507388D01*
X142997Y497792D01*
X142010Y498602D01*
X142459Y499273D01*
X142755Y500760D01*
Y513270D01*
X150160D01*
Y519290D01*
X138870D01*
X127580D01*
Y513270D01*
X134985D01*
Y502369D01*
X100103Y467487D01*
X99261Y466226D01*
X98966Y464740D01*
Y452230D01*
X90140D01*
Y441960D01*
X106660D01*
Y448044D01*
X106735Y448420D01*
Y463131D01*
X134116Y490512D01*
X135103Y489703D01*
X134161Y488293D01*
X133692Y485937D01*
Y452230D01*
X108080D01*
Y429150D01*
X119712D01*
Y420230D01*
X120181Y417873D01*
X121516Y415875D01*
X128995Y408395D01*
X129500Y408058D01*
X129929Y407630D01*
X130489Y407397D01*
X130993Y407061D01*
X131588Y406942D01*
X132149Y406710D01*
X132755D01*
X133350Y406592D01*
X133945Y406710D01*
X134551D01*
X135112Y406942D01*
X135707Y407061D01*
X136211Y407397D01*
X136771Y407630D01*
X137200Y408058D01*
X137705Y408395D01*
X138042Y408900D01*
X138470Y409329D01*
X138703Y409889D01*
X139039Y410393D01*
X139158Y410988D01*
X139390Y411549D01*
Y412155D01*
X139508Y412750D01*
X139390Y413345D01*
Y413951D01*
X139158Y414512D01*
X139039Y415107D01*
X138703Y415611D01*
X138470Y416171D01*
X138042Y416600D01*
X137705Y417105D01*
X132029Y422781D01*
Y429150D01*
X143660D01*
Y443521D01*
X144205Y444066D01*
X145540Y446063D01*
X146009Y448420D01*
Y483386D01*
X163105Y500482D01*
X164440Y502480D01*
X164908Y504837D01*
Y543560D01*
X164790Y544155D01*
Y544761D01*
X164558Y545322D01*
X164440Y545917D01*
X164103Y546421D01*
X163871Y546981D01*
X163442Y547410D01*
X163105Y547915D01*
X162600Y548252D01*
X162171Y548680D01*
X161611Y548913D01*
X161107Y549249D01*
X160512Y549368D01*
X159951Y549600D01*
X159345D01*
X158750Y549718D01*
X158155Y549600D01*
X157549D01*
X156988Y549368D01*
X156393Y549249D01*
X155889Y548913D01*
X155329Y548680D01*
X154900Y548252D01*
X154395Y547915D01*
X154238Y547679D01*
X150160D01*
Y550850D01*
D02*
G37*
G36*
X541081Y485060D02*
X541010D01*
Y476140D01*
X549930D01*
Y476211D01*
X549235Y478803D01*
X547894Y481127D01*
X545997Y483024D01*
X543673Y484365D01*
X541081Y485060D01*
D02*
G37*
G36*
X538470D02*
X538398D01*
X535807Y484365D01*
X533483Y483024D01*
X531586Y481127D01*
X530244Y478803D01*
X529550Y476211D01*
Y476140D01*
X538470D01*
Y485060D01*
D02*
G37*
G36*
X549930Y473600D02*
X541010D01*
Y464680D01*
X541081D01*
X543673Y465374D01*
X545997Y466716D01*
X547894Y468613D01*
X549235Y470937D01*
X549930Y473528D01*
Y473600D01*
D02*
G37*
G36*
X515681Y485060D02*
X512998D01*
X510407Y484365D01*
X508083Y483024D01*
X506186Y481127D01*
X504844Y478803D01*
X504150Y476211D01*
Y473528D01*
X504844Y470937D01*
X506186Y468613D01*
X508083Y466716D01*
X510407Y465374D01*
X512998Y464680D01*
X515681D01*
X518273Y465374D01*
X520597Y466716D01*
X522494Y468613D01*
X523835Y470937D01*
X524530Y473528D01*
Y476211D01*
X523835Y478803D01*
X522494Y481127D01*
X520597Y483024D01*
X518273Y484365D01*
X515681Y485060D01*
D02*
G37*
G36*
X490281D02*
X487598D01*
X485007Y484365D01*
X482683Y483024D01*
X480786Y481127D01*
X479444Y478803D01*
X478750Y476211D01*
Y473528D01*
X479444Y470937D01*
X480786Y468613D01*
X482683Y466716D01*
X485007Y465374D01*
X487598Y464680D01*
X490281D01*
X492873Y465374D01*
X495197Y466716D01*
X497094Y468613D01*
X498435Y470937D01*
X499130Y473528D01*
Y476211D01*
X498435Y478803D01*
X497094Y481127D01*
X495197Y483024D01*
X492873Y484365D01*
X490281Y485060D01*
D02*
G37*
G36*
X248690Y441830D02*
X239930D01*
Y433070D01*
X248690D01*
Y441830D01*
D02*
G37*
G36*
Y430530D02*
X239930D01*
Y421770D01*
X248690D01*
Y430530D01*
D02*
G37*
G36*
X482610Y414130D02*
X466090D01*
Y403860D01*
X482610D01*
Y414130D01*
D02*
G37*
G36*
X362530Y406400D02*
X356260D01*
Y397880D01*
X362530D01*
Y406400D01*
D02*
G37*
G36*
X482610Y401320D02*
X466090D01*
Y391050D01*
X482610D01*
Y401320D01*
D02*
G37*
G36*
X553820Y517868D02*
X500380D01*
X498023Y517399D01*
X496025Y516064D01*
X465021Y485060D01*
X453350D01*
Y464680D01*
X473730D01*
Y476351D01*
X502931Y505552D01*
X551269D01*
X575502Y481319D01*
Y452965D01*
X540175Y417638D01*
X516960D01*
X514604Y417169D01*
X512606Y415835D01*
X511467Y414130D01*
X484030D01*
Y391050D01*
X519610D01*
Y396432D01*
X570219D01*
X589472Y377179D01*
Y373910D01*
X570600D01*
Y366525D01*
X562905D01*
X561418Y366229D01*
X560158Y365387D01*
X529616Y334846D01*
X528443Y335332D01*
Y344680D01*
X528153Y346139D01*
X527326Y347376D01*
X526089Y348203D01*
X524630Y348493D01*
X515030D01*
X513571Y348203D01*
X512333Y347376D01*
X511507Y346139D01*
X511217Y344680D01*
Y331080D01*
X511245Y330936D01*
X510444Y329961D01*
X509215D01*
X508414Y330936D01*
X508443Y331080D01*
Y344680D01*
X508153Y346139D01*
X507326Y347376D01*
X506089Y348203D01*
X504630Y348493D01*
X495030D01*
X493571Y348203D01*
X492333Y347376D01*
X491507Y346139D01*
X491217Y344680D01*
Y331080D01*
X491245Y330936D01*
X490444Y329961D01*
X489215D01*
X488415Y330936D01*
X488443Y331080D01*
Y344680D01*
X488153Y346139D01*
X487326Y347376D01*
X486089Y348203D01*
X484630Y348493D01*
X476710D01*
X459237Y365967D01*
X457976Y366809D01*
X456490Y367105D01*
X425027D01*
X423791Y368340D01*
X421571Y369260D01*
X419169D01*
X416949Y368340D01*
X415249Y366641D01*
X414895Y365785D01*
X413625Y366037D01*
Y372598D01*
X413329Y374085D01*
X412487Y375345D01*
X399756Y388075D01*
X398496Y388918D01*
X397009Y389213D01*
X388330D01*
X380836Y396707D01*
X381323Y397880D01*
X381530D01*
Y415215D01*
X440451D01*
X447030Y408636D01*
Y406475D01*
X435610D01*
X434123Y406179D01*
X432863Y405337D01*
X419100Y391574D01*
Y386080D01*
X424594D01*
X437219Y398705D01*
X447030D01*
Y391050D01*
X463550D01*
Y402590D01*
Y414130D01*
X452524D01*
X444807Y421847D01*
X443547Y422689D01*
X442060Y422985D01*
X364170D01*
X362683Y422689D01*
X361423Y421847D01*
X357036Y417460D01*
X356260D01*
Y408940D01*
X362530D01*
Y411966D01*
X365180Y414617D01*
X366450Y414090D01*
Y397880D01*
X370141D01*
X370401Y396573D01*
X371243Y395312D01*
X376453Y390103D01*
X375967Y388929D01*
X324773D01*
X324306Y390671D01*
X322986Y392958D01*
X321119Y394826D01*
X318831Y396146D01*
X316280Y396830D01*
X313640D01*
X311089Y396146D01*
X308801Y394826D01*
X306934Y392958D01*
X305756Y390919D01*
X259163D01*
X257986Y392958D01*
X256118Y394826D01*
X253831Y396146D01*
X251280Y396830D01*
X248639D01*
X246365Y396220D01*
X243530Y399055D01*
Y400471D01*
X242610Y402691D01*
X240911Y404390D01*
X238691Y405310D01*
X236289D01*
X234069Y404390D01*
X232369Y402691D01*
X231450Y400471D01*
Y398068D01*
X232369Y395848D01*
X234069Y394149D01*
X236289Y393230D01*
X237705D01*
X240539Y390395D01*
X239930Y388120D01*
Y385479D01*
X240613Y382928D01*
X241934Y380641D01*
X243801Y378774D01*
X246088Y377453D01*
X248639Y376770D01*
X251280D01*
X253831Y377453D01*
X256118Y378774D01*
X257986Y380641D01*
X259163Y382681D01*
X305756D01*
X306934Y380641D01*
X308801Y378774D01*
X311089Y377453D01*
X313640Y376770D01*
X316280D01*
X318831Y377453D01*
X321119Y378774D01*
X322986Y380641D01*
X323015Y380691D01*
X378024D01*
X389915Y368800D01*
X389195Y367723D01*
X388551Y367990D01*
X386149D01*
X383929Y367071D01*
X382800Y365942D01*
X381530Y366094D01*
Y373010D01*
X366450D01*
Y353430D01*
X373572D01*
X374098Y352160D01*
X373340Y351401D01*
X372420Y349181D01*
Y346779D01*
X373340Y344559D01*
X375039Y342859D01*
X377259Y341940D01*
X379661D01*
X381881Y342859D01*
X383117Y344095D01*
X388620D01*
X389723Y344315D01*
X389732Y344314D01*
X390720Y343684D01*
X390945Y343424D01*
Y331493D01*
X385030D01*
X383571Y331203D01*
X382333Y330377D01*
X381507Y329140D01*
X381217Y327680D01*
Y326765D01*
X367030D01*
Y328850D01*
X358510D01*
Y321310D01*
Y313770D01*
X367030D01*
Y318996D01*
X381217D01*
Y318080D01*
X381507Y316621D01*
X382333Y315384D01*
X383571Y314557D01*
X385030Y314267D01*
X393560D01*
Y322880D01*
X396100D01*
Y314267D01*
X404630D01*
X406089Y314557D01*
X407326Y315384D01*
X408153Y316621D01*
X408443Y318080D01*
Y323429D01*
X409616Y323915D01*
X421318Y312213D01*
X422578Y311371D01*
X424065Y311075D01*
X427651D01*
X448392Y290334D01*
X448388Y290314D01*
X447769Y289161D01*
X445750D01*
X443530Y288242D01*
X442294Y287006D01*
X408443D01*
Y287680D01*
X408153Y289140D01*
X407326Y290377D01*
X406089Y291203D01*
X404630Y291494D01*
X385030D01*
X383571Y291203D01*
X382333Y290377D01*
X381507Y289140D01*
X381217Y287680D01*
Y278080D01*
X381507Y276621D01*
X382333Y275384D01*
X383571Y274557D01*
X385030Y274267D01*
X404630D01*
X406089Y274557D01*
X407326Y275384D01*
X408153Y276621D01*
X408443Y278080D01*
Y279236D01*
X442294D01*
X443530Y278001D01*
X445750Y277081D01*
X448152D01*
X450372Y278001D01*
X452071Y279700D01*
X452991Y281920D01*
Y283939D01*
X454144Y284558D01*
X454164Y284562D01*
X478593Y260133D01*
X479853Y259291D01*
X481340Y258996D01*
X530737D01*
X531002Y257992D01*
X530184Y256955D01*
X459739D01*
X455907Y260787D01*
X454647Y261629D01*
X453160Y261925D01*
X408443D01*
Y267680D01*
X408153Y269140D01*
X407326Y270377D01*
X406089Y271203D01*
X404630Y271494D01*
X385030D01*
X383571Y271203D01*
X382333Y270377D01*
X381507Y269140D01*
X381217Y267680D01*
Y261961D01*
X380043Y261475D01*
X367990Y273529D01*
Y274251D01*
X367071Y276471D01*
X365371Y278171D01*
X363151Y279090D01*
X360749D01*
X358529Y278171D01*
X356829Y276471D01*
X355910Y274251D01*
Y271849D01*
X356829Y269629D01*
X358529Y267929D01*
X360749Y267010D01*
X363151D01*
X363413Y267118D01*
X380548Y249983D01*
X381460Y249374D01*
X381507Y249140D01*
X381217Y247680D01*
Y246455D01*
X363310D01*
X361824Y246159D01*
X360965Y245585D01*
X359387D01*
X358152Y246821D01*
X355932Y247740D01*
X353529D01*
X351309Y246821D01*
X349610Y245122D01*
X348690Y242902D01*
Y240499D01*
X349610Y238279D01*
X351309Y236580D01*
X353529Y235660D01*
X355932D01*
X358152Y236580D01*
X359387Y237816D01*
X362441D01*
X363927Y238111D01*
X364786Y238685D01*
X381217D01*
Y238080D01*
X381507Y236621D01*
X382333Y235384D01*
X383571Y234557D01*
X385030Y234267D01*
X404630D01*
X406089Y234557D01*
X407326Y235384D01*
X408153Y236621D01*
X408443Y238080D01*
Y243799D01*
X409616Y244285D01*
X472935Y180967D01*
X473603Y179967D01*
X474939Y179074D01*
X476515Y178761D01*
X531217D01*
Y178080D01*
X531507Y176621D01*
X532334Y175384D01*
X533571Y174557D01*
X535030Y174267D01*
X554630D01*
X556089Y174557D01*
X557326Y175384D01*
X557999Y176391D01*
X559385Y176801D01*
X560305Y175881D01*
Y170622D01*
X559990Y170363D01*
X384603D01*
X384077Y171633D01*
X386710Y174267D01*
X404630D01*
X406089Y174557D01*
X407326Y175384D01*
X408153Y176621D01*
X408443Y178080D01*
Y187680D01*
X408153Y189139D01*
X407326Y190376D01*
X406089Y191203D01*
X404630Y191493D01*
X385733D01*
X385207Y192763D01*
X386710Y194267D01*
X404630D01*
X406089Y194557D01*
X407326Y195384D01*
X408153Y196621D01*
X408443Y198080D01*
Y207680D01*
X408153Y209139D01*
X407326Y210376D01*
X406089Y211203D01*
X404630Y211493D01*
X385030D01*
X383571Y211203D01*
X382333Y210376D01*
X381507Y209139D01*
X381217Y207680D01*
Y199760D01*
X345233Y163777D01*
X344391Y162517D01*
X344095Y161030D01*
Y88900D01*
X344391Y87413D01*
X345233Y86153D01*
X378253Y53133D01*
X379513Y52291D01*
X381000Y51995D01*
X416976D01*
X419658Y49313D01*
X419172Y48140D01*
X419048D01*
X416495Y47456D01*
X414205Y46134D01*
X412336Y44265D01*
X412332Y44258D01*
X363231D01*
X295945Y111545D01*
X293947Y112880D01*
X291590Y113348D01*
X289233Y112880D01*
X288020Y112069D01*
X286750Y112748D01*
X286750Y115190D01*
X286750Y116100D01*
Y130830D01*
X280745D01*
Y224010D01*
X280449Y225496D01*
X279607Y226757D01*
X260512Y245852D01*
X260998Y247025D01*
X305621D01*
X306934Y244751D01*
X308801Y242884D01*
X311089Y241563D01*
X313640Y240880D01*
X316280D01*
X318831Y241563D01*
X321119Y242884D01*
X322986Y244751D01*
X324306Y247038D01*
X324990Y249589D01*
Y252230D01*
X324310Y254767D01*
X359987Y290443D01*
X360829Y291703D01*
X361124Y293190D01*
Y294770D01*
X367030D01*
Y298996D01*
X381217D01*
Y298080D01*
X381507Y296621D01*
X382333Y295384D01*
X383571Y294557D01*
X385030Y294267D01*
X404630D01*
X406089Y294557D01*
X407326Y295384D01*
X408153Y296621D01*
X408443Y298080D01*
Y307680D01*
X408153Y309139D01*
X407326Y310377D01*
X406089Y311203D01*
X404630Y311493D01*
X385030D01*
X383571Y311203D01*
X382333Y310377D01*
X381507Y309139D01*
X381217Y307680D01*
Y306765D01*
X367030D01*
Y309850D01*
X347450D01*
Y294770D01*
X351667D01*
X352153Y293596D01*
X318817Y260260D01*
X316280Y260940D01*
X313640D01*
X311089Y260256D01*
X308801Y258936D01*
X306934Y257068D01*
X305621Y254795D01*
X259299D01*
X257986Y257068D01*
X256118Y258936D01*
X253831Y260256D01*
X251280Y260940D01*
X248639D01*
X246088Y260256D01*
X243801Y258936D01*
X241934Y257068D01*
X240613Y254781D01*
X239930Y252230D01*
Y249589D01*
X240613Y247038D01*
X241934Y244751D01*
X243801Y242884D01*
X246088Y241563D01*
X248639Y240880D01*
X251280D01*
X253817Y241559D01*
X272975Y222401D01*
Y130830D01*
X266970D01*
X266970Y115770D01*
X266161Y114765D01*
X265700Y114728D01*
X264590Y114948D01*
X259811D01*
X247458Y127301D01*
Y140500D01*
X246989Y142857D01*
X245655Y144855D01*
X238568Y151941D01*
Y275809D01*
X248639Y285880D01*
X259990D01*
Y289752D01*
X306934D01*
X306934Y289751D01*
X308801Y287884D01*
X311089Y286563D01*
X313640Y285880D01*
X316280D01*
X318831Y286563D01*
X321119Y287884D01*
X322986Y289751D01*
X324306Y292039D01*
X324990Y294590D01*
Y297230D01*
X324306Y299781D01*
X322986Y302069D01*
X321119Y303936D01*
X321118Y303936D01*
Y323839D01*
X349795Y352515D01*
X350406Y353430D01*
X362530D01*
Y373010D01*
X347450D01*
Y363673D01*
X346206Y362876D01*
X345440Y363028D01*
X343083Y362560D01*
X341085Y361225D01*
X310605Y330745D01*
X309270Y328747D01*
X308802Y326390D01*
Y303936D01*
X308801Y303936D01*
X306934Y302069D01*
X306934Y302068D01*
X259990D01*
Y305940D01*
X248639D01*
X226145Y328434D01*
X226101Y328541D01*
X225672Y328970D01*
X225335Y329475D01*
X224830Y329812D01*
X224401Y330241D01*
X223841Y330473D01*
X223337Y330810D01*
X222742Y330928D01*
X222181Y331160D01*
X221575D01*
X220980Y331278D01*
X220385Y331160D01*
X219779D01*
X219218Y330928D01*
X218623Y330810D01*
X218119Y330473D01*
X217559Y330241D01*
X217130Y329812D01*
X216625Y329475D01*
X216288Y328970D01*
X215860Y328541D01*
X215627Y327981D01*
X215291Y327477D01*
X215172Y326882D01*
X214940Y326321D01*
Y325715D01*
X214822Y325120D01*
Y324890D01*
X214940Y324295D01*
Y323919D01*
X215084Y323571D01*
X215291Y322533D01*
X216625Y320535D01*
X239930Y297231D01*
Y294589D01*
X228055Y282715D01*
X226721Y280717D01*
X226252Y278360D01*
Y149390D01*
X226721Y147033D01*
X228055Y145035D01*
X235142Y137949D01*
Y124750D01*
X235611Y122394D01*
X236945Y120396D01*
X252906Y104435D01*
X254904Y103101D01*
X257260Y102632D01*
X264590D01*
X265700Y102852D01*
X266970Y101810D01*
Y99550D01*
X286750D01*
Y101525D01*
X288020Y102051D01*
X356325Y33745D01*
X358323Y32411D01*
X360680Y31942D01*
X412332D01*
X412336Y31935D01*
X414205Y30066D01*
X416495Y28744D01*
X419048Y28060D01*
X421692D01*
X424245Y28744D01*
X426535Y30066D01*
X428404Y31935D01*
X428624Y32316D01*
X430118Y32365D01*
X430323Y32058D01*
X435614Y26768D01*
X435127Y25595D01*
X267979D01*
X174680Y118894D01*
Y121920D01*
X168910D01*
Y113400D01*
X169186D01*
X263623Y18963D01*
X264883Y18121D01*
X266370Y17825D01*
X530980D01*
X532467Y18121D01*
X533727Y18963D01*
X542824Y28060D01*
X546100D01*
Y36830D01*
X537330D01*
Y33554D01*
X529371Y25595D01*
X456413D01*
X455926Y26768D01*
X461469Y32311D01*
X462919D01*
X463136Y31935D01*
X465005Y30066D01*
X467295Y28744D01*
X469848Y28060D01*
X472492D01*
X475045Y28744D01*
X477335Y30066D01*
X479204Y31935D01*
X480526Y34225D01*
X481210Y36778D01*
Y39422D01*
X480526Y41975D01*
X479204Y44265D01*
X477335Y46134D01*
X475045Y47456D01*
X472492Y48140D01*
X469848D01*
X467295Y47456D01*
X465005Y46134D01*
X463136Y44265D01*
X461814Y41975D01*
X461306Y40080D01*
X459860D01*
X458373Y39784D01*
X457113Y38942D01*
X456983Y38812D01*
X455810Y39298D01*
Y39422D01*
X455126Y41975D01*
X453804Y44265D01*
X451935Y46134D01*
X449645Y47456D01*
X447092Y48140D01*
X444448D01*
X441905Y47459D01*
X419307Y70057D01*
X418047Y70899D01*
X416560Y71195D01*
X380069D01*
X359485Y91779D01*
Y147323D01*
X376067Y163905D01*
X377240Y163419D01*
Y87880D01*
X377437Y86889D01*
X377999Y86049D01*
X378839Y85487D01*
X379830Y85290D01*
X555635D01*
X556121Y84117D01*
X549549Y77545D01*
X532130D01*
X530643Y77249D01*
X529383Y76407D01*
X500435Y47459D01*
X497892Y48140D01*
X495248D01*
X492695Y47456D01*
X490405Y46134D01*
X488536Y44265D01*
X487214Y41975D01*
X486530Y39422D01*
Y36778D01*
X487214Y34225D01*
X488536Y31935D01*
X490405Y30066D01*
X492695Y28744D01*
X495248Y28060D01*
X497892D01*
X500445Y28744D01*
X502735Y30066D01*
X504604Y31935D01*
X505926Y34225D01*
X506610Y36778D01*
Y39422D01*
X505929Y41965D01*
X533739Y69775D01*
X546492D01*
X546978Y68602D01*
X525835Y47459D01*
X523292Y48140D01*
X520648D01*
X518095Y47456D01*
X515805Y46134D01*
X513936Y44265D01*
X512614Y41975D01*
X511930Y39422D01*
Y36778D01*
X512614Y34225D01*
X513936Y31935D01*
X515805Y30066D01*
X518095Y28744D01*
X520648Y28060D01*
X523292D01*
X525845Y28744D01*
X528135Y30066D01*
X530004Y31935D01*
X531326Y34225D01*
X532010Y36778D01*
Y39422D01*
X531329Y41965D01*
X536157Y46793D01*
X537330Y46307D01*
Y39370D01*
X546100D01*
Y48140D01*
X539163D01*
X538677Y49313D01*
X554257Y64893D01*
X554749Y64991D01*
X556009Y65833D01*
X603087Y112911D01*
X603929Y114171D01*
X604225Y115658D01*
Y235640D01*
X603929Y237127D01*
X603087Y238387D01*
X592720Y248754D01*
Y258340D01*
X573140D01*
Y256955D01*
X559220D01*
X558415Y257937D01*
X558443Y258080D01*
Y267680D01*
X558396Y267916D01*
X559439Y269186D01*
X560990D01*
X562477Y269481D01*
X563737Y270323D01*
X577364Y283950D01*
X591450D01*
Y294832D01*
X592720Y295358D01*
X593479Y294599D01*
X595699Y293680D01*
X598101D01*
X600321Y294599D01*
X602020Y296299D01*
X602940Y298519D01*
Y300921D01*
X602020Y303141D01*
X600321Y304841D01*
X598101Y305760D01*
X595699D01*
X594592Y305302D01*
X591450Y308444D01*
Y318030D01*
X585545D01*
Y339830D01*
X590180D01*
Y349416D01*
X595076Y354312D01*
X595630Y354202D01*
X597987Y354670D01*
X599985Y356005D01*
X601320Y358003D01*
X601788Y360360D01*
Y379730D01*
X601320Y382087D01*
X599985Y384085D01*
X577125Y406945D01*
X575127Y408279D01*
X572770Y408748D01*
X550363D01*
X549877Y409922D01*
X586232Y446278D01*
X587567Y448275D01*
X588036Y450632D01*
X587818Y451728D01*
Y483870D01*
X587350Y486227D01*
X586015Y488225D01*
X558175Y516064D01*
X556177Y517399D01*
X553820Y517868D01*
D02*
G37*
G36*
X416560Y390822D02*
X414409Y389930D01*
X412710Y388231D01*
X411818Y386080D01*
X416560D01*
Y390822D01*
D02*
G37*
G36*
X423842Y383540D02*
X419100D01*
Y378798D01*
X421251Y379689D01*
X422951Y381389D01*
X423842Y383540D01*
D02*
G37*
G36*
X416560D02*
X411818D01*
X412710Y381389D01*
X414409Y379689D01*
X416560Y378798D01*
Y383540D01*
D02*
G37*
G36*
X355970Y328850D02*
X347450D01*
Y322580D01*
X355970D01*
Y328850D01*
D02*
G37*
G36*
Y320040D02*
X347450D01*
Y313770D01*
X355970D01*
Y320040D01*
D02*
G37*
G36*
X106660Y439420D02*
X88870D01*
X71080D01*
Y429150D01*
X82712D01*
Y302290D01*
X83181Y299933D01*
X84515Y297935D01*
X99785Y282665D01*
X100131Y282434D01*
Y275320D01*
X96760D01*
Y266700D01*
X104250D01*
X111740D01*
Y275320D01*
X108369D01*
Y282582D01*
X108495Y282665D01*
X109830Y284663D01*
X110298Y287020D01*
X109830Y289377D01*
X108495Y291375D01*
X95028Y304841D01*
Y429150D01*
X106660D01*
Y439420D01*
D02*
G37*
G36*
X111740Y264160D02*
X105520D01*
Y255540D01*
X111740D01*
Y264160D01*
D02*
G37*
G36*
X129540Y600518D02*
X128945Y600400D01*
X128339D01*
X127778Y600168D01*
X127183Y600050D01*
X126679Y599713D01*
X126119Y599481D01*
X125690Y599052D01*
X125185Y598715D01*
X124848Y598210D01*
X124419Y597781D01*
X124187Y597221D01*
X123850Y596717D01*
X123732Y596122D01*
X123500Y595561D01*
Y594955D01*
X123382Y594360D01*
X123500Y593765D01*
Y593159D01*
X123732Y592598D01*
X123850Y592003D01*
X124187Y591499D01*
X124419Y590939D01*
X124848Y590510D01*
X125185Y590005D01*
X134515Y580676D01*
X134751Y580518D01*
Y573850D01*
X127580D01*
Y559270D01*
X150160D01*
Y562441D01*
X154098D01*
X154255Y562206D01*
X172962Y543499D01*
Y510790D01*
X172912Y510540D01*
X173381Y508183D01*
X174599Y506360D01*
X174400Y505651D01*
X174069Y505090D01*
X172080D01*
Y485510D01*
X175185D01*
Y482189D01*
X174715Y481875D01*
X173381Y479877D01*
X172912Y477520D01*
X172962Y477270D01*
Y426781D01*
X116295Y370115D01*
X114960Y368117D01*
X114492Y365760D01*
Y306070D01*
X114960Y303713D01*
X116295Y301715D01*
X116531Y301558D01*
Y275320D01*
X113160D01*
Y255540D01*
X122646D01*
X129842Y248344D01*
X129732Y247790D01*
Y241300D01*
X129850Y240705D01*
Y240099D01*
X130082Y239538D01*
X130201Y238943D01*
X130537Y238439D01*
X130770Y237879D01*
X131198Y237450D01*
X131535Y236945D01*
X132040Y236608D01*
X132469Y236180D01*
X133029Y235947D01*
X133533Y235611D01*
X134128Y235492D01*
X134689Y235260D01*
X135295D01*
X135890Y235142D01*
X136485Y235260D01*
X137091D01*
X137652Y235492D01*
X138247Y235611D01*
X138751Y235947D01*
X139311Y236180D01*
X139740Y236608D01*
X140245Y236945D01*
X140582Y237450D01*
X141011Y237879D01*
X141243Y238439D01*
X141580Y238943D01*
X141698Y239538D01*
X141930Y240099D01*
Y240705D01*
X142048Y241300D01*
Y247790D01*
X141580Y250147D01*
X140245Y252145D01*
X138247Y253480D01*
X135890Y253948D01*
X135336Y253838D01*
X128140Y261034D01*
Y275320D01*
X124769D01*
Y301558D01*
X125005Y301715D01*
X126340Y303713D01*
X126808Y306070D01*
Y363209D01*
X183474Y419875D01*
X184809Y421873D01*
X185278Y424230D01*
Y477470D01*
X184809Y479827D01*
X183474Y481825D01*
X183425Y481875D01*
X182955Y482189D01*
Y485510D01*
X186160D01*
Y505090D01*
X184071D01*
X183729Y505670D01*
X183558Y506360D01*
X184809Y508233D01*
X185278Y510590D01*
Y546050D01*
X184809Y548407D01*
X183474Y550405D01*
X162964Y570915D01*
X160966Y572250D01*
X158610Y572719D01*
X156253Y572250D01*
X154255Y570915D01*
X154098Y570679D01*
X150160D01*
Y573850D01*
X142989D01*
Y580518D01*
X143224Y580676D01*
X144559Y582673D01*
X145028Y585030D01*
X144559Y587387D01*
X143224Y589385D01*
X133895Y598715D01*
X133390Y599052D01*
X132961Y599481D01*
X132401Y599713D01*
X131897Y600050D01*
X131302Y600168D01*
X130741Y600400D01*
X130135D01*
X129540Y600518D01*
D02*
G37*
G36*
X404630Y231493D02*
X385030D01*
X383571Y231203D01*
X382333Y230376D01*
X381507Y229139D01*
X381217Y227680D01*
Y227405D01*
X374227D01*
X372991Y228640D01*
X370771Y229560D01*
X368369D01*
X366149Y228640D01*
X364450Y226941D01*
X363530Y224721D01*
Y222319D01*
X364450Y220099D01*
X366149Y218400D01*
X368369Y217480D01*
X370771D01*
X372991Y218400D01*
X374227Y219635D01*
X381217D01*
Y218080D01*
X381507Y216621D01*
X382333Y215383D01*
X383571Y214557D01*
X385030Y214267D01*
X404630D01*
X406089Y214557D01*
X407326Y215383D01*
X408153Y216621D01*
X408443Y218080D01*
Y227680D01*
X408153Y229139D01*
X407326Y230376D01*
X406089Y231203D01*
X404630Y231493D01*
D02*
G37*
G36*
X102980Y264160D02*
X96760D01*
Y263765D01*
X92337Y259342D01*
X91444Y258006D01*
X91131Y256430D01*
Y199120D01*
X87760D01*
Y193115D01*
X77470D01*
X75983Y192819D01*
X74723Y191977D01*
X55880Y173134D01*
Y167640D01*
X61374D01*
X79079Y185345D01*
X87760D01*
Y179340D01*
X93980D01*
Y189230D01*
X95250D01*
Y190500D01*
X102740D01*
Y199120D01*
X99369D01*
Y254724D01*
X100186Y255540D01*
X102980D01*
Y264160D01*
D02*
G37*
G36*
X53340Y172382D02*
X51189Y171490D01*
X49489Y169791D01*
X48598Y167640D01*
X53340D01*
Y172382D01*
D02*
G37*
G36*
X60622Y165100D02*
X55880D01*
Y160358D01*
X58031Y161250D01*
X59731Y162949D01*
X60622Y165100D01*
D02*
G37*
G36*
X53340D02*
X48598D01*
X49489Y162949D01*
X51189Y161250D01*
X53340Y160358D01*
Y165100D01*
D02*
G37*
G36*
X174680Y132980D02*
X168910D01*
Y124460D01*
X174680D01*
Y132980D01*
D02*
G37*
G36*
X166370D02*
X160600D01*
Y124460D01*
X166370D01*
Y132980D01*
D02*
G37*
G36*
X23317Y88660D02*
X19863D01*
X16474Y87986D01*
X13282Y86664D01*
X10409Y84744D01*
X7966Y82301D01*
X6046Y79428D01*
X4724Y76236D01*
X4050Y72847D01*
Y69392D01*
X4724Y66004D01*
X6046Y62812D01*
X7966Y59939D01*
X10409Y57496D01*
X13282Y55576D01*
X16474Y54254D01*
X19863Y53580D01*
X23317D01*
X26706Y54254D01*
X29898Y55576D01*
X32771Y57496D01*
X35214Y59939D01*
X37134Y62812D01*
X38456Y66004D01*
X39130Y69392D01*
Y72847D01*
X38456Y76236D01*
X37134Y79428D01*
X35214Y82301D01*
X32771Y84744D01*
X29898Y86664D01*
X26706Y87986D01*
X23317Y88660D01*
D02*
G37*
G36*
X557410Y48140D02*
X548640D01*
Y39370D01*
X557410D01*
Y48140D01*
D02*
G37*
G36*
Y36830D02*
X548640D01*
Y28060D01*
X557410D01*
Y36830D01*
D02*
G37*
G36*
X76200Y66972D02*
Y62230D01*
X80942D01*
X80050Y64381D01*
X78351Y66080D01*
X76200Y66972D01*
D02*
G37*
G36*
X113490Y21390D02*
X113250D01*
X113130Y21380D01*
X113020Y21360D01*
X112900Y21340D01*
X112790Y21310D01*
X112670Y21280D01*
X112560Y21240D01*
X112450Y21200D01*
X112350Y21140D01*
X112250Y21090D01*
X112140Y21030D01*
X112050Y20960D01*
X111950Y20890D01*
X111860Y20810D01*
X111780Y20730D01*
X111700Y20650D01*
X111620Y20560D01*
X111550Y20460D01*
X111480Y20370D01*
X111420Y20260D01*
X111370Y20160D01*
X111310Y20060D01*
X111270Y19950D01*
X111230Y19840D01*
X111200Y19720D01*
X111170Y19610D01*
X111150Y19490D01*
X111130Y19380D01*
X111120Y19260D01*
Y19140D01*
Y15140D01*
Y11140D01*
Y11020D01*
X111130Y10900D01*
X111150Y10790D01*
X111170Y10670D01*
X111200Y10560D01*
X111230Y10440D01*
X111270Y10330D01*
X111310Y10220D01*
X111370Y10120D01*
X111420Y10020D01*
X111480Y9910D01*
X111550Y9820D01*
X111620Y9720D01*
X111700Y9630D01*
X111780Y9550D01*
X111860Y9470D01*
X111950Y9390D01*
X112050Y9320D01*
X112140Y9250D01*
X112250Y9190D01*
X112350Y9140D01*
X112450Y9080D01*
X112560Y9040D01*
X112670Y9000D01*
X112790Y8970D01*
X112900Y8940D01*
X113020Y8920D01*
X113130Y8900D01*
X113250Y8890D01*
X113490D01*
X113610Y8900D01*
X113720Y8920D01*
X113840Y8940D01*
X113950Y8970D01*
X114070Y9000D01*
X114180Y9040D01*
X114290Y9080D01*
X114390Y9140D01*
X114500Y9190D01*
X114600Y9250D01*
X114690Y9320D01*
X114790Y9390D01*
X114880Y9470D01*
X114960Y9550D01*
X115040Y9630D01*
X115120Y9720D01*
X115190Y9820D01*
X115260Y9910D01*
X115320Y10010D01*
X115370Y10120D01*
X115430Y10220D01*
X115470Y10330D01*
X115510Y10440D01*
X115540Y10560D01*
X115570Y10670D01*
X115590Y10790D01*
X115610Y10900D01*
X115620Y11020D01*
Y11140D01*
Y15140D01*
Y19140D01*
Y19260D01*
X115610Y19380D01*
X115590Y19490D01*
X115570Y19610D01*
X115540Y19720D01*
X115510Y19840D01*
X115470Y19950D01*
X115430Y20060D01*
X115370Y20160D01*
X115320Y20270D01*
X115260Y20370D01*
X115190Y20460D01*
X115120Y20560D01*
X115040Y20650D01*
X114960Y20730D01*
X114880Y20810D01*
X114790Y20890D01*
X114690Y20960D01*
X114600Y21030D01*
X114500Y21090D01*
X114390Y21140D01*
X114290Y21200D01*
X114180Y21240D01*
X114070Y21280D01*
X113950Y21310D01*
X113840Y21340D01*
X113720Y21360D01*
X113610Y21380D01*
X113490Y21390D01*
D02*
G37*
G36*
X41990D02*
X41750D01*
X41630Y21380D01*
X41520Y21360D01*
X41400Y21340D01*
X41290Y21310D01*
X41170Y21280D01*
X41060Y21240D01*
X40950Y21200D01*
X40850Y21140D01*
X40740Y21090D01*
X40640Y21030D01*
X40550Y20960D01*
X40450Y20890D01*
X40360Y20810D01*
X40280Y20730D01*
X40200Y20650D01*
X40120Y20560D01*
X40050Y20460D01*
X39980Y20370D01*
X39920Y20270D01*
X39870Y20160D01*
X39810Y20060D01*
X39770Y19950D01*
X39730Y19840D01*
X39700Y19720D01*
X39670Y19610D01*
X39650Y19490D01*
X39630Y19380D01*
X39620Y19260D01*
Y19140D01*
Y15140D01*
Y11140D01*
Y11020D01*
X39630Y10900D01*
X39650Y10790D01*
X39670Y10670D01*
X39700Y10560D01*
X39730Y10440D01*
X39770Y10330D01*
X39810Y10220D01*
X39870Y10120D01*
X39920Y10010D01*
X39980Y9910D01*
X40050Y9820D01*
X40120Y9720D01*
X40200Y9630D01*
X40280Y9550D01*
X40360Y9470D01*
X40450Y9390D01*
X40550Y9320D01*
X40640Y9250D01*
X40740Y9190D01*
X40850Y9140D01*
X40950Y9080D01*
X41060Y9040D01*
X41170Y9000D01*
X41290Y8970D01*
X41400Y8940D01*
X41520Y8920D01*
X41630Y8900D01*
X41750Y8890D01*
X41990D01*
X42110Y8900D01*
X42220Y8920D01*
X42340Y8940D01*
X42450Y8970D01*
X42570Y9000D01*
X42680Y9040D01*
X42790Y9080D01*
X42890Y9140D01*
X42990Y9190D01*
X43100Y9250D01*
X43190Y9320D01*
X43290Y9390D01*
X43380Y9470D01*
X43460Y9550D01*
X43540Y9630D01*
X43620Y9720D01*
X43690Y9820D01*
X43760Y9910D01*
X43820Y10020D01*
X43870Y10120D01*
X43930Y10220D01*
X43970Y10330D01*
X44010Y10440D01*
X44040Y10560D01*
X44070Y10670D01*
X44090Y10790D01*
X44110Y10900D01*
X44120Y11020D01*
Y11140D01*
Y15140D01*
Y19140D01*
Y19260D01*
X44110Y19380D01*
X44090Y19490D01*
X44070Y19610D01*
X44040Y19720D01*
X44010Y19840D01*
X43970Y19950D01*
X43930Y20060D01*
X43870Y20160D01*
X43820Y20260D01*
X43760Y20370D01*
X43690Y20460D01*
X43620Y20560D01*
X43540Y20650D01*
X43460Y20730D01*
X43380Y20810D01*
X43290Y20890D01*
X43190Y20960D01*
X43100Y21030D01*
X42990Y21090D01*
X42890Y21140D01*
X42790Y21200D01*
X42680Y21240D01*
X42570Y21280D01*
X42450Y21310D01*
X42340Y21340D01*
X42220Y21360D01*
X42110Y21380D01*
X41990Y21390D01*
D02*
G37*
%LPD*%
D13*
X95120Y646430D02*
X121520Y620030D01*
X354990Y362828D02*
Y363220D01*
X351260Y359098D02*
X354990Y362828D01*
X347668Y359098D02*
X351260D01*
X345440Y356870D02*
X347668Y359098D01*
X264590Y108790D02*
X275260D01*
X276860Y107190D01*
X291590D01*
X198120Y495300D02*
X209550D01*
X198120D02*
X198620Y495800D01*
X179870Y593880D02*
X198620Y575130D01*
Y495800D02*
Y575130D01*
X581660Y347370D02*
X582640D01*
X269338Y759361D02*
X271780Y756920D01*
X269338Y759361D02*
Y769521D01*
X264160Y774700D02*
X269338Y769521D01*
X288625Y673435D02*
Y680245D01*
X354730Y241700D02*
X362441D01*
X363310Y242570D01*
X394519D01*
X288125Y672935D02*
X288625Y673435D01*
Y680245D02*
X296887Y688507D01*
X369570Y223520D02*
X394190D01*
X580390Y347370D02*
X581660Y346100D01*
Y310490D02*
Y346100D01*
X580390Y347370D02*
X581660D01*
Y310490D02*
X583910D01*
X593827Y300573D01*
X596047D01*
X596900Y299720D01*
X179070Y495350D02*
X179120Y495300D01*
X179070Y495350D02*
Y510540D01*
Y477520D02*
Y495250D01*
X100330Y130048D02*
X109982Y139700D01*
X98918Y130048D02*
X100330D01*
X81026Y128832D02*
X99204Y147010D01*
X114866D01*
X109982Y139700D02*
X110490D01*
X114866Y147010D02*
X138686Y123190D01*
X96774Y111252D02*
X114808D01*
X178100Y21590D02*
Y35260D01*
X177800Y35560D02*
X178100Y35260D01*
X120650Y263030D02*
Y265430D01*
Y263030D02*
X135890Y247790D01*
X88870Y646430D02*
X95120D01*
X469640Y326070D02*
X526705D01*
X459830Y335880D02*
X469640Y326070D01*
X459830Y335880D02*
Y337880D01*
X529830Y329195D02*
Y329565D01*
X526705Y326070D02*
X529830Y329195D01*
Y329565D02*
X562905Y362640D01*
X576660D01*
X580390Y366370D01*
X479830Y337880D02*
Y339880D01*
X456490Y363220D02*
X479830Y339880D01*
X420370Y363220D02*
X456490D01*
X373990D02*
X375260Y361950D01*
X387350D01*
X560990Y273070D02*
X579410Y291490D01*
X581660D01*
X492396Y281940D02*
X501266Y273070D01*
X477520Y281940D02*
X492396D01*
X501266Y273070D02*
X560990D01*
X394830Y282880D02*
X395070Y283121D01*
X446951D01*
X373990Y398059D02*
Y407670D01*
X429260Y314960D02*
X481340Y262880D01*
X424065Y314960D02*
X429260D01*
X481340Y262880D02*
X544830D01*
X409640Y329385D02*
X424065Y314960D01*
X409640Y350941D02*
X409740Y351041D01*
X373990Y398059D02*
X386721Y385329D01*
X409640Y329385D02*
Y350941D01*
X409740Y351041D02*
Y372598D01*
X397009Y385329D02*
X409740Y372598D01*
X386721Y385329D02*
X397009D01*
X249960Y250910D02*
X276860Y224010D01*
Y123190D02*
Y224010D01*
X249960Y250910D02*
X314960D01*
X357240Y293190D01*
Y302310D01*
X357810Y302880D01*
X394830D01*
X296887Y688507D02*
Y756627D01*
X297180Y756920D01*
X567690Y244790D02*
Y245110D01*
X582930Y211948D02*
Y231800D01*
X567690Y244790D02*
X580680Y231800D01*
X582930D01*
X584200Y137160D02*
Y174040D01*
X586450D01*
X595260Y182850D01*
X582930Y211948D02*
X595260Y199618D01*
Y182850D02*
Y199618D01*
X501820Y402590D02*
X508070D01*
X516960Y411480D01*
X582640Y347370D02*
X595630Y360360D01*
X581660Y450850D02*
X581878Y450632D01*
X355600Y148932D02*
X380419Y173751D01*
X380701D01*
X389830Y182880D01*
X416560Y67310D02*
X445770Y38100D01*
X389830Y182880D02*
X394830D01*
X355600Y90170D02*
X378460Y67310D01*
X355600Y90170D02*
Y148932D01*
X378460Y67310D02*
X416560D01*
X245110Y736600D02*
X245745Y737235D01*
Y756285D02*
X246380Y756920D01*
X245745Y737235D02*
Y756285D01*
X394519Y242570D02*
X394830Y242880D01*
X394190Y223520D02*
X394830Y222880D01*
X347980Y88900D02*
X381000Y55880D01*
X418585D01*
X347980Y88900D02*
Y161030D01*
X389830Y202880D01*
X394830D01*
X450455Y26790D02*
X459860Y36195D01*
X469265D01*
X471170Y38100D01*
X441085Y26790D02*
X450455D01*
X433070Y34805D02*
Y41395D01*
X418585Y55880D02*
X433070Y41395D01*
Y34805D02*
X441085Y26790D01*
X361950Y273050D02*
X362975D01*
X383295Y252730D01*
X314960Y386800D02*
X316950Y384810D01*
X532130Y73660D02*
X551158D01*
X496570Y38100D02*
X532130Y73660D01*
X578220Y100722D02*
Y114430D01*
X551158Y73660D02*
X578220Y100722D01*
Y114430D02*
X581950Y118160D01*
X584200D01*
X383295Y252730D02*
X406665D01*
X378460Y347980D02*
X388620D01*
X394890Y354250D01*
X544830Y182880D02*
X558800D01*
X406665Y252730D02*
X476515Y182880D01*
X558800D02*
X564190Y177490D01*
X578220Y121890D02*
X581950Y118160D01*
X564190Y129052D02*
Y177490D01*
X571352Y121890D02*
X578220D01*
X564190Y129052D02*
X571352Y121890D01*
X74422Y111252D02*
X81026Y117856D01*
X70866Y111252D02*
X74422D01*
X81026Y117856D02*
Y128832D01*
X138686Y123190D02*
X148640D01*
X174680Y25010D02*
X178100Y21590D01*
X544830Y222880D02*
X549560Y218150D01*
X556840D01*
X581950Y193040D02*
X584200D01*
X556840Y218150D02*
X581950Y193040D01*
X74930Y60580D02*
X90620Y44890D01*
X74930Y60580D02*
Y60960D01*
X90620Y40640D02*
Y44890D01*
X81280Y80010D02*
X90620Y70670D01*
Y44890D02*
Y70670D01*
X54610Y166370D02*
X77470Y189230D01*
X81280Y80010D02*
Y110926D01*
X89480Y119126D01*
X95250D01*
X142562Y112130D02*
X159330D01*
X167640Y120440D01*
X95250Y119126D02*
X96774Y120650D01*
X134041D02*
X142562Y112130D01*
X96774Y120650D02*
X134041D01*
X167640Y120440D02*
Y123190D01*
X77470Y189230D02*
X95250D01*
X88870Y440690D02*
X95120D01*
X102850Y448420D01*
Y464740D02*
X138870Y500760D01*
X102850Y448420D02*
Y464740D01*
X138870Y500760D02*
Y520560D01*
X121520Y620030D02*
X176220D01*
X357240Y321310D02*
X358810Y322880D01*
X394830D01*
Y344187D01*
X402430Y351787D01*
X316230Y418030D02*
X326590Y407670D01*
X354990D01*
X402430Y351787D02*
Y369570D01*
X354990Y407670D02*
Y409920D01*
X417830Y384810D02*
X435610Y402590D01*
X458570D02*
X464820D01*
X435610D02*
X458570D01*
X442060Y419100D02*
X458570Y402590D01*
X249960Y431800D02*
X314960D01*
X316230Y430530D01*
X274610Y565660D02*
X276860D01*
X279110D01*
X176220Y620030D02*
X198870Y597380D01*
Y595630D02*
Y597380D01*
X202850Y589900D02*
X250370D01*
X274610Y565660D01*
X198870Y593880D02*
Y595630D01*
Y593880D02*
X202850Y589900D01*
X354990Y409920D02*
X364170Y419100D01*
X316230Y418030D02*
Y430530D01*
X364170Y419100D02*
X442060D01*
X279110Y565660D02*
X322580Y609130D01*
Y756920D01*
X167640Y120440D02*
X266370Y21710D01*
X530980D02*
X547370Y38100D01*
X266370Y21710D02*
X530980D01*
X167640Y120440D02*
Y120440D01*
X521970Y38100D02*
X552450Y68580D01*
X553262D01*
X394830Y262880D02*
X399560Y258150D01*
X405937D02*
X406048Y258040D01*
X399560Y258150D02*
X405937D01*
X458130Y253070D02*
X580660D01*
X406048Y258040D02*
X453160D01*
X458130Y253070D01*
X582930Y250800D02*
X585180D01*
X600340Y115658D02*
Y235640D01*
X585180Y250800D02*
X600340Y235640D01*
X580660Y253070D02*
X582930Y250800D01*
X553262Y68580D02*
X600340Y115658D01*
X179870Y593880D02*
Y595630D01*
D15*
X88870Y646430D02*
D03*
X125870D02*
D03*
X501820Y402590D02*
D03*
X464820D02*
D03*
X125870Y440690D02*
D03*
X88870D02*
D03*
D16*
X276860Y581660D02*
D03*
Y565660D02*
D03*
Y107190D02*
D03*
Y123190D02*
D03*
D17*
X394830Y302880D02*
D03*
X544830Y322880D02*
D03*
X394830Y182880D02*
D03*
Y202880D02*
D03*
Y222880D02*
D03*
Y242880D02*
D03*
Y262880D02*
D03*
Y282880D02*
D03*
Y322880D02*
D03*
X544830Y302880D02*
D03*
Y282880D02*
D03*
Y262880D02*
D03*
Y242880D02*
D03*
Y222880D02*
D03*
Y202880D02*
D03*
Y182880D02*
D03*
D18*
X499830Y337880D02*
D03*
X459830D02*
D03*
X439830D02*
D03*
X519830D02*
D03*
X479830D02*
D03*
X419830D02*
D03*
D19*
X357240Y321310D02*
D03*
Y302310D02*
D03*
X580390Y347370D02*
D03*
Y366370D02*
D03*
X581660Y291490D02*
D03*
Y310490D02*
D03*
X582930Y231800D02*
D03*
Y250800D02*
D03*
X584200Y193040D02*
D03*
Y174040D02*
D03*
Y118160D02*
D03*
Y137160D02*
D03*
D20*
X354990Y363220D02*
D03*
X373990D02*
D03*
X354990Y407670D02*
D03*
X373990D02*
D03*
D21*
X70866Y111252D02*
D03*
Y130048D02*
D03*
X96774D02*
D03*
Y120650D02*
D03*
Y111252D02*
D03*
D22*
X64620Y40640D02*
D03*
X90620D02*
D03*
D23*
X77620D02*
D03*
D24*
X65620Y15140D02*
D03*
X89620D02*
D03*
D25*
X111650Y189230D02*
D03*
X95250D02*
D03*
X104250Y265430D02*
D03*
X120650D02*
D03*
D26*
X147370Y76200D02*
D03*
X166370D02*
D03*
X167640Y123190D02*
D03*
X148640D02*
D03*
X198120Y495300D02*
D03*
X179120D02*
D03*
D27*
X178100Y21590D02*
D03*
X152100D02*
D03*
D28*
X198870Y595630D02*
D03*
X179870D02*
D03*
D29*
X138870Y520560D02*
D03*
Y543560D02*
D03*
Y566560D02*
D03*
D30*
X75870Y543560D02*
D03*
D57*
X38920Y21440D02*
D03*
X112720Y22340D02*
D03*
D58*
X125870Y646430D02*
X129540Y642760D01*
Y629920D02*
Y642760D01*
X314960Y295910D02*
Y326390D01*
X345440Y356870D01*
X241300Y124750D02*
X257260Y108790D01*
X264590D01*
X360680Y38100D02*
X420370D01*
X291590Y107190D02*
X360680Y38100D01*
X241300Y124750D02*
Y140500D01*
X232410Y149390D02*
X241300Y140500D01*
X232410Y149390D02*
Y278360D01*
X249960Y295910D01*
X179120Y510590D02*
Y546050D01*
X179070Y510540D02*
X179120Y510590D01*
X158610Y566560D02*
X179120Y546050D01*
Y424230D02*
Y477470D01*
X179070Y477520D02*
X179120Y477470D01*
X116840Y109220D02*
X129540Y96520D01*
X166342D02*
X177800Y85062D01*
X129540Y96520D02*
X166342D01*
X177800Y35560D02*
Y85062D01*
X154940Y35560D02*
X166370Y46990D01*
Y64770D01*
X154940Y34290D02*
Y35560D01*
X88870Y302290D02*
Y440690D01*
Y302290D02*
X104140Y287020D01*
X120650Y306070D02*
Y365760D01*
X135890Y241300D02*
Y247790D01*
X129540Y594360D02*
X138870Y585030D01*
X105410Y737870D02*
X125870Y717410D01*
Y646430D02*
Y717410D01*
X70877Y646187D02*
X88627D01*
X249960Y295910D02*
X314960D01*
X220980Y324890D02*
Y325120D01*
Y324890D02*
X249960Y295910D01*
X125870Y420230D02*
Y440690D01*
X132120D01*
X125870Y420230D02*
X133350Y412750D01*
X132120Y440690D02*
X139850Y448420D01*
Y485937D02*
X158750Y504837D01*
X139850Y448420D02*
Y485937D01*
X158750Y504837D02*
Y543560D01*
X463540Y474870D02*
X500380Y511710D01*
X553820D01*
X508070Y402590D02*
X572770D01*
X516960Y411480D02*
X542726D01*
X553820Y511710D02*
X581660Y483870D01*
Y450850D02*
Y483870D01*
X542726Y411480D02*
X581878Y450632D01*
X572770Y402590D02*
X595630Y379730D01*
Y360360D02*
Y379730D01*
X120650Y365760D02*
X179120Y424230D01*
X45720Y477590D02*
Y621030D01*
Y477590D02*
X82620Y440690D01*
X88680Y646620D02*
Y729600D01*
X80410Y737870D02*
X88680Y729600D01*
X45720Y621030D02*
X70877Y646187D01*
D59*
X88627D02*
X88870Y646430D01*
X255270Y599440D02*
X273050Y581660D01*
X276860D01*
X314960Y431800D02*
X327280Y444120D01*
Y604430D01*
X314960Y431800D02*
X316230D01*
X496670D01*
X322580Y609130D02*
X327280Y604430D01*
X576890Y343870D02*
X580390Y347370D01*
X541640Y306070D02*
X544830Y302880D01*
X520908Y306070D02*
X541640D01*
X520943Y295164D02*
X527547D01*
X539830Y282880D01*
X511950Y304156D02*
X520943Y295164D01*
X511950Y304156D02*
Y318619D01*
X511810Y318760D02*
X511950Y318619D01*
X114808Y111252D02*
X116840Y109220D01*
X152100Y21590D02*
Y31450D01*
X154940Y34290D01*
X104250Y265430D02*
Y286910D01*
X104140Y287020D02*
X104250Y286910D01*
X120650Y265430D02*
Y306070D01*
X138870Y566560D02*
Y585030D01*
Y543560D02*
X158750D01*
X572582Y132080D02*
X574162Y133660D01*
X571500Y132080D02*
X572582D01*
X574162Y133660D02*
X580700D01*
X584200Y137160D01*
X544830Y322880D02*
X549830D01*
X570820Y343870D01*
X576890D01*
X237490Y399270D02*
X249960Y386800D01*
X314960D01*
X316950Y384810D02*
X379730D01*
X476515Y182880D02*
X544830D01*
X394890Y354250D02*
Y369650D01*
X379730Y384810D02*
X394890Y369650D01*
X166370Y64770D02*
Y76200D01*
X64620Y40640D02*
Y62380D01*
X41900Y85100D02*
Y116830D01*
X55118Y130048D01*
X41900Y85100D02*
X64620Y62380D01*
X138870Y566560D02*
X158610D01*
X95250Y189230D02*
Y256430D01*
X82620Y440690D02*
X88870D01*
X95250Y256430D02*
X104250Y265430D01*
X496670Y431800D02*
X539740Y474870D01*
X539830Y282880D02*
X544830D01*
X522735Y219975D02*
X539830Y202880D01*
X544830D01*
X522735Y219975D02*
Y221485D01*
X521970Y222250D02*
X522735Y221485D01*
D60*
X209550Y495300D02*
X319740D01*
D61*
X65973Y34357D02*
X70627Y29703D01*
X65973Y34357D02*
Y39287D01*
X70627Y29703D02*
X100823D01*
X141467Y70347D01*
X144267D01*
X147370Y73450D01*
X70866Y130048D02*
Y146046D01*
X111650Y186830D02*
Y189230D01*
X147370Y73450D02*
Y76200D01*
X70866Y146046D02*
X111650Y186830D01*
D62*
X55118Y130048D02*
X70866D01*
D63*
X249960Y386800D02*
D03*
X314960D02*
D03*
Y431800D02*
D03*
X249960Y250910D02*
D03*
X314960D02*
D03*
Y295910D02*
D03*
D64*
X249960Y431800D02*
D03*
Y295910D02*
D03*
D65*
X41870Y15140D02*
D03*
X113370D02*
D03*
D66*
X463540Y474870D02*
D03*
X322580Y756920D02*
D03*
X488990Y678040D02*
D03*
X487680Y726440D02*
D03*
D67*
X488940Y474870D02*
D03*
X514340D02*
D03*
X539740D02*
D03*
X297180Y756920D02*
D03*
X271780D02*
D03*
X246380D02*
D03*
X565190Y678040D02*
D03*
X539790D02*
D03*
X514390D02*
D03*
X563880Y726440D02*
D03*
X538480D02*
D03*
X513080D02*
D03*
D68*
X21590Y71120D02*
D03*
Y805180D02*
D03*
X591820D02*
D03*
X590550Y67310D02*
D03*
D69*
X547370Y38100D02*
D03*
D70*
X521970D02*
D03*
X496570D02*
D03*
X471170D02*
D03*
X445770D02*
D03*
X420370D02*
D03*
D71*
X80410Y737870D02*
D03*
X105410D02*
D03*
D72*
X129540Y629920D02*
D03*
X255270Y599440D02*
D03*
X264160Y774700D02*
D03*
X354730Y241700D02*
D03*
X319740Y495300D02*
D03*
X288125Y672935D02*
D03*
X369570Y223520D02*
D03*
X520700Y306070D02*
D03*
X511810Y318760D02*
D03*
X110490Y139700D02*
D03*
X135890Y241300D02*
D03*
X129540Y594360D02*
D03*
X420370Y363220D02*
D03*
X387350Y361950D02*
D03*
X477520Y281940D02*
D03*
X446951Y283121D02*
D03*
X220980Y325120D02*
D03*
X133350Y412750D02*
D03*
X158750Y543560D02*
D03*
X571500Y132080D02*
D03*
X567690Y245110D02*
D03*
X596900Y299720D02*
D03*
X245110Y736600D02*
D03*
X361950Y273050D02*
D03*
X378460Y347980D02*
D03*
X237490Y399270D02*
D03*
X74930Y60960D02*
D03*
X54610Y166370D02*
D03*
X402430Y369570D02*
D03*
X417830Y384810D02*
D03*
X521970Y222250D02*
D03*
M02*
