M48
;Layer_Color=9474304
;FILE_FORMAT=4:4
METRIC,LZ
;TYPE=PLATED
T1F00S00C0.3000
T2F00S00C0.9000
T3F00S00C0.9900
T4F00S00C1.0000
T5F00S00C1.0200
T6F00S00C3.0000
;TYPE=NON_PLATED
T7F00S00C0.4500
%
T01
X0007493Y0006096
X0011049Y001397
X0005461Y0016637
X0013589Y002413
X0013335Y0041275
X0023749Y0039927
X0022098Y0032512
X0037846Y0034798
X0038735Y0036195
X0040243Y0036957
X0042037Y0036322
X0041783Y0038481
X00446951Y00283121
X0047752Y0028194
X005207Y0030607
X0051181Y0031876
X0052197Y0022225
X0036957Y0022352
X0035473Y002417
X0036195Y0027305
X0056769Y0024511
X005969Y0029972
X005715Y0013208
X0031974Y004953
X0025527Y0059944
X00288125Y00672935
X0024511Y007366
X0026416Y007747
X0015875Y0054356
X0012954Y0059436
Y0062992
T02
X0054737Y000381
X0052197
X0049657
X0047117
X0044577
X0042037
T03
X0024996Y0025091
Y0029591
X0031496
Y0025091
Y003868
Y004318
X0024996
Y003868
T04
X0008041Y0073787
X0010541
T05
X0053979Y0067804
X0056519
X0056388Y0072644
X0053848
X0051308
X0048768
X0048899Y0067804
X0051439
X0051434Y0047487
X0048894
X0046354
X0053974
X0032258Y0075692
X0029718
X0027178
X0024638
T06
X0002159Y0007112
X0059055Y0006731
X0059182Y0080518
X0002159
T07
X0004187Y0001514
X0011337
M30
