G04*
G04 #@! TF.GenerationSoftware,Altium Limited,Altium Designer,23.4.1 (23)*
G04*
G04 Layer_Color=32768*
%FSLAX44Y44*%
%MOMM*%
G71*
G04*
G04 #@! TF.SameCoordinates,113CB1AB-12A2-433E-9A00-34448D6919C0*
G04*
G04*
G04 #@! TF.FilePolarity,Positive*
G04*
G01*
G75*
%ADD73C,0.1000*%
%ADD74C,0.0500*%
D73*
X85870Y624930D02*
Y667930D01*
X118120D01*
X128870Y657180D01*
Y635680D02*
Y657180D01*
X118120Y624930D02*
X128870Y635680D01*
X85870Y624930D02*
X118120D01*
X270610Y563660D02*
X283110D01*
Y583660D01*
X270610D02*
X283110D01*
X270610Y563660D02*
Y583660D01*
X350860Y301810D02*
X363620D01*
Y321810D01*
X350860D02*
X363620D01*
X350860Y301810D02*
Y321810D01*
X374490Y356840D02*
Y369600D01*
X354490D02*
X374490D01*
X354490Y356840D02*
Y369600D01*
Y356840D02*
X374490D01*
X574010Y366870D02*
X586770D01*
X574010Y346870D02*
Y366870D01*
Y346870D02*
X586770D01*
Y366870D01*
X374490Y401290D02*
Y414050D01*
X354490D02*
X374490D01*
X354490Y401290D02*
Y414050D01*
Y401290D02*
X374490D01*
X575280Y310990D02*
X588040D01*
X575280Y290990D02*
Y310990D01*
Y290990D02*
X588040D01*
Y310990D01*
X576550Y251300D02*
X589310D01*
X576550Y231300D02*
Y251300D01*
Y231300D02*
X589310D01*
Y251300D01*
X577820Y173540D02*
X590580D01*
Y193540D01*
X577820D02*
X590580D01*
X577820Y173540D02*
Y193540D01*
Y137660D02*
X590580D01*
X577820Y117660D02*
Y137660D01*
Y117660D02*
X590580D01*
Y137660D01*
X461820Y381090D02*
X494070D01*
X504820Y391840D01*
Y413340D01*
X494070Y424090D02*
X504820Y413340D01*
X461820Y424090D02*
X494070D01*
X461820Y381090D02*
Y424090D01*
X270610Y105190D02*
Y125190D01*
X283110D01*
Y105190D02*
Y125190D01*
X270610Y105190D02*
X283110D01*
X77620Y10060D02*
Y20220D01*
X72540Y15140D02*
X82700D01*
X93450Y182980D02*
X113450D01*
X93450D02*
Y195480D01*
X113450D01*
Y182980D02*
Y195480D01*
X102450Y271680D02*
X122450D01*
Y259180D02*
Y271680D01*
X102450Y259180D02*
X122450D01*
X102450D02*
Y271680D01*
X150100Y11590D02*
X180100D01*
X150100D02*
Y31590D01*
X180100D01*
Y11590D02*
Y31590D01*
X172850Y11590D02*
X180100Y18840D01*
X85870Y419190D02*
X118120D01*
X128870Y429940D01*
Y451440D01*
X118120Y462190D02*
X128870Y451440D01*
X85870Y462190D02*
X118120D01*
X85870Y419190D02*
Y462190D01*
X89870Y511060D02*
X124870D01*
X89870D02*
Y576060D01*
X124870D01*
Y511060D02*
Y576060D01*
X101870Y511060D02*
X124870Y534060D01*
D74*
X239960Y376800D02*
Y441800D01*
Y376800D02*
X324960D01*
Y441800D01*
X239960D02*
X324960D01*
X239960Y240910D02*
Y305910D01*
Y240910D02*
X324960D01*
Y305910D01*
X239960D02*
X324960D01*
X32620Y-14860D02*
X122620D01*
X32620Y50140D02*
X122620Y50240D01*
Y-14860D02*
Y50240D01*
X32620Y-14860D02*
Y50140D01*
X448340Y490070D02*
X554940D01*
Y459670D02*
Y490070D01*
X448340Y459670D02*
X554940D01*
X448340D02*
Y490070D01*
X231180Y741720D02*
X337780D01*
X231180D02*
Y772120D01*
X337780D01*
Y741720D02*
Y772120D01*
X473790Y662840D02*
Y693240D01*
Y662840D02*
X580390D01*
Y693240D01*
X473790D02*
X580390D01*
X472480Y711240D02*
Y741640D01*
Y711240D02*
X579080D01*
Y741640D01*
X472480D02*
X579080D01*
X140370Y86200D02*
X173370D01*
Y66200D02*
Y86200D01*
X140370Y66200D02*
X173370D01*
X140370D02*
Y86200D01*
X141640Y113190D02*
X174640D01*
X141640D02*
Y133190D01*
X174640D01*
Y113190D02*
Y133190D01*
X172120Y586130D02*
X206620D01*
X172120D02*
Y605130D01*
X206620D01*
Y586130D02*
Y605130D01*
X172120Y485300D02*
X205120D01*
X172120D02*
Y505300D01*
X205120D01*
Y485300D02*
Y505300D01*
X53410Y711870D02*
Y774370D01*
X132410D01*
Y711870D02*
Y774370D01*
X53410Y711870D02*
X132410D01*
M02*
