G04*
G04 #@! TF.GenerationSoftware,Altium Limited,Altium Designer,23.4.1 (23)*
G04*
G04 Layer_Color=8388736*
%FSLAX44Y44*%
%MOMM*%
G71*
G04*
G04 #@! TF.SameCoordinates,F2A16652-085B-4F69-B410-D4E0E0FCB8A4*
G04*
G04*
G04 #@! TF.FilePolarity,Negative*
G04*
G01*
G75*
%ADD31R,3.2532X2.0032*%
%ADD32R,1.6732X1.2232*%
G04:AMPARAMS|DCode=33|XSize=2.4032mm|YSize=1.4032mm|CornerRadius=0.2216mm|HoleSize=0mm|Usage=FLASHONLY|Rotation=180.000|XOffset=0mm|YOffset=0mm|HoleType=Round|Shape=RoundedRectangle|*
%AMROUNDEDRECTD33*
21,1,2.4032,0.9600,0,0,180.0*
21,1,1.9600,1.4032,0,0,180.0*
1,1,0.4432,-0.9800,0.4800*
1,1,0.4432,0.9800,0.4800*
1,1,0.4432,0.9800,-0.4800*
1,1,0.4432,-0.9800,-0.4800*
%
%ADD33ROUNDEDRECTD33*%
G04:AMPARAMS|DCode=34|XSize=1.8032mm|YSize=1.4032mm|CornerRadius=0.2216mm|HoleSize=0mm|Usage=FLASHONLY|Rotation=270.000|XOffset=0mm|YOffset=0mm|HoleType=Round|Shape=RoundedRectangle|*
%AMROUNDEDRECTD34*
21,1,1.8032,0.9600,0,0,270.0*
21,1,1.3600,1.4032,0,0,270.0*
1,1,0.4432,-0.4800,-0.6800*
1,1,0.4432,-0.4800,0.6800*
1,1,0.4432,0.4800,0.6800*
1,1,0.4432,0.4800,-0.6800*
%
%ADD34ROUNDEDRECTD34*%
%ADD35R,1.6532X1.2032*%
%ADD36R,1.2032X1.6532*%
%ADD37R,1.4732X0.7620*%
%ADD38R,1.2080X1.9080*%
%ADD39R,0.6032X1.6032*%
%ADD40R,2.1032X2.2032*%
%ADD41R,1.1932X1.6732*%
%ADD42R,1.1032X1.6532*%
%ADD43R,1.7532X1.6532*%
%ADD44R,1.2532X1.6032*%
%ADD45R,1.9532X1.1532*%
%ADD46R,1.9532X3.4032*%
%ADD47C,1.7012*%
%ADD48R,1.7012X1.7012*%
%ADD49C,0.6532*%
%ADD50R,1.7332X1.7332*%
%ADD51C,1.7332*%
%ADD52C,1.7272*%
%ADD53R,1.7032X1.7032*%
%ADD54C,1.7032*%
%ADD55C,1.7112*%
%ADD56C,0.9032*%
G36*
X49120Y3624D02*
X34560D01*
Y26640D01*
X49120D01*
Y3624D01*
D02*
G37*
G36*
X120620Y3620D02*
X106171D01*
Y26640D01*
X120620D01*
Y3620D01*
D02*
G37*
D31*
X88870Y646430D02*
D03*
X125870D02*
D03*
X501820Y402590D02*
D03*
X464820D02*
D03*
X125870Y440690D02*
D03*
X88870D02*
D03*
D32*
X276860Y581660D02*
D03*
Y565660D02*
D03*
Y107190D02*
D03*
Y123190D02*
D03*
D33*
X394830Y302880D02*
D03*
X544830Y322880D02*
D03*
X394830Y182880D02*
D03*
Y202880D02*
D03*
Y222880D02*
D03*
Y242880D02*
D03*
Y262880D02*
D03*
Y282880D02*
D03*
Y322880D02*
D03*
X544830Y302880D02*
D03*
Y282880D02*
D03*
Y262880D02*
D03*
Y242880D02*
D03*
Y222880D02*
D03*
Y202880D02*
D03*
Y182880D02*
D03*
D34*
X499830Y337880D02*
D03*
X459830D02*
D03*
X439830D02*
D03*
X519830D02*
D03*
X479830D02*
D03*
X419830D02*
D03*
D35*
X357240Y321310D02*
D03*
Y302310D02*
D03*
X580390Y347370D02*
D03*
Y366370D02*
D03*
X581660Y291490D02*
D03*
Y310490D02*
D03*
X582930Y231800D02*
D03*
Y250800D02*
D03*
X584200Y193040D02*
D03*
Y174040D02*
D03*
Y118160D02*
D03*
Y137160D02*
D03*
D36*
X354990Y363220D02*
D03*
X373990D02*
D03*
X354990Y407670D02*
D03*
X373990D02*
D03*
D37*
X70866Y111252D02*
D03*
Y130048D02*
D03*
X96774D02*
D03*
Y120650D02*
D03*
Y111252D02*
D03*
D38*
X64620Y40640D02*
D03*
X90620D02*
D03*
D39*
X77620D02*
D03*
D40*
X65620Y15140D02*
D03*
X89620D02*
D03*
D41*
X111650Y189230D02*
D03*
X95250D02*
D03*
X104250Y265430D02*
D03*
X120650D02*
D03*
D42*
X147370Y76200D02*
D03*
X166370D02*
D03*
X167640Y123190D02*
D03*
X148640D02*
D03*
X198120Y495300D02*
D03*
X179120D02*
D03*
D43*
X178100Y21590D02*
D03*
X152100D02*
D03*
D44*
X198870Y595630D02*
D03*
X179870D02*
D03*
D45*
X138870Y520560D02*
D03*
Y543560D02*
D03*
Y566560D02*
D03*
D46*
X75870Y543560D02*
D03*
D47*
X249960Y386800D02*
D03*
X314960D02*
D03*
Y431800D02*
D03*
X249960Y250910D02*
D03*
X314960D02*
D03*
Y295910D02*
D03*
D48*
X249960Y431800D02*
D03*
Y295910D02*
D03*
D49*
X41870Y15140D02*
D03*
X113370D02*
D03*
D50*
X463540Y474870D02*
D03*
X322580Y756920D02*
D03*
X488990Y678040D02*
D03*
X487680Y726440D02*
D03*
D51*
X488940Y474870D02*
D03*
X514340D02*
D03*
X539740D02*
D03*
X297180Y756920D02*
D03*
X271780D02*
D03*
X246380D02*
D03*
X565190Y678040D02*
D03*
X539790D02*
D03*
X514390D02*
D03*
X563880Y726440D02*
D03*
X538480D02*
D03*
X513080D02*
D03*
D52*
X21590Y71120D02*
D03*
Y805180D02*
D03*
X591820D02*
D03*
X590550Y67310D02*
D03*
D53*
X547370Y38100D02*
D03*
D54*
X521970D02*
D03*
X496570D02*
D03*
X471170D02*
D03*
X445770D02*
D03*
X420370D02*
D03*
D55*
X80410Y737870D02*
D03*
X105410D02*
D03*
D56*
X129540Y629920D02*
D03*
X255270Y599440D02*
D03*
X264160Y774700D02*
D03*
X354730Y241700D02*
D03*
X319740Y495300D02*
D03*
X288125Y672935D02*
D03*
X369570Y223520D02*
D03*
X520700Y306070D02*
D03*
X511810Y318760D02*
D03*
X110490Y139700D02*
D03*
X135890Y241300D02*
D03*
X129540Y594360D02*
D03*
X420370Y363220D02*
D03*
X387350Y361950D02*
D03*
X477520Y281940D02*
D03*
X446951Y283121D02*
D03*
X220980Y325120D02*
D03*
X133350Y412750D02*
D03*
X158750Y543560D02*
D03*
X571500Y132080D02*
D03*
X567690Y245110D02*
D03*
X596900Y299720D02*
D03*
X245110Y736600D02*
D03*
X361950Y273050D02*
D03*
X378460Y347980D02*
D03*
X237490Y399270D02*
D03*
X74930Y60960D02*
D03*
X54610Y166370D02*
D03*
X402430Y369570D02*
D03*
X417830Y384810D02*
D03*
X521970Y222250D02*
D03*
M02*
