G04*
G04 #@! TF.GenerationSoftware,Altium Limited,Altium Designer,23.4.1 (23)*
G04*
G04 Layer_Color=65535*
%FSLAX44Y44*%
%MOMM*%
G71*
G04*
G04 #@! TF.SameCoordinates,F2A16652-085B-4F69-B410-D4E0E0FCB8A4*
G04*
G04*
G04 #@! TF.FilePolarity,Positive*
G04*
G01*
G75*
%ADD10C,0.1270*%
%ADD11C,0.2000*%
%ADD12C,0.0000*%
%ADD13C,0.2540*%
%ADD14C,0.1524*%
D10*
X300010Y409300D02*
G03*
X300010Y409300I-17550J0D01*
G01*
Y273410D02*
G03*
X300010Y273410I-17550J0D01*
G01*
X262460Y439250D02*
X302460D01*
X312410Y399300D02*
Y419300D01*
X262460Y379350D02*
X302460D01*
X252510Y399300D02*
Y419300D01*
X262460Y303360D02*
X302460D01*
X312410Y263410D02*
Y283410D01*
X262460Y243460D02*
X302460D01*
X252510Y263410D02*
Y283410D01*
X55910Y714370D02*
Y771870D01*
X129910D01*
Y714370D02*
Y771870D01*
X55910Y714370D02*
X129910D01*
D11*
X237740Y431800D02*
G03*
X237740Y431800I-1000J0D01*
G01*
Y295910D02*
G03*
X237740Y295910I-1000J0D01*
G01*
X444640Y474870D02*
G03*
X444640Y474870I-1000J0D01*
G01*
X343480Y756920D02*
G03*
X343480Y756920I-1000J0D01*
G01*
X470090Y678040D02*
G03*
X470090Y678040I-1000J0D01*
G01*
X468780Y726440D02*
G03*
X468780Y726440I-1000J0D01*
G01*
X106410Y708120D02*
G03*
X106410Y708120I-1000J0D01*
G01*
X85870Y667930D02*
X118120D01*
X85870Y624930D02*
X141120D01*
X351860Y311810D02*
X362620D01*
X364490Y357840D02*
Y368600D01*
X575010Y356870D02*
X585770D01*
X364490Y402290D02*
Y413050D01*
X576280Y300990D02*
X587040D01*
X577550Y241300D02*
X588310D01*
X578820Y183540D02*
X589580D01*
X578820Y127660D02*
X589580D01*
X461820Y381090D02*
X517070D01*
X461820Y424090D02*
X494070D01*
X40620Y28840D02*
Y42890D01*
X114620Y28840D02*
Y42890D01*
X450840Y462170D02*
X552440D01*
Y487570D01*
X450840D02*
X552440D01*
X450840Y462170D02*
Y487570D01*
X233680Y769620D02*
X335280D01*
X233680Y744220D02*
Y769620D01*
Y744220D02*
X335280D01*
Y769620D01*
X476290Y665340D02*
Y690740D01*
X577890D01*
Y665340D02*
Y690740D01*
X476290Y665340D02*
X577890D01*
X474980Y713740D02*
Y739140D01*
X576580D01*
Y713740D02*
Y739140D01*
X474980Y713740D02*
X576580D01*
X407670Y25400D02*
Y50800D01*
X560070Y25400D02*
Y50800D01*
X407670Y25400D02*
X560070D01*
X407670Y50800D02*
X560070D01*
X156870Y70950D02*
Y81450D01*
X158140Y117940D02*
Y128440D01*
X189370Y590380D02*
Y600880D01*
X188620Y490050D02*
Y500550D01*
X85870Y419190D02*
X141120D01*
X85870Y462190D02*
X118120D01*
X89870Y511060D02*
X124870D01*
X89870D02*
Y576060D01*
X124870D01*
Y511060D02*
Y576060D01*
X563452Y330659D02*
Y324661D01*
Y330659D02*
X566023D01*
X566880Y330374D01*
X567165Y330088D01*
X567451Y329517D01*
Y328945D01*
X567165Y328374D01*
X566880Y328088D01*
X566023Y327803D01*
X563452D01*
X565452D02*
X567451Y324661D01*
X571650Y330659D02*
X568794Y326660D01*
X573078D01*
X571650Y330659D02*
Y324661D01*
X574135Y327231D02*
X579277D01*
X581048Y329517D02*
X581619Y329802D01*
X582476Y330659D01*
Y324661D01*
X587161Y330659D02*
X586304Y330374D01*
X585733Y329517D01*
X585447Y328088D01*
Y327231D01*
X585733Y325803D01*
X586304Y324946D01*
X587161Y324661D01*
X587732D01*
X588589Y324946D01*
X589161Y325803D01*
X589446Y327231D01*
Y328088D01*
X589161Y329517D01*
X588589Y330374D01*
X587732Y330659D01*
X587161D01*
X590789D02*
Y324661D01*
X594788Y330659D02*
X590789Y326660D01*
X592217Y328088D02*
X594788Y324661D01*
X564722Y270969D02*
Y264971D01*
Y270969D02*
X567293D01*
X568150Y270684D01*
X568436Y270398D01*
X568721Y269827D01*
Y269255D01*
X568436Y268684D01*
X568150Y268398D01*
X567293Y268113D01*
X564722D01*
X566721D02*
X568721Y264971D01*
X570635Y270969D02*
X573777D01*
X572063Y268684D01*
X572920D01*
X573492Y268398D01*
X573777Y268113D01*
X574063Y267256D01*
Y266685D01*
X573777Y265828D01*
X573206Y265256D01*
X572349Y264971D01*
X571492D01*
X570635Y265256D01*
X570349Y265542D01*
X570064Y266113D01*
X575405Y267542D02*
X580547D01*
X582318Y269827D02*
X582890Y270112D01*
X583746Y270969D01*
Y264971D01*
X588431Y270969D02*
X587574Y270684D01*
X587003Y269827D01*
X586717Y268398D01*
Y267542D01*
X587003Y266113D01*
X587574Y265256D01*
X588431Y264971D01*
X589002D01*
X589859Y265256D01*
X590431Y266113D01*
X590716Y267542D01*
Y268398D01*
X590431Y269827D01*
X589859Y270684D01*
X589002Y270969D01*
X588431D01*
X592059D02*
Y264971D01*
X596058Y270969D02*
X592059Y266970D01*
X593487Y268398D02*
X596058Y264971D01*
D12*
X86868Y105156D02*
G03*
X80772Y105156I-3048J0D01*
G01*
D13*
X147320Y3810D02*
Y6350D01*
X341630Y11430D02*
X347980Y5080D01*
X342900Y440690D02*
X607060D01*
X557530Y59690D02*
X607060Y109220D01*
X345440Y59690D02*
X557530D01*
X361950Y722630D02*
Y831850D01*
X341630Y702310D02*
X361950Y722630D01*
X341630Y11430D02*
Y702310D01*
X212090Y355600D02*
Y831850D01*
Y355600D02*
X229870Y337820D01*
X2540D02*
X229870D01*
X2540D02*
X229870D01*
X231140Y336550D01*
Y5080D02*
Y336550D01*
X147320Y3810D02*
X607060D01*
Y831850D01*
X3810D02*
X607060D01*
X3810Y8890D02*
Y831850D01*
X370840Y815174D02*
Y821839D01*
X374172Y825171D01*
X377505Y821839D01*
Y815174D01*
Y820173D01*
X370840D01*
X380837Y815174D02*
Y821839D01*
X382503D01*
X384169Y820173D01*
Y815174D01*
Y820173D01*
X385835Y821839D01*
X387501Y820173D01*
Y815174D01*
X390834Y811842D02*
Y821839D01*
X395832D01*
X397498Y820173D01*
Y816841D01*
X395832Y815174D01*
X390834D01*
X400830D02*
X404163D01*
X402496D01*
Y825171D01*
X400830D01*
X409161Y815174D02*
X412493D01*
X410827D01*
Y821839D01*
X409161D01*
X419158Y815174D02*
Y823505D01*
Y820173D01*
X417492D01*
X420824D01*
X419158D01*
Y823505D01*
X420824Y825171D01*
X425822Y815174D02*
X429155D01*
X427488D01*
Y821839D01*
X425822D01*
X439151Y815174D02*
X435819D01*
X434153Y816841D01*
Y820173D01*
X435819Y821839D01*
X439151D01*
X440817Y820173D01*
Y818507D01*
X434153D01*
X444150Y821839D02*
Y815174D01*
Y818507D01*
X445816Y820173D01*
X447482Y821839D01*
X449148D01*
X370840Y800415D02*
Y795416D01*
X372506Y793750D01*
X377505D01*
Y800415D01*
X380837Y793750D02*
Y800415D01*
X385835D01*
X387501Y798748D01*
Y793750D01*
X390834D02*
X394166D01*
X392500D01*
Y800415D01*
X390834D01*
X400830Y802081D02*
Y800415D01*
X399164D01*
X402496D01*
X400830D01*
Y795416D01*
X402496Y793750D01*
X45720Y823423D02*
Y816759D01*
X49052Y813427D01*
X52385Y816759D01*
Y823423D01*
X57383Y813427D02*
X60715D01*
X62381Y815093D01*
Y818425D01*
X60715Y820091D01*
X57383D01*
X55717Y818425D01*
Y815093D01*
X57383Y813427D01*
X65714D02*
X69046D01*
X67380D01*
Y823423D01*
X65714D01*
X75710Y821757D02*
Y820091D01*
X74044D01*
X77376D01*
X75710D01*
Y815093D01*
X77376Y813427D01*
X84041Y820091D02*
X87373D01*
X89039Y818425D01*
Y813427D01*
X84041D01*
X82375Y815093D01*
X84041Y816759D01*
X89039D01*
X95704Y810094D02*
X97370D01*
X99036Y811760D01*
Y820091D01*
X94038D01*
X92372Y818425D01*
Y815093D01*
X94038Y813427D01*
X99036D01*
X107367D02*
X104035D01*
X102368Y815093D01*
Y818425D01*
X104035Y820091D01*
X107367D01*
X109033Y818425D01*
Y816759D01*
X102368D01*
X45720Y798667D02*
Y792002D01*
Y795334D01*
X47386Y797001D01*
X49052Y798667D01*
X50718D01*
X60715Y792002D02*
X57383D01*
X55717Y793668D01*
Y797001D01*
X57383Y798667D01*
X60715D01*
X62381Y797001D01*
Y795334D01*
X55717D01*
X69046Y788670D02*
X70712D01*
X72378Y790336D01*
Y798667D01*
X67380D01*
X65714Y797001D01*
Y793668D01*
X67380Y792002D01*
X72378D01*
X75710Y798667D02*
Y793668D01*
X77376Y792002D01*
X82375D01*
Y798667D01*
X85707Y792002D02*
X89039D01*
X87373D01*
Y801999D01*
X85707D01*
X95704Y798667D02*
X99036D01*
X100702Y797001D01*
Y792002D01*
X95704D01*
X94038Y793668D01*
X95704Y795334D01*
X100702D01*
X105701Y800333D02*
Y798667D01*
X104035D01*
X107367D01*
X105701D01*
Y793668D01*
X107367Y792002D01*
X112365D02*
X115697D01*
X114031D01*
Y798667D01*
X112365D01*
X122362Y792002D02*
X125694D01*
X127360Y793668D01*
Y797001D01*
X125694Y798667D01*
X122362D01*
X120696Y797001D01*
Y793668D01*
X122362Y792002D01*
X130693D02*
Y798667D01*
X135691D01*
X137357Y797001D01*
Y792002D01*
X150686Y798667D02*
Y793668D01*
X152352Y792002D01*
X157351D01*
Y798667D01*
X160683Y792002D02*
Y798667D01*
X165681D01*
X167347Y797001D01*
Y792002D01*
X170680D02*
X174012D01*
X172346D01*
Y798667D01*
X170680D01*
X180676Y800333D02*
Y798667D01*
X179010D01*
X182343D01*
X180676D01*
Y793668D01*
X182343Y792002D01*
X12700Y317022D02*
Y327019D01*
X17698D01*
X19365Y325353D01*
Y322021D01*
X17698Y320354D01*
X12700D01*
X16032D02*
X19365Y317022D01*
X27695D02*
X24363D01*
X22697Y318688D01*
Y322021D01*
X24363Y323687D01*
X27695D01*
X29361Y322021D01*
Y320354D01*
X22697D01*
X39358Y323687D02*
X34360D01*
X32694Y322021D01*
Y318688D01*
X34360Y317022D01*
X39358D01*
X42690Y327019D02*
Y317022D01*
Y322021D01*
X44356Y323687D01*
X47689D01*
X49355Y322021D01*
Y317022D01*
X54353Y323687D02*
X57685D01*
X59352Y322021D01*
Y317022D01*
X54353D01*
X52687Y318688D01*
X54353Y320354D01*
X59352D01*
X62684Y323687D02*
Y317022D01*
Y320354D01*
X64350Y322021D01*
X66016Y323687D01*
X67682D01*
X76013Y313690D02*
X77679D01*
X79345Y315356D01*
Y323687D01*
X74347D01*
X72681Y322021D01*
Y318688D01*
X74347Y317022D01*
X79345D01*
X82677D02*
X86010D01*
X84344D01*
Y323687D01*
X82677D01*
X91008Y317022D02*
Y323687D01*
X96006D01*
X97673Y322021D01*
Y317022D01*
X104337Y313690D02*
X106003D01*
X107669Y315356D01*
Y323687D01*
X102671D01*
X101005Y322021D01*
Y318688D01*
X102671Y317022D01*
X107669D01*
X120998Y323687D02*
Y318688D01*
X122665Y317022D01*
X127663D01*
Y323687D01*
X130995Y317022D02*
Y323687D01*
X135994D01*
X137660Y322021D01*
Y317022D01*
X140992D02*
X144324D01*
X142658D01*
Y323687D01*
X140992D01*
X150989Y325353D02*
Y323687D01*
X149323D01*
X152655D01*
X150989D01*
Y318688D01*
X152655Y317022D01*
X219710Y826607D02*
X223042D01*
X221376D01*
Y816610D01*
X219710D01*
X223042D01*
X228041D02*
X234705Y823275D01*
X243036Y826607D02*
X239704D01*
X238037Y824941D01*
Y818276D01*
X239704Y816610D01*
X243036D01*
X244702Y818276D01*
Y824941D01*
X243036Y826607D01*
X258031Y823275D02*
Y818276D01*
X259697Y816610D01*
X264695D01*
Y823275D01*
X268028Y816610D02*
Y823275D01*
X273026D01*
X274692Y821608D01*
Y816610D01*
X278025D02*
X281357D01*
X279691D01*
Y823275D01*
X278025D01*
X288021Y824941D02*
Y823275D01*
X286355D01*
X289687D01*
X288021D01*
Y818276D01*
X289687Y816610D01*
X349265Y333551D02*
Y339549D01*
X352264D01*
X353264Y338549D01*
Y336550D01*
X352264Y335550D01*
X349265D01*
X351265D02*
X353264Y333551D01*
X359262Y339549D02*
X355263D01*
Y336550D01*
X357263Y337550D01*
X358262D01*
X359262Y336550D01*
Y334551D01*
X358262Y333551D01*
X356263D01*
X355263Y334551D01*
X361261Y336550D02*
X365260D01*
X367259Y333551D02*
X369259D01*
X368259D01*
Y339549D01*
X367259Y338549D01*
X372258D02*
X373258Y339549D01*
X375257D01*
X376257Y338549D01*
Y334551D01*
X375257Y333551D01*
X373258D01*
X372258Y334551D01*
Y338549D01*
X378256Y339549D02*
Y333551D01*
Y335550D01*
X382255Y339549D01*
X379256Y336550D01*
X382255Y333551D01*
X349265Y379271D02*
Y385269D01*
X352264D01*
X353264Y384269D01*
Y382270D01*
X352264Y381270D01*
X349265D01*
X351265D02*
X353264Y379271D01*
X355263Y384269D02*
X356263Y385269D01*
X358262D01*
X359262Y384269D01*
Y383270D01*
X358262Y382270D01*
X359262Y381270D01*
Y380271D01*
X358262Y379271D01*
X356263D01*
X355263Y380271D01*
Y381270D01*
X356263Y382270D01*
X355263Y383270D01*
Y384269D01*
X356263Y382270D02*
X358262D01*
X361261D02*
X365260D01*
X367259Y379271D02*
X369259D01*
X368259D01*
Y385269D01*
X367259Y384269D01*
X372258D02*
X373258Y385269D01*
X375257D01*
X376257Y384269D01*
Y380271D01*
X375257Y379271D01*
X373258D01*
X372258Y380271D01*
Y384269D01*
X378256Y385269D02*
Y379271D01*
Y381270D01*
X382255Y385269D01*
X379256Y382270D01*
X382255Y379271D01*
X562625Y380541D02*
Y386539D01*
X565624D01*
X566624Y385539D01*
Y383540D01*
X565624Y382540D01*
X562625D01*
X564625D02*
X566624Y380541D01*
X568623Y386539D02*
X572622D01*
Y385539D01*
X568623Y381541D01*
Y380541D01*
X574622Y383540D02*
X578620D01*
X580620Y380541D02*
X582619D01*
X581619D01*
Y386539D01*
X580620Y385539D01*
X585618D02*
X586618Y386539D01*
X588617D01*
X589617Y385539D01*
Y381541D01*
X588617Y380541D01*
X586618D01*
X585618Y381541D01*
Y385539D01*
X591616Y386539D02*
Y380541D01*
Y382540D01*
X595615Y386539D01*
X592616Y383540D01*
X595615Y380541D01*
X349265Y421181D02*
Y427179D01*
X352264D01*
X353264Y426179D01*
Y424180D01*
X352264Y423180D01*
X349265D01*
X351265D02*
X353264Y421181D01*
X359262Y427179D02*
X357263Y426179D01*
X355263Y424180D01*
Y422181D01*
X356263Y421181D01*
X358262D01*
X359262Y422181D01*
Y423180D01*
X358262Y424180D01*
X355263D01*
X361261D02*
X365260D01*
X367259Y421181D02*
X369259D01*
X368259D01*
Y427179D01*
X367259Y426179D01*
X372258D02*
X373258Y427179D01*
X375257D01*
X376257Y426179D01*
Y422181D01*
X375257Y421181D01*
X373258D01*
X372258Y422181D01*
Y426179D01*
X378256Y427179D02*
Y421181D01*
Y423180D01*
X382255Y427179D01*
X379256Y424180D01*
X382255Y421181D01*
X237236Y449580D02*
Y459577D01*
X242234D01*
X243901Y457911D01*
Y454578D01*
X242234Y452912D01*
X237236D01*
X240568D02*
X243901Y449580D01*
X253897Y457911D02*
X252231Y459577D01*
X248899D01*
X247233Y457911D01*
Y456245D01*
X248899Y454578D01*
X252231D01*
X253897Y452912D01*
Y451246D01*
X252231Y449580D01*
X248899D01*
X247233Y451246D01*
X257230Y459577D02*
X263894D01*
X260562D01*
Y449580D01*
X270559D02*
X267226Y452912D01*
Y456245D01*
X270559Y459577D01*
X280555D02*
X277223D01*
X275557Y457911D01*
Y451246D01*
X277223Y449580D01*
X280555D01*
X282222Y451246D01*
Y457911D01*
X280555Y459577D01*
X285554Y449580D02*
Y459577D01*
X292218Y449580D01*
Y459577D01*
X295550Y449580D02*
X298883Y452912D01*
Y456245D01*
X295550Y459577D01*
X237236Y323687D02*
X243901D01*
X240568D01*
Y313690D01*
X248899Y320354D02*
X252231D01*
X253897Y318688D01*
Y313690D01*
X248899D01*
X247233Y315356D01*
X248899Y317022D01*
X253897D01*
X257230Y320354D02*
Y313690D01*
Y317022D01*
X258896Y318688D01*
X260562Y320354D01*
X262228D01*
X272225Y313690D02*
X268892D01*
X267226Y315356D01*
Y318688D01*
X268892Y320354D01*
X272225D01*
X273891Y318688D01*
Y317022D01*
X267226D01*
X277223Y313690D02*
X283888Y320354D01*
X287220Y323687D02*
Y315356D01*
X288886Y313690D01*
X292218D01*
X293884Y315356D01*
Y323687D01*
X297217Y313690D02*
Y320354D01*
X302215D01*
X303881Y318688D01*
Y313690D01*
X307213D02*
X310546D01*
X308880D01*
Y320354D01*
X307213D01*
X317210Y322021D02*
Y320354D01*
X315544D01*
X318876D01*
X317210D01*
Y315356D01*
X318876Y313690D01*
X253138Y615472D02*
X251472Y617138D01*
X248140D01*
X246474Y615472D01*
Y608808D01*
X248140Y607142D01*
X251472D01*
X253138Y608808D01*
X263135Y617138D02*
X259803Y615472D01*
X256470Y612140D01*
Y608808D01*
X258137Y607142D01*
X261469D01*
X263135Y608808D01*
Y610474D01*
X261469Y612140D01*
X256470D01*
X266467D02*
X273132D01*
X276464Y607142D02*
Y608808D01*
X278130D01*
Y607142D01*
X276464D01*
X284795D02*
X288127D01*
X286461D01*
Y617138D01*
X284795Y615472D01*
X293125Y613806D02*
Y608808D01*
X294791Y607142D01*
X299790D01*
Y613806D01*
X309786Y617138D02*
X303122D01*
Y612140D01*
X306454D01*
X303122D01*
Y607142D01*
X245600Y159542D02*
X243934Y161208D01*
X240601D01*
X238935Y159542D01*
Y152878D01*
X240601Y151212D01*
X243934D01*
X245600Y152878D01*
X255596Y161208D02*
X248932D01*
Y156210D01*
X252264Y157876D01*
X253930D01*
X255596Y156210D01*
Y152878D01*
X253930Y151212D01*
X250598D01*
X248932Y152878D01*
X258929Y156210D02*
X265593D01*
X268925Y151212D02*
Y152878D01*
X270592D01*
Y151212D01*
X268925D01*
X277256D02*
X280588D01*
X278922D01*
Y161208D01*
X277256Y159542D01*
X295584Y157876D02*
Y152878D01*
X297250Y151212D01*
X302248D01*
Y157876D01*
X312245Y161208D02*
X305580D01*
Y156210D01*
X308913D01*
X305580D01*
Y151212D01*
X452385Y510078D02*
Y498082D01*
Y504080D01*
X460383D01*
Y510078D01*
Y498082D01*
X464382Y510078D02*
X472379Y498082D01*
Y510078D02*
X464382Y498082D01*
X476378Y510078D02*
X484375D01*
Y508079D01*
X476378Y500081D01*
Y498082D01*
X488374D02*
X492373D01*
X490373D01*
Y510078D01*
X488374Y508079D01*
X498371Y498082D02*
X502369D01*
X500370D01*
Y510078D01*
X498371Y508079D01*
X522363Y498082D02*
X526362D01*
X528361Y500081D01*
Y504080D01*
X526362Y506079D01*
X522363D01*
X520364Y504080D01*
Y500081D01*
X522363Y498082D01*
X532360Y506079D02*
Y500081D01*
X534359Y498082D01*
X540357D01*
Y506079D01*
X546355Y508079D02*
Y506079D01*
X544356D01*
X548354D01*
X546355D01*
Y500081D01*
X548354Y498082D01*
X479024Y658368D02*
Y646372D01*
Y652370D01*
X487021D01*
Y658368D01*
Y646372D01*
X491020Y658368D02*
X499017Y646372D01*
Y658368D02*
X491020Y646372D01*
X503016Y658368D02*
X511014D01*
Y656368D01*
X503016Y648371D01*
Y646372D01*
X515012D02*
X519011D01*
X517012D01*
Y658368D01*
X515012Y656368D01*
X525009Y646372D02*
X529008D01*
X527008D01*
Y658368D01*
X525009Y656368D01*
X535006Y644372D02*
X543003D01*
X547002Y646372D02*
X551001D01*
X549001D01*
Y658368D01*
X547002D01*
X564996Y654369D02*
X558998D01*
X556999Y652370D01*
Y648371D01*
X558998Y646372D01*
X564996D01*
X19924Y14611D02*
X24922D01*
X26588Y16277D01*
Y21275D01*
X19924D01*
X26588Y24608D02*
Y29606D01*
X24922Y31272D01*
X23256Y29606D01*
Y26274D01*
X21590Y24608D01*
X19924Y26274D01*
Y31272D01*
X16592Y34604D02*
X26588D01*
Y39603D01*
X24922Y41269D01*
X23256D01*
X21590D01*
X19924Y39603D01*
Y34604D01*
X99783Y68662D02*
Y78658D01*
X104781D01*
X106447Y76992D01*
Y73660D01*
X104781Y71994D01*
X99783D01*
X103115D02*
X106447Y68662D01*
X114778D02*
Y78658D01*
X109779Y73660D01*
X116444D01*
X119776Y78658D02*
X126441D01*
Y76992D01*
X119776Y70328D01*
Y68662D01*
X129773Y76992D02*
X131439Y78658D01*
X134771D01*
X136437Y76992D01*
Y70328D01*
X134771Y68662D01*
X131439D01*
X129773Y70328D01*
Y76992D01*
X167926Y471252D02*
Y481248D01*
X172924D01*
X174590Y479582D01*
Y476250D01*
X172924Y474584D01*
X167926D01*
X171258D02*
X174590Y471252D01*
X182921D02*
Y481248D01*
X177922Y476250D01*
X184587D01*
X187919Y481248D02*
X194584D01*
Y479582D01*
X187919Y472918D01*
Y471252D01*
X197916D02*
Y481248D01*
Y474584D02*
X202914Y477916D01*
X197916Y474584D02*
X202914Y471252D01*
X162490Y572852D02*
Y582848D01*
X167489D01*
X169155Y581182D01*
Y577850D01*
X167489Y576184D01*
X162490D01*
X165823D02*
X169155Y572852D01*
X182484D02*
X185816D01*
X184150D01*
Y582848D01*
X182484Y581182D01*
X197479Y582848D02*
X190814D01*
Y577850D01*
X194147Y579516D01*
X195813D01*
X197479Y577850D01*
Y574518D01*
X195813Y572852D01*
X192481D01*
X190814Y574518D01*
X200811Y572852D02*
Y582848D01*
Y576184D02*
X205810Y579516D01*
X200811Y576184D02*
X205810Y572852D01*
X166656Y135972D02*
Y145968D01*
X171654D01*
X173320Y144302D01*
Y140970D01*
X171654Y139304D01*
X166656D01*
X169988D02*
X173320Y135972D01*
X193314D02*
X186649D01*
X193314Y142636D01*
Y144302D01*
X191648Y145968D01*
X188315D01*
X186649Y144302D01*
X196646Y135972D02*
Y145968D01*
Y139304D02*
X201644Y142636D01*
X196646Y139304D02*
X201644Y135972D01*
X563895Y204011D02*
Y210009D01*
X566894D01*
X567894Y209009D01*
Y207010D01*
X566894Y206010D01*
X563895D01*
X565895D02*
X567894Y204011D01*
X573892D02*
X569893D01*
X573892Y208010D01*
Y209009D01*
X572892Y210009D01*
X570893D01*
X569893Y209009D01*
X575891Y207010D02*
X579890D01*
X581889Y204011D02*
X583889D01*
X582889D01*
Y210009D01*
X581889Y209009D01*
X586888D02*
X587888Y210009D01*
X589887D01*
X590887Y209009D01*
Y205011D01*
X589887Y204011D01*
X587888D01*
X586888Y205011D01*
Y209009D01*
X592886Y210009D02*
Y204011D01*
Y206010D01*
X596885Y210009D01*
X593886Y207010D01*
X596885Y204011D01*
X565665Y150061D02*
Y156059D01*
X568664D01*
X569664Y155059D01*
Y153060D01*
X568664Y152060D01*
X565665D01*
X567665D02*
X569664Y150061D01*
X571663D02*
X573663D01*
X572663D01*
Y156059D01*
X571663Y155059D01*
X576662Y153060D02*
X580660D01*
X582660Y150061D02*
X584659D01*
X583659D01*
Y156059D01*
X582660Y155059D01*
X587658D02*
X588658Y156059D01*
X590657D01*
X591657Y155059D01*
Y151061D01*
X590657Y150061D01*
X588658D01*
X587658Y151061D01*
Y155059D01*
X593656Y156059D02*
Y150061D01*
Y152060D01*
X597655Y156059D01*
X594656Y153060D01*
X597655Y150061D01*
X429284Y10242D02*
Y20238D01*
X434282D01*
X435948Y18572D01*
Y15240D01*
X434282Y13574D01*
X429284D01*
X439281Y10242D02*
Y20238D01*
X444279D01*
X445945Y18572D01*
Y15240D01*
X444279Y13574D01*
X439281D01*
X442613D02*
X445945Y10242D01*
X454276Y20238D02*
X450943D01*
X449277Y18572D01*
Y11908D01*
X450943Y10242D01*
X454276D01*
X455942Y11908D01*
Y18572D01*
X454276Y20238D01*
X465939Y18572D02*
X464273Y20238D01*
X460940D01*
X459274Y18572D01*
Y11908D01*
X460940Y10242D01*
X464273D01*
X465939Y11908D01*
Y15240D01*
X462606D01*
X479268Y20238D02*
Y10242D01*
Y15240D01*
X485932D01*
Y20238D01*
Y10242D01*
X495929Y20238D02*
X489264D01*
Y10242D01*
X495929D01*
X489264Y15240D02*
X492597D01*
X499261Y10242D02*
Y16906D01*
X502594Y20238D01*
X505926Y16906D01*
Y10242D01*
Y15240D01*
X499261D01*
X509258Y20238D02*
Y10242D01*
X514257D01*
X515923Y11908D01*
Y18572D01*
X514257Y20238D01*
X509258D01*
X525919D02*
X519255D01*
Y10242D01*
X525919D01*
X519255Y15240D02*
X522587D01*
X529252Y10242D02*
Y20238D01*
X534250D01*
X535916Y18572D01*
Y15240D01*
X534250Y13574D01*
X529252D01*
X532584D02*
X535916Y10242D01*
X25864Y84172D02*
Y96168D01*
X29863Y92169D01*
X33862Y96168D01*
Y84172D01*
X45858Y94169D02*
X43858Y96168D01*
X39860D01*
X37860Y94169D01*
Y86171D01*
X39860Y84172D01*
X43858D01*
X45858Y86171D01*
X49857Y84172D02*
Y96168D01*
X55855D01*
X57854Y94169D01*
Y90170D01*
X55855Y88171D01*
X49857D01*
X61853Y96168D02*
X69850D01*
Y94169D01*
X61853Y86171D01*
Y84172D01*
X73849Y94169D02*
X75848Y96168D01*
X79847D01*
X81846Y94169D01*
Y92169D01*
X79847Y90170D01*
X77847D01*
X79847D01*
X81846Y88171D01*
Y86171D01*
X79847Y84172D01*
X75848D01*
X73849Y86171D01*
X85845Y94169D02*
X87844Y96168D01*
X91843D01*
X93842Y94169D01*
Y92169D01*
X91843Y90170D01*
X93842Y88171D01*
Y86171D01*
X91843Y84172D01*
X87844D01*
X85845Y86171D01*
Y88171D01*
X87844Y90170D01*
X85845Y92169D01*
Y94169D01*
X87844Y90170D02*
X91843D01*
X97841Y94169D02*
X99840Y96168D01*
X103839D01*
X105838Y94169D01*
Y92169D01*
X103839Y90170D01*
X101840D01*
X103839D01*
X105838Y88171D01*
Y86171D01*
X103839Y84172D01*
X99840D01*
X97841Y86171D01*
X109837Y84172D02*
X113836D01*
X111836D01*
Y96168D01*
X109837Y94169D01*
X191141Y25318D02*
Y15322D01*
X197806D01*
X207802Y25318D02*
X201138D01*
Y15322D01*
X207802D01*
X201138Y20320D02*
X204470D01*
X211134Y25318D02*
Y15322D01*
X216133D01*
X217799Y16988D01*
Y23652D01*
X216133Y25318D01*
X211134D01*
X48276Y707387D02*
Y692152D01*
X55893D01*
X58432Y694691D01*
Y697230D01*
Y699769D01*
X55893Y702308D01*
X48276D01*
X66050D02*
X71128D01*
X73667Y699769D01*
Y692152D01*
X66050D01*
X63511Y694691D01*
X66050Y697230D01*
X73667D01*
X81285Y704847D02*
Y702308D01*
X78746D01*
X83824D01*
X81285D01*
Y694691D01*
X83824Y692152D01*
X93981Y704847D02*
Y702308D01*
X91442D01*
X96520D01*
X93981D01*
Y694691D01*
X96520Y692152D01*
X111755D02*
X106677D01*
X104137Y694691D01*
Y699769D01*
X106677Y702308D01*
X111755D01*
X114294Y699769D01*
Y697230D01*
X104137D01*
X119373Y702308D02*
Y692152D01*
Y697230D01*
X121912Y699769D01*
X124451Y702308D01*
X126990D01*
X134608D02*
Y694691D01*
X137147Y692152D01*
X144764D01*
Y689613D01*
X142225Y687073D01*
X139686D01*
X144764Y692152D02*
Y702308D01*
X475256Y744572D02*
X479254D01*
X477255D01*
Y756568D01*
X475256D01*
X487252Y744572D02*
X491250D01*
X493250Y746571D01*
Y750570D01*
X491250Y752569D01*
X487252D01*
X485252Y750570D01*
Y746571D01*
X487252Y744572D01*
X499248Y752569D02*
X503246D01*
X505246Y750570D01*
Y744572D01*
X499248D01*
X497248Y746571D01*
X499248Y748571D01*
X505246D01*
X517242Y756568D02*
Y744572D01*
X511244D01*
X509244Y746571D01*
Y750570D01*
X511244Y752569D01*
X517242D01*
X541234D02*
X535236D01*
X533237Y750570D01*
Y746571D01*
X535236Y744572D01*
X541234D01*
X551231D02*
X547232D01*
X545233Y746571D01*
Y750570D01*
X547232Y752569D01*
X551231D01*
X553230Y750570D01*
Y748571D01*
X545233D01*
X557229Y744572D02*
X561228D01*
X559228D01*
Y756568D01*
X557229D01*
X567226Y744572D02*
X571225D01*
X569225D01*
Y756568D01*
X567226D01*
X257817Y791208D02*
X252738D01*
X250199Y788668D01*
Y778512D01*
X252738Y775973D01*
X257817D01*
X260356Y778512D01*
Y788668D01*
X257817Y791208D01*
X265434D02*
Y775973D01*
X275591D01*
X290826Y791208D02*
X280669D01*
Y775973D01*
X290826D01*
X280669Y783590D02*
X285748D01*
X295904Y791208D02*
Y775973D01*
X303522D01*
X306061Y778512D01*
Y788668D01*
X303522Y791208D01*
X295904D01*
X396930Y78938D02*
X388932D01*
Y66942D01*
X396930D01*
X388932Y72940D02*
X392931D01*
X408926Y76939D02*
X406927Y78938D01*
X402928D01*
X400929Y76939D01*
Y74939D01*
X402928Y72940D01*
X406927D01*
X408926Y70941D01*
Y68941D01*
X406927Y66942D01*
X402928D01*
X400929Y68941D01*
X412925Y66942D02*
Y78938D01*
X418923D01*
X420922Y76939D01*
Y72940D01*
X418923Y70941D01*
X412925D01*
X424921Y72940D02*
X432918D01*
X436917Y66942D02*
X440916D01*
X438916D01*
Y78938D01*
X436917Y76939D01*
X454911Y66942D02*
X446914D01*
X454911Y74939D01*
Y76939D01*
X452912Y78938D01*
X448913D01*
X446914Y76939D01*
X466907Y78938D02*
X458910D01*
Y72940D01*
X462909D01*
X458910D01*
Y66942D01*
X70852Y172909D02*
X68852Y174908D01*
X64854D01*
X62854Y172909D01*
Y164911D01*
X64854Y162912D01*
X68852D01*
X70852Y164911D01*
X82848Y174908D02*
X74850D01*
Y168910D01*
X78849Y170909D01*
X80849D01*
X82848Y168910D01*
Y164911D01*
X80849Y162912D01*
X76850D01*
X74850Y164911D01*
X86847Y168910D02*
X94844D01*
X104841Y162912D02*
Y174908D01*
X98843Y168910D01*
X106840D01*
X110839Y162912D02*
Y164911D01*
X112838D01*
Y162912D01*
X110839D01*
X120836Y174908D02*
X128833D01*
Y172909D01*
X120836Y164911D01*
Y162912D01*
X132832Y170909D02*
Y164911D01*
X134831Y162912D01*
X140829D01*
Y170909D01*
X152825Y174908D02*
X144828D01*
Y168910D01*
X148827D01*
X144828D01*
Y162912D01*
X74882Y250379D02*
X72883Y252378D01*
X68884D01*
X66885Y250379D01*
Y242381D01*
X68884Y240382D01*
X72883D01*
X74882Y242381D01*
X84879Y240382D02*
Y252378D01*
X78881Y246380D01*
X86878D01*
X90877D02*
X98874D01*
X108871Y240382D02*
Y252378D01*
X102873Y246380D01*
X110870D01*
X114869Y240382D02*
Y242381D01*
X116868D01*
Y240382D01*
X114869D01*
X124866Y252378D02*
X132863D01*
Y250379D01*
X124866Y242381D01*
Y240382D01*
X136862Y248379D02*
Y242381D01*
X138861Y240382D01*
X144859D01*
Y248379D01*
X156855Y252378D02*
X148858D01*
Y246380D01*
X152857D01*
X148858D01*
Y240382D01*
X76130Y608519D02*
X74131Y610518D01*
X70132D01*
X68133Y608519D01*
Y600521D01*
X70132Y598522D01*
X74131D01*
X76130Y600521D01*
X80129Y608519D02*
X82128Y610518D01*
X86127D01*
X88126Y608519D01*
Y606519D01*
X86127Y604520D01*
X84127D01*
X86127D01*
X88126Y602521D01*
Y600521D01*
X86127Y598522D01*
X82128D01*
X80129Y600521D01*
X92125Y604520D02*
X100122D01*
X104121Y598522D02*
X108120D01*
X106120D01*
Y610518D01*
X104121Y608519D01*
X114118D02*
X116117Y610518D01*
X120116D01*
X122115Y608519D01*
Y600521D01*
X120116Y598522D01*
X116117D01*
X114118Y600521D01*
Y608519D01*
X126114Y606519D02*
Y600521D01*
X128113Y598522D01*
X134111D01*
Y606519D01*
X146107Y610518D02*
X138110D01*
Y604520D01*
X142109D01*
X138110D01*
Y598522D01*
X76130Y397699D02*
X74131Y399698D01*
X70132D01*
X68133Y397699D01*
Y389701D01*
X70132Y387702D01*
X74131D01*
X76130Y389701D01*
X88126Y387702D02*
X80129D01*
X88126Y395699D01*
Y397699D01*
X86127Y399698D01*
X82128D01*
X80129Y397699D01*
X92125Y393700D02*
X100122D01*
X104121Y387702D02*
X108120D01*
X106120D01*
Y399698D01*
X104121Y397699D01*
X114118D02*
X116117Y399698D01*
X120116D01*
X122115Y397699D01*
Y389701D01*
X120116Y387702D01*
X116117D01*
X114118Y389701D01*
Y397699D01*
X126114Y395699D02*
Y389701D01*
X128113Y387702D01*
X134111D01*
Y395699D01*
X146107Y399698D02*
X138110D01*
Y393700D01*
X142109D01*
X138110D01*
Y387702D01*
X459130Y373569D02*
X457131Y375568D01*
X453132D01*
X451133Y373569D01*
Y365571D01*
X453132Y363572D01*
X457131D01*
X459130Y365571D01*
X463129Y363572D02*
X467127D01*
X465128D01*
Y375568D01*
X463129Y373569D01*
X473125Y369570D02*
X481123D01*
X485121Y363572D02*
X489120D01*
X487121D01*
Y375568D01*
X485121Y373569D01*
X495118D02*
X497118Y375568D01*
X501116D01*
X503116Y373569D01*
Y365571D01*
X501116Y363572D01*
X497118D01*
X495118Y365571D01*
Y373569D01*
X507114Y371569D02*
Y365571D01*
X509114Y363572D01*
X515112D01*
Y371569D01*
X527108Y375568D02*
X519110D01*
Y369570D01*
X523109D01*
X519110D01*
Y363572D01*
X66942Y500028D02*
X74939D01*
X70941D01*
Y488032D01*
X86936Y498029D02*
X84936Y500028D01*
X80938D01*
X78938Y498029D01*
Y490031D01*
X80938Y488032D01*
X84936D01*
X86936Y490031D01*
X98932Y488032D02*
X90934D01*
X98932Y496029D01*
Y498029D01*
X96932Y500028D01*
X92934D01*
X90934Y498029D01*
X102930Y488032D02*
X106929D01*
X104930D01*
Y500028D01*
X102930Y498029D01*
X112927Y488032D02*
X116926D01*
X114927D01*
Y500028D01*
X112927Y498029D01*
X122924Y500028D02*
X130921D01*
Y498029D01*
X122924Y490031D01*
Y488032D01*
D14*
X86868Y105156D02*
X89916D01*
X80772D02*
X86868D01*
X77724D02*
X80772D01*
M02*
