G04*
G04 #@! TF.GenerationSoftware,Altium Limited,Altium Designer,23.4.1 (23)*
G04*
G04 Layer_Color=16711935*
%FSLAX44Y44*%
%MOMM*%
G71*
G04*
G04 #@! TF.SameCoordinates,113CB1AB-12A2-433E-9A00-34448D6919C0*
G04*
G04*
G04 #@! TF.FilePolarity,Positive*
G04*
G01*
G75*
%ADD10C,0.1270*%
%ADD11C,0.2000*%
%ADD12C,0.0000*%
%ADD13C,0.2540*%
%ADD14C,0.1524*%
%ADD73C,0.1000*%
D10*
X300010Y409300D02*
G03*
X300010Y409300I-17550J0D01*
G01*
Y273410D02*
G03*
X300010Y273410I-17550J0D01*
G01*
X252510Y379350D02*
Y439250D01*
Y379350D02*
X312410D01*
Y439250D01*
X252510D02*
X312410D01*
X252510Y243460D02*
Y303360D01*
Y243460D02*
X312410D01*
Y303360D01*
X252510D02*
X312410D01*
X55910Y714370D02*
Y771870D01*
X129910D01*
Y714370D02*
Y771870D01*
X55910Y714370D02*
X129910D01*
D11*
X444640Y474870D02*
G03*
X444640Y474870I-1000J0D01*
G01*
X343480Y756920D02*
G03*
X343480Y756920I-1000J0D01*
G01*
X470090Y678040D02*
G03*
X470090Y678040I-1000J0D01*
G01*
X468780Y726440D02*
G03*
X468780Y726440I-1000J0D01*
G01*
X106410Y708120D02*
G03*
X106410Y708120I-1000J0D01*
G01*
X17620Y640D02*
X137620D01*
D12*
X86868Y105156D02*
G03*
X80772Y105156I-3048J0D01*
G01*
D13*
X58567Y-10264D02*
Y-3598D01*
X61900D01*
X63011Y-4709D01*
Y-6931D01*
X61900Y-8042D01*
X58567D01*
X69676Y-4709D02*
X68566Y-3598D01*
X66344D01*
X65233Y-4709D01*
Y-9153D01*
X66344Y-10264D01*
X68566D01*
X69676Y-9153D01*
X71898Y-3598D02*
Y-10264D01*
X75231D01*
X76342Y-9153D01*
Y-8042D01*
X75231Y-6931D01*
X71898D01*
X75231D01*
X76342Y-5820D01*
Y-4709D01*
X75231Y-3598D01*
X71898D01*
X89673D02*
X85230D01*
Y-10264D01*
X89673D01*
X85230Y-6931D02*
X87451D01*
X96339Y-3598D02*
Y-10264D01*
X93006D01*
X91895Y-9153D01*
Y-6931D01*
X93006Y-5820D01*
X96339D01*
X100782Y-12486D02*
X101893D01*
X103004Y-11375D01*
Y-5820D01*
X99672D01*
X98561Y-6931D01*
Y-9153D01*
X99672Y-10264D01*
X103004D01*
X108559D02*
X106337D01*
X105226Y-9153D01*
Y-6931D01*
X106337Y-5820D01*
X108559D01*
X109670Y-6931D01*
Y-8042D01*
X105226D01*
D14*
X68834Y108712D02*
X75184D01*
X68834D02*
Y113538D01*
X75184D01*
Y108712D02*
Y113538D01*
Y105156D02*
Y108712D01*
X68834Y127762D02*
X75184D01*
X68834D02*
Y132588D01*
X75184D01*
X92456D02*
X98806D01*
Y127762D02*
Y132588D01*
X92456Y127762D02*
X98806D01*
X92456D02*
Y132588D01*
Y136144D01*
Y123190D02*
X98806D01*
Y118110D02*
Y123190D01*
X92456Y118110D02*
X98806D01*
X92456Y113538D02*
X98806D01*
Y108712D02*
Y113538D01*
X92456Y108712D02*
X98806D01*
X92456Y123190D02*
Y127762D01*
Y118110D02*
Y123190D01*
Y113538D02*
Y118110D01*
Y108712D02*
Y113538D01*
Y105156D02*
Y108712D01*
X86868Y105156D02*
X92456D01*
X80772D02*
X86868D01*
X75184D02*
X80772D01*
X75184Y113538D02*
Y127762D01*
Y132588D01*
Y136144D01*
X92456D01*
D73*
X40620Y-12610D02*
X114620D01*
X40620Y42890D02*
X114620D01*
Y-12610D02*
Y42890D01*
X40620Y-12610D02*
Y42890D01*
X450840Y462170D02*
Y487570D01*
X552440D01*
Y462170D02*
Y487570D01*
X450840Y462170D02*
X552440D01*
X335280Y744220D02*
Y769620D01*
X233680Y744220D02*
X335280D01*
X233680D02*
Y769620D01*
X335280D01*
X476290Y665340D02*
X577890D01*
Y690740D01*
X476290D02*
X577890D01*
X476290Y665340D02*
Y690740D01*
X474980Y713740D02*
X576580D01*
Y739140D01*
X474980D02*
X576580D01*
X474980Y713740D02*
Y739140D01*
X146870Y82450D02*
X166870D01*
Y69950D02*
Y82450D01*
X146870Y69950D02*
X166870D01*
X146870D02*
Y82450D01*
X148140Y116940D02*
X168140D01*
X148140D02*
Y129440D01*
X168140D01*
Y116940D02*
Y129440D01*
X179370Y589380D02*
X199370D01*
X179370D02*
Y601880D01*
X199370D01*
Y589380D02*
Y601880D01*
X178620Y489050D02*
X198620D01*
X178620D02*
Y501550D01*
X198620D01*
Y489050D02*
Y501550D01*
M02*
